<svg width="168" height="48" viewBox="0 0 168 48" fill="none" xmlns="http://www.w3.org/2000/svg">
<path d="M166.156 42.4643C166.156 45.0223 164.041 47.0943 161.425 47.0943H6.58614C3.97113 47.0943 1.84851 45.0223 1.84851 42.4643V5.54169C1.84851 2.98492 3.97113 0.905655 6.58614 0.905655H161.424C164.041 0.905655 166.155 2.98492 166.155 5.54169L166.156 42.4643Z" fill="black"/>
<path d="M160.925 0.961499C163.775 0.961499 166.093 3.222 166.093 6V42C166.093 44.778 163.775 47.0385 160.925 47.0385H7.07926C4.23003 47.0385 1.91157 44.778 1.91157 42V6C1.91157 3.222 4.23003 0.961499 7.07926 0.961499H160.925ZM160.925 -1.27793e-06H7.07926C3.69618 -1.27793e-06 0.925415 2.7015 0.925415 6V42C0.925415 45.2985 3.69618 48 7.07926 48H160.925C164.308 48 167.079 45.2985 167.079 42V6C167.079 2.7015 164.308 -1.27793e-06 160.925 -1.27793e-06Z" fill="#A6A6A6"/>
<path d="M38.006 23.7408C37.9704 19.8732 41.254 17.9916 41.4042 17.904C39.5445 15.2604 36.662 14.8992 35.6491 14.8704C33.2282 14.622 30.8799 16.2828 29.6467 16.2828C28.3888 16.2828 26.4897 14.8944 24.443 14.9352C21.8091 14.9748 19.3451 16.4616 17.9937 18.7704C15.2048 23.478 17.2848 30.396 19.9568 34.2012C21.2934 36.0648 22.8553 38.1456 24.8996 38.0724C26.8996 37.992 27.6467 36.8292 30.0602 36.8292C32.4516 36.8292 33.1531 38.0724 35.238 38.0256C37.3845 37.992 38.7359 36.1536 40.0257 34.2732C41.5703 32.1372 42.1907 30.0336 42.2153 29.9256C42.1648 29.9088 38.0467 28.3764 38.006 23.7408Z" fill="white"/>
<path d="M34.0676 12.3672C35.1433 11.0556 35.8793 9.27119 35.675 7.46039C34.118 7.52759 32.171 8.51039 31.0497 9.79319C30.0577 10.9236 29.1716 12.7764 29.4005 14.5188C31.1494 14.646 32.9451 13.6584 34.0676 12.3672Z" fill="white"/>
<path d="M66.95 37.8048H64.1549L62.6238 33.114H57.302L55.8435 37.8048H53.1223L58.3949 21.8352H61.6515L66.95 37.8048ZM62.1623 31.146L60.7777 26.976C60.6312 26.55 60.3568 25.5468 59.9518 23.9676H59.9026C59.7414 24.6468 59.4817 25.65 59.1248 26.976L57.7648 31.146H62.1623Z" fill="white"/>
<path d="M80.5094 31.9056C80.5094 33.864 79.9666 35.412 78.8811 36.5484C77.9088 37.56 76.7014 38.0652 75.2602 38.0652C73.7045 38.0652 72.5869 37.5204 71.9063 36.4308H71.8571V42.4968H69.2331V30.0804C69.2331 28.8492 69.1999 27.5856 69.1359 26.2896H71.4436L71.59 28.1148H71.6392C72.5143 26.7396 73.8423 26.0532 75.6245 26.0532C77.0177 26.0532 78.1808 26.5896 79.1112 27.6636C80.0442 28.7388 80.5094 30.1524 80.5094 31.9056ZM77.8362 31.9992C77.8362 30.8784 77.5777 29.9544 77.0583 29.2272C76.4909 28.4688 75.7291 28.0896 74.774 28.0896C74.1266 28.0896 73.5383 28.3008 73.0128 28.7172C72.486 29.1372 72.1414 29.6856 71.9802 30.3648C71.8989 30.6816 71.8583 30.9408 71.8583 31.1448V33.0648C71.8583 33.9024 72.1217 34.6092 72.6485 35.1864C73.1752 35.7636 73.8596 36.0516 74.7014 36.0516C75.6897 36.0516 76.4589 35.6796 77.0091 34.938C77.5605 34.1952 77.8362 33.216 77.8362 31.9992Z" fill="white"/>
<path d="M94.0934 31.9056C94.0934 33.864 93.5506 35.412 92.4638 36.5484C91.4928 37.56 90.2854 38.0652 88.8441 38.0652C87.2885 38.0652 86.1709 37.5204 85.4915 36.4308H85.4423V42.4968H82.8183V30.0804C82.8183 28.8492 82.7851 27.5856 82.7211 26.2896H85.0288L85.1752 28.1148H85.2245C86.0983 26.7396 87.4263 26.0532 89.2097 26.0532C90.6017 26.0532 91.7648 26.5896 92.6977 27.6636C93.6269 28.7388 94.0934 30.1524 94.0934 31.9056ZM91.4201 31.9992C91.4201 30.8784 91.1605 29.9544 90.6411 29.2272C90.0737 28.4688 89.3143 28.0896 88.358 28.0896C87.7094 28.0896 87.1223 28.3008 86.5955 28.7172C86.0688 29.1372 85.7254 29.6856 85.5641 30.3648C85.4841 30.6816 85.4423 30.9408 85.4423 31.1448V33.0648C85.4423 33.9024 85.7057 34.6092 86.23 35.1864C86.7568 35.7624 87.4411 36.0516 88.2854 36.0516C89.2737 36.0516 90.0429 35.6796 90.5931 34.938C91.1445 34.1952 91.4201 33.216 91.4201 31.9992Z" fill="white"/>
<path d="M109.281 33.3264C109.281 34.6848 108.797 35.79 107.826 36.6432C106.759 37.5756 105.274 38.0412 103.365 38.0412C101.602 38.0412 100.189 37.71 99.1199 37.0464L99.7279 34.914C100.88 35.5932 102.144 35.934 103.521 35.934C104.509 35.934 105.279 35.7156 105.831 35.2812C106.381 34.8468 106.656 34.2636 106.656 33.5364C106.656 32.8884 106.429 32.3424 105.975 31.8996C105.524 31.4568 104.769 31.0452 103.716 30.6648C100.848 29.622 99.4153 28.0944 99.4153 26.0856C99.4153 24.7728 99.9174 23.6964 100.923 22.8588C101.925 22.02 103.261 21.6012 104.933 21.6012C106.423 21.6012 107.661 21.8544 108.65 22.3596L107.994 24.4452C107.071 23.9556 106.027 23.7108 104.859 23.7108C103.936 23.7108 103.215 23.9328 102.698 24.3744C102.261 24.7692 102.042 25.2504 102.042 25.8204C102.042 26.4516 102.292 26.9736 102.794 27.384C103.231 27.7632 104.024 28.1736 105.176 28.6164C106.586 29.1696 107.621 29.8164 108.287 30.558C108.95 31.2972 109.281 32.2224 109.281 33.3264Z" fill="white"/>
<path d="M117.957 28.2096H115.064V33.8004C115.064 35.2224 115.574 35.9328 116.596 35.9328C117.064 35.9328 117.453 35.8932 117.761 35.814L117.834 37.7568C117.317 37.9452 116.636 38.04 115.793 38.04C114.757 38.04 113.947 37.7316 113.362 37.116C112.78 36.4992 112.487 35.4648 112.487 34.0116V28.2072H110.764V26.2872H112.487V24.1788L115.064 23.4204V26.2872H117.957V28.2096Z" fill="white"/>
<path d="M131.007 31.9524C131.007 33.7224 130.487 35.1756 129.451 36.312C128.364 37.482 126.922 38.0652 125.124 38.0652C123.391 38.0652 122.011 37.5048 120.982 36.384C119.953 35.2632 119.439 33.8484 119.439 32.1432C119.439 30.3588 119.968 28.8972 121.03 27.7608C122.09 26.6232 123.52 26.0544 125.318 26.0544C127.051 26.0544 128.445 26.6148 129.498 27.7368C130.504 28.8252 131.007 30.2304 131.007 31.9524ZM128.284 32.0352C128.284 30.9732 128.052 30.0624 127.58 29.3028C127.03 28.3836 126.244 27.9252 125.224 27.9252C124.17 27.9252 123.368 28.3848 122.818 29.3028C122.347 30.0636 122.114 30.9888 122.114 32.0832C122.114 33.1452 122.347 34.056 122.818 34.8144C123.386 35.7336 124.178 36.192 125.201 36.192C126.203 36.192 126.989 35.724 127.557 34.7904C128.04 34.0164 128.284 33.096 128.284 32.0352Z" fill="white"/>
<path d="M139.536 28.5396C139.276 28.4928 138.999 28.4688 138.709 28.4688C137.786 28.4688 137.072 28.8084 136.57 29.4888C136.133 30.0888 135.914 30.8472 135.914 31.7628V37.8048H133.291L133.316 29.916C133.316 28.5888 133.282 27.3804 133.217 26.2908H135.503L135.599 28.494H135.671C135.948 27.7368 136.385 27.1272 136.983 26.67C137.568 26.2584 138.199 26.0532 138.88 26.0532C139.122 26.0532 139.341 26.07 139.536 26.1V28.5396Z" fill="white"/>
<path d="M151.271 31.5024C151.271 31.9608 151.24 32.3472 151.175 32.6628H143.303C143.334 33.8004 143.714 34.6704 144.445 35.2704C145.109 35.8068 145.967 36.0756 147.02 36.0756C148.186 36.0756 149.249 35.8944 150.205 35.5308L150.616 37.3068C149.499 37.782 148.18 38.0184 146.657 38.0184C144.826 38.0184 143.388 37.4928 142.342 36.4428C141.298 35.3928 140.775 33.9828 140.775 32.214C140.775 30.4776 141.261 29.0316 142.235 27.8784C143.254 26.6472 144.631 26.0316 146.364 26.0316C148.066 26.0316 149.355 26.6472 150.23 27.8784C150.923 28.8564 151.271 30.066 151.271 31.5024ZM148.769 30.8388C148.786 30.0804 148.615 29.4252 148.26 28.872C147.805 28.1604 147.108 27.8052 146.168 27.8052C145.311 27.8052 144.613 28.152 144.08 28.848C143.643 29.4012 143.383 30.0648 143.303 30.8376H148.769V30.8388Z" fill="white"/>
<path d="M56.9412 12.6313V11.5671H58.0677C59.0413 11.5671 59.6697 11.0293 59.6697 10.2481V10.2368C59.6697 9.51225 59.1036 9.07637 58.1243 9.07637C57.162 9.07637 56.5676 9.48961 56.4714 10.1915L56.4657 10.2708H55.2486L55.2543 10.1915C55.3392 8.81032 56.4544 7.96687 58.1639 7.96687C59.8055 7.96687 60.9264 8.83862 60.9264 10.101V10.1123C60.9264 11.018 60.315 11.7766 59.4093 11.986V12.0313C60.5018 12.1671 61.1754 12.9427 61.1754 14.0409V14.0522C61.1754 15.3994 59.8848 16.407 58.1356 16.407C56.3298 16.407 55.1298 15.49 55.0448 14.1427L55.0392 14.0748H56.2789L56.2845 14.1201C56.3751 14.873 57.0601 15.2975 58.1356 15.2975C59.1885 15.2975 59.8791 14.7824 59.8791 13.9956V13.9842C59.8791 13.1351 59.2225 12.6313 58.1017 12.6313H56.9412Z" fill="white"/>
<path d="M64.8137 16.3787C63.625 16.3787 62.8268 15.6485 62.8268 14.5786V14.5673C62.8268 13.5314 63.6306 12.8974 65.0401 12.8125L66.6648 12.7162V12.269C66.6648 11.6124 66.2346 11.2161 65.476 11.2161C64.7684 11.2161 64.3325 11.5501 64.2307 12.0256L64.2193 12.0766H63.0645L63.0702 12.0143C63.1551 10.9897 64.0439 10.2029 65.51 10.2029C66.9648 10.2029 67.8875 10.9727 67.8875 12.1671V16.2712H66.6648V15.3315H66.6365C66.2912 15.9712 65.6062 16.3787 64.8137 16.3787ZM64.0608 14.5503C64.0608 15.0711 64.4911 15.3994 65.1477 15.3994C66.0081 15.3994 66.6648 14.8164 66.6648 14.0409V13.5767L65.2043 13.6672C64.4684 13.7125 64.0608 14.0352 64.0608 14.539V14.5503Z" fill="white"/>
<path d="M69.9917 16.2712V10.3161H72.6976C73.858 10.3161 74.5599 10.8991 74.5599 11.8445V11.8558C74.5599 12.4728 74.1184 13.0332 73.5467 13.1408V13.1861C74.3165 13.288 74.826 13.8201 74.826 14.5503V14.5616C74.826 15.6032 74.0222 16.2712 72.7315 16.2712H69.9917ZM71.2031 12.7728H72.3183C73.0089 12.7728 73.3485 12.5181 73.3485 11.9917V11.9803C73.3485 11.4879 73.0315 11.2218 72.4428 11.2218H71.2031V12.7728ZM71.2031 15.3655H72.5051C73.1957 15.3655 73.5693 15.0768 73.5693 14.5107V14.4994C73.5693 13.9276 73.1674 13.6616 72.3636 13.6616H71.2031V15.3655Z" fill="white"/>
<path d="M78.4756 16.3787C77.2868 16.3787 76.4887 15.6485 76.4887 14.5786V14.5673C76.4887 13.5314 77.2925 12.8974 78.702 12.8125L80.3267 12.7162V12.269C80.3267 11.6124 79.8964 11.2161 79.1379 11.2161C78.4303 11.2161 77.9944 11.5501 77.8925 12.0256L77.8812 12.0766H76.7264L76.7321 12.0143C76.817 10.9897 77.7057 10.2029 79.1719 10.2029C80.6267 10.2029 81.5494 10.9727 81.5494 12.1671V16.2712H80.3267V15.3315H80.2984C79.953 15.9712 79.2681 16.3787 78.4756 16.3787ZM77.7227 14.5503C77.7227 15.0711 78.1529 15.3994 78.8096 15.3994C79.67 15.3994 80.3267 14.8164 80.3267 14.0409V13.5767L78.8662 13.6672C78.1303 13.7125 77.7227 14.0352 77.7227 14.539V14.5503Z" fill="white"/>
<path d="M87.5595 16.2712V13.6842H84.8763V16.2712H83.6536V10.3161H84.8763V12.7162H87.5595V10.3161H88.7822V16.2712H87.5595Z" fill="white"/>
<path d="M95.4377 10.3161V11.2897H93.5753V16.2712H92.3469V11.2897H90.4845V10.3161H95.4377Z" fill="white"/>
<path d="M98.7023 16.3787C97.5136 16.3787 96.7154 15.6485 96.7154 14.5786V14.5673C96.7154 13.5314 97.5193 12.8974 98.9288 12.8125L100.553 12.7162V12.269C100.553 11.6124 100.123 11.2161 99.3647 11.2161C98.6571 11.2161 98.2212 11.5501 98.1193 12.0256L98.108 12.0766H96.9532L96.9588 12.0143C97.0437 10.9897 97.9325 10.2029 99.3986 10.2029C100.853 10.2029 101.776 10.9727 101.776 12.1671V16.2712H100.553V15.3315H100.525C100.18 15.9712 99.4949 16.3787 98.7023 16.3787ZM97.9495 14.5503C97.9495 15.0711 98.3797 15.3994 99.0363 15.3994C99.8968 15.3994 100.553 14.8164 100.553 14.0409V13.5767L99.0929 13.6672C98.357 13.7125 97.9495 14.0352 97.9495 14.539V14.5503Z" fill="white"/>
<path d="M104.837 16.2712H103.331L105.867 13.1238L103.422 10.3161H104.871L106.965 12.7898H107.124V10.3161H108.324V12.7898H108.483L110.577 10.3161H112.021L109.575 13.1182L112.117 16.2712H110.605L108.483 13.5993H108.324V16.2712H107.124V13.5993H106.965L104.837 16.2712Z" fill="white"/>
<path d="M113.694 16.2712V10.3161H114.906V14.4824H114.963L117.697 10.3161H118.902V16.2712H117.685V12.0879H117.634L114.9 16.2712H113.694Z" fill="white"/>
<path d="M125.558 10.3161V11.2897H123.695V16.2712H122.467V11.2897H120.605V10.3161H125.558Z" fill="white"/>
<path d="M127.266 16.2712V10.3161H128.477V14.4824H128.534L131.268 10.3161H132.474V16.2712H131.257V12.0879H131.206L128.472 16.2712H127.266Z" fill="white"/>
<path d="M139.914 16.3901C138.522 16.3901 137.565 15.7221 137.446 14.6692L137.441 14.6182H138.641L138.658 14.6749C138.794 15.156 139.235 15.4164 139.909 15.4164C140.662 15.4164 141.126 15.0824 141.126 14.539V14.5277C141.126 13.9559 140.73 13.6842 139.903 13.6842H139.043V12.7955H139.897C140.616 12.7955 140.984 12.5238 140.984 11.9917V11.9803C140.984 11.4709 140.599 11.1709 139.954 11.1709C139.314 11.1709 138.867 11.4482 138.777 11.9011L138.771 11.9407H137.605L137.61 11.8954C137.752 10.8369 138.629 10.2029 139.971 10.2029C141.341 10.2029 142.179 10.8312 142.179 11.8501V11.8615C142.179 12.5011 141.765 13.0049 141.126 13.1521V13.1974C141.913 13.3559 142.343 13.8314 142.343 14.5277V14.539C142.343 15.6485 141.375 16.3901 139.914 16.3901Z" fill="white"/>
</svg>
