<svg width="306" height="72" viewBox="0 0 306 72" fill="none" xmlns="http://www.w3.org/2000/svg">
<path d="M304.234 63.6965C304.234 67.5335 301.061 70.6415 297.137 70.6415H8.87915C4.95663 70.6415 1.77271 67.5335 1.77271 63.6965V8.31251C1.77271 4.47736 4.95663 1.35846 8.87915 1.35846H297.135C301.061 1.35846 304.232 4.47736 304.232 8.31251L304.234 63.6965Z" fill="black"/>
<path d="M296.388 1.44225C300.662 1.44225 304.14 4.83301 304.14 9.00001V63C304.14 67.167 300.662 70.5578 296.388 70.5578H9.61895C5.34511 70.5578 1.86741 67.167 1.86741 63V9.00001C1.86741 4.83301 5.34511 1.44225 9.61895 1.44225H296.388ZM296.388 8.52932e-06H9.61895C4.54434 8.52932e-06 0.388184 4.05226 0.388184 9.00001V63C0.388184 67.9478 4.54434 72 9.61895 72H296.388C301.463 72 305.619 67.9478 305.619 63V9.00001C305.619 4.05226 301.463 8.52932e-06 296.388 8.52932e-06Z" fill="#A6A6A6"/>
<path d="M56.009 35.6112C55.9555 29.8098 60.881 26.9874 61.1062 26.856C58.3167 22.8906 53.993 22.3488 52.4736 22.3056C48.8422 21.933 45.3198 24.4242 43.4699 24.4242C41.5832 24.4242 38.7345 22.3416 35.6644 22.4028C31.7136 22.4622 28.0176 24.6924 25.9905 28.1556C21.8072 35.217 24.9272 45.594 28.9352 51.3018C30.9401 54.0972 33.2829 57.2184 36.3493 57.1086C39.3493 56.988 40.4699 55.2438 44.0902 55.2438C47.6773 55.2438 48.7296 57.1086 51.857 57.0384C55.0767 56.988 57.1038 54.2304 59.0385 51.4098C61.3555 48.2058 62.2859 45.0504 62.3228 44.8884C62.2472 44.8632 56.0699 42.5646 56.009 35.6112Z" fill="white"/>
<path d="M50.1013 18.5508C51.7148 16.5834 52.8188 13.9068 52.5124 11.1906C50.177 11.2914 47.2564 12.7656 45.5745 14.6898C44.0865 16.3854 42.7573 19.1646 43.1007 21.7782C45.7241 21.969 48.4176 20.4876 50.1013 18.5508Z" fill="white"/>
<path d="M99.4251 56.7071H95.2325L92.9359 49.6709H84.9531L82.7654 56.7071H78.6836L86.5925 32.7527H91.4774L99.4251 56.7071ZM92.2436 46.7189L90.1667 40.4639C89.947 39.8249 89.5353 38.3201 88.9279 35.9513H88.854C88.6122 36.9701 88.2227 38.4749 87.6873 40.4639L85.6473 46.7189H92.2436Z" fill="white"/>
<path d="M119.764 47.8584C119.764 50.796 118.95 53.118 117.322 54.8226C115.863 56.34 114.052 57.0978 111.89 57.0978C109.557 57.0978 107.88 56.2806 106.86 54.6462H106.786V63.7452H102.85V45.1206C102.85 43.2738 102.8 41.3784 102.704 39.4344H106.165L106.385 42.1722H106.459C107.772 40.1094 109.764 39.0798 112.437 39.0798C114.527 39.0798 116.271 39.8844 117.667 41.4954C119.066 43.1082 119.764 45.2286 119.764 47.8584ZM115.754 47.9988C115.754 46.3176 115.367 44.9316 114.588 43.8408C113.736 42.7032 112.594 42.1344 111.161 42.1344C110.19 42.1344 109.308 42.4512 108.519 43.0758C107.729 43.7058 107.212 44.5284 106.97 45.5472C106.848 46.0224 106.788 46.4112 106.788 46.7172V49.5972C106.788 50.8536 107.183 51.9138 107.973 52.7796C108.763 53.6454 109.789 54.0774 111.052 54.0774C112.535 54.0774 113.688 53.5194 114.514 52.407C115.341 51.2928 115.754 49.824 115.754 47.9988Z" fill="white"/>
<path d="M140.14 47.8584C140.14 50.796 139.326 53.118 137.696 54.8226C136.239 56.34 134.428 57.0978 132.266 57.0978C129.933 57.0978 128.257 56.2806 127.237 54.6462H127.164V63.7452H123.228V45.1206C123.228 43.2738 123.178 41.3784 123.082 39.4344H126.543L126.763 42.1722H126.837C128.148 40.1094 130.14 39.0798 132.815 39.0798C134.903 39.0798 136.647 39.8844 138.047 41.4954C139.441 43.1082 140.14 45.2286 140.14 47.8584ZM136.13 47.9988C136.13 46.3176 135.741 44.9316 134.962 43.8408C134.111 42.7032 132.972 42.1344 131.537 42.1344C130.564 42.1344 129.684 42.4512 128.893 43.0758C128.103 43.7058 127.588 44.5284 127.346 45.5472C127.226 46.0224 127.164 46.4112 127.164 46.7172V49.5972C127.164 50.8536 127.559 51.9138 128.345 52.7796C129.135 53.6436 130.162 54.0774 131.428 54.0774C132.911 54.0774 134.065 53.5194 134.89 52.407C135.717 51.2928 136.13 49.824 136.13 47.9988Z" fill="white"/>
<path d="M162.922 49.9896C162.922 52.0272 162.196 53.685 160.74 54.9648C159.139 56.3634 156.911 57.0618 154.047 57.0618C151.404 57.0618 149.284 56.565 147.68 55.5696L148.592 52.371C150.32 53.3898 152.216 53.901 154.282 53.901C155.764 53.901 156.918 53.5734 157.747 52.9218C158.572 52.2702 158.984 51.3954 158.984 50.3046C158.984 49.3326 158.644 48.5136 157.963 47.8494C157.285 47.1852 156.154 46.5678 154.573 45.9972C150.272 44.433 148.123 42.1416 148.123 39.1284C148.123 37.1592 148.876 35.5446 150.385 34.2882C151.887 33.03 153.892 32.4018 156.399 32.4018C158.635 32.4018 160.492 32.7816 161.975 33.5394L160.991 36.6678C159.606 35.9334 158.041 35.5662 156.289 35.5662C154.904 35.5662 153.822 35.8992 153.047 36.5616C152.391 37.1538 152.063 37.8756 152.063 38.7306C152.063 39.6774 152.437 40.4604 153.191 41.076C153.846 41.6448 155.037 42.2604 156.765 42.9246C158.879 43.7544 160.431 44.7246 161.43 45.837C162.425 46.9458 162.922 48.3336 162.922 49.9896Z" fill="white"/>
<path d="M175.935 42.3144H171.597V50.7006C171.597 52.8336 172.361 53.8992 173.893 53.8992C174.597 53.8992 175.18 53.8398 175.642 53.721L175.751 56.6352C174.975 56.9178 173.954 57.06 172.69 57.06C171.135 57.06 169.92 56.5974 169.043 55.674C168.17 54.7488 167.731 53.1972 167.731 51.0174V42.3108H165.146V39.4308H167.731V36.2682L171.597 35.1306V39.4308H175.935V42.3144Z" fill="white"/>
<path d="M195.51 47.9286C195.51 50.5836 194.731 52.7634 193.176 54.468C191.546 56.223 189.383 57.0978 186.685 57.0978C184.086 57.0978 182.016 56.2572 180.473 54.576C178.93 52.8948 178.158 50.7726 178.158 48.2148C178.158 45.5382 178.952 43.3458 180.545 41.6412C182.135 39.9348 184.28 39.0816 186.977 39.0816C189.576 39.0816 191.668 39.9222 193.247 41.6052C194.757 43.2378 195.51 45.3456 195.51 47.9286ZM191.426 48.0528C191.426 46.4598 191.077 45.0936 190.37 43.9542C189.545 42.5754 188.365 41.8878 186.837 41.8878C185.255 41.8878 184.053 42.5772 183.227 43.9542C182.52 45.0954 182.172 46.4832 182.172 48.1248C182.172 49.7178 182.52 51.084 183.227 52.2216C184.079 53.6004 185.267 54.288 186.802 54.288C188.304 54.288 189.484 53.586 190.335 52.1856C191.061 51.0246 191.426 49.644 191.426 48.0528Z" fill="white"/>
<path d="M208.304 42.8094C207.914 42.7392 207.499 42.7032 207.063 42.7032C205.679 42.7032 204.608 43.2126 203.855 44.2332C203.199 45.1332 202.871 46.2708 202.871 47.6442V56.7072H198.936L198.973 44.874C198.973 42.8832 198.924 41.0706 198.826 39.4362H202.254L202.398 42.741H202.507C202.922 41.6052 203.578 40.6908 204.475 40.005C205.352 39.3876 206.299 39.0798 207.32 39.0798C207.684 39.0798 208.012 39.105 208.304 39.15V42.8094Z" fill="white"/>
<path d="M225.907 47.2536C225.907 47.9412 225.861 48.5208 225.763 48.9942H213.955C214.001 50.7006 214.571 52.0056 215.668 52.9056C216.663 53.7102 217.95 54.1134 219.53 54.1134C221.279 54.1134 222.874 53.8416 224.308 53.2962L224.925 55.9602C223.248 56.673 221.269 57.0276 218.986 57.0276C216.239 57.0276 214.082 56.2392 212.513 54.6642C210.947 53.0892 210.163 50.9742 210.163 48.321C210.163 45.7164 210.892 43.5474 212.352 41.8176C213.881 39.9708 215.947 39.0474 218.546 39.0474C221.099 39.0474 223.032 39.9708 224.345 41.8176C225.384 43.2846 225.907 45.099 225.907 47.2536ZM222.154 46.2582C222.179 45.1206 221.923 44.1378 221.389 43.308C220.708 42.2406 219.661 41.7078 218.253 41.7078C216.966 41.7078 215.919 42.228 215.12 43.272C214.464 44.1018 214.075 45.0972 213.955 46.2564H222.154V46.2582Z" fill="white"/>
<path d="M84.4119 18.947V17.3507H86.1016C87.5621 17.3507 88.5046 16.544 88.5046 15.3722V15.3553C88.5046 14.2684 87.6555 13.6146 86.1865 13.6146C84.743 13.6146 83.8514 14.2344 83.7071 15.2873L83.6986 15.4062H81.873L81.8815 15.2873C82.0089 13.2155 83.6816 11.9503 86.2459 11.9503C88.7084 11.9503 90.3896 13.258 90.3896 15.1515V15.1685C90.3896 16.527 89.4726 17.6648 88.114 17.979V18.0469C89.7528 18.2507 90.7632 19.414 90.7632 21.0613V21.0783C90.7632 23.0992 88.8272 24.6106 86.2035 24.6106C83.4948 24.6106 81.6947 23.235 81.5673 21.2141L81.5588 21.1122H83.4184L83.4269 21.1802C83.5627 22.3095 84.5902 22.9463 86.2035 22.9463C87.7828 22.9463 88.8188 22.1736 88.8188 20.9934V20.9764C88.8188 19.7027 87.8338 18.947 86.1525 18.947H84.4119Z" fill="white"/>
<path d="M96.2206 24.5681C94.4375 24.5681 93.2402 23.4728 93.2402 21.868V21.851C93.2402 20.2971 94.446 19.3461 96.5603 19.2187L98.9972 19.0744V18.4036C98.9972 17.4186 98.3519 16.8242 97.2141 16.8242C96.1527 16.8242 95.4989 17.3252 95.346 18.0385L95.3291 18.1149H93.5969L93.6054 18.0215C93.7327 16.4846 95.0658 15.3043 97.265 15.3043C99.4473 15.3043 100.831 16.4591 100.831 18.2507V24.4068H98.9972V22.9973H98.9548C98.4368 23.9568 97.4094 24.5681 96.2206 24.5681ZM95.0913 21.8255C95.0913 22.6067 95.7366 23.0992 96.7216 23.0992C98.0123 23.0992 98.9972 22.2246 98.9972 21.0613V20.365L96.8065 20.5009C95.7027 20.5688 95.0913 21.0528 95.0913 21.8085V21.8255Z" fill="white"/>
<path d="M103.988 24.4068V15.4741H108.046C109.787 15.4741 110.84 16.3487 110.84 17.7667V17.7837C110.84 18.7093 110.178 19.5499 109.32 19.7112V19.7791C110.475 19.932 111.239 20.7301 111.239 21.8255V21.8425C111.239 23.4048 110.033 24.4068 108.097 24.4068H103.988ZM105.805 19.1593H107.477C108.513 19.1593 109.023 18.7772 109.023 17.9875V17.9705C109.023 17.2318 108.547 16.8327 107.664 16.8327H105.805V19.1593ZM105.805 23.0482H107.758C108.794 23.0482 109.354 22.6152 109.354 21.7661V21.7491C109.354 20.8915 108.751 20.4924 107.545 20.4924H105.805V23.0482Z" fill="white"/>
<path d="M116.713 24.5681C114.93 24.5681 113.733 23.4728 113.733 21.868V21.851C113.733 20.2971 114.939 19.3461 117.053 19.2187L119.49 19.0744V18.4036C119.49 17.4186 118.845 16.8242 117.707 16.8242C116.646 16.8242 115.992 17.3252 115.839 18.0385L115.822 18.1149H114.09L114.098 18.0215C114.226 16.4846 115.559 15.3043 117.758 15.3043C119.94 15.3043 121.324 16.4591 121.324 18.2507V24.4068H119.49V22.9973H119.448C118.93 23.9568 117.902 24.5681 116.713 24.5681ZM115.584 21.8255C115.584 22.6067 116.229 23.0992 117.214 23.0992C118.505 23.0992 119.49 22.2246 119.49 21.0613V20.365L117.299 20.5009C116.195 20.5688 115.584 21.0528 115.584 21.8085V21.8255Z" fill="white"/>
<path d="M130.339 24.4068V20.5264H126.315V24.4068H124.48V15.4741H126.315V19.0744H130.339V15.4741H132.173V24.4068H130.339Z" fill="white"/>
<path d="M142.157 15.4741V16.9346H139.363V24.4068H137.52V16.9346H134.727V15.4741H142.157Z" fill="white"/>
<path d="M147.054 24.5681C145.27 24.5681 144.073 23.4728 144.073 21.868V21.851C144.073 20.2971 145.279 19.3461 147.393 19.2187L149.83 19.0744V18.4036C149.83 17.4186 149.185 16.8242 148.047 16.8242C146.986 16.8242 146.332 17.3252 146.179 18.0385L146.162 18.1149H144.43L144.438 18.0215C144.566 16.4846 145.899 15.3043 148.098 15.3043C150.28 15.3043 151.664 16.4591 151.664 18.2507V24.4068H149.83V22.9973H149.788C149.27 23.9568 148.242 24.5681 147.054 24.5681ZM145.924 21.8255C145.924 22.6067 146.57 23.0992 147.555 23.0992C148.845 23.0992 149.83 22.2246 149.83 21.0613V20.365L147.639 20.5009C146.536 20.5688 145.924 21.0528 145.924 21.8085V21.8255Z" fill="white"/>
<path d="M156.256 24.4068H153.997L157.801 19.6857L154.133 15.4741H156.307L159.448 19.1848H159.686V15.4741H161.486V19.1848H161.724L164.866 15.4741H167.031L163.363 19.6772L167.175 24.4068H164.908L161.724 20.399H161.486V24.4068H159.686V20.399H159.448L156.256 24.4068Z" fill="white"/>
<path d="M169.542 24.4068V15.4741H171.359V21.7236H171.444L175.545 15.4741H177.354V24.4068H175.528V18.1319H175.452L171.35 24.4068H169.542Z" fill="white"/>
<path d="M187.337 15.4741V16.9346H184.543V24.4068H182.701V16.9346H179.907V15.4741H187.337Z" fill="white"/>
<path d="M189.899 24.4068V15.4741H191.716V21.7236H191.801L195.902 15.4741H197.711V24.4068H195.885V18.1319H195.809L191.707 24.4068H189.899Z" fill="white"/>
<path d="M208.872 24.5851C206.783 24.5851 205.348 23.5832 205.17 22.0038L205.161 21.9274H206.961L206.987 22.0123C207.19 22.734 207.853 23.1246 208.863 23.1246C209.992 23.1246 210.689 22.6237 210.689 21.8085V21.7915C210.689 20.9339 210.094 20.5264 208.855 20.5264H207.564V19.1932H208.846C209.925 19.1932 210.476 18.7857 210.476 17.9875V17.9705C210.476 17.2063 209.899 16.7563 208.931 16.7563C207.972 16.7563 207.301 17.1724 207.165 17.8517L207.156 17.9111H205.407L205.416 17.8432C205.628 16.2553 206.944 15.3043 208.957 15.3043C211.011 15.3043 212.268 16.2468 212.268 17.7752V17.7922C212.268 18.7517 211.648 19.5074 210.689 19.7282V19.7961C211.869 20.0339 212.514 20.7471 212.514 21.7915V21.8085C212.514 23.4728 211.062 24.5851 208.872 24.5851Z" fill="white"/>
<path d="M252.593 6H250.972V7.62162H252.593V6Z" fill="white"/>
<path d="M254.216 5.99994H252.594V7.62156H254.216V5.99994Z" fill="white"/>
<path d="M255.838 5.99994H254.216V7.62156H255.838V5.99994Z" fill="white"/>
<path d="M257.46 6H255.839V7.62162H257.46V6Z" fill="white"/>
<path d="M259.081 5.99994H257.46V7.62156H259.081V5.99994Z" fill="white"/>
<path d="M262.324 6H260.703V7.62162H262.324V6Z" fill="white"/>
<path d="M263.946 5.99994H262.324V7.62156H263.946V5.99994Z" fill="white"/>
<path d="M267.189 5.99994H265.568V7.62156H267.189V5.99994Z" fill="white"/>
<path d="M268.811 6H267.189V7.62162H268.811V6Z" fill="white"/>
<path d="M270.432 6H268.811V7.62162H270.432V6Z" fill="white"/>
<path d="M273.676 6H272.055V7.62162H273.676V6Z" fill="white"/>
<path d="M275.297 5.99994H273.676V7.62156H275.297V5.99994Z" fill="white"/>
<path d="M280.161 5.99994H278.54V7.62156H280.161V5.99994Z" fill="white"/>
<path d="M281.783 6H280.161V7.62162H281.783V6Z" fill="white"/>
<path d="M252.593 7.62195H250.972V9.24357H252.593V7.62195Z" fill="white"/>
<path d="M255.838 7.62164H254.216V9.24326H255.838V7.62164Z" fill="white"/>
<path d="M265.567 7.62195H263.945V9.24357H265.567V7.62195Z" fill="white"/>
<path d="M267.189 7.62164H265.568V9.24326H267.189V7.62164Z" fill="white"/>
<path d="M272.054 7.62164H270.432V9.24326H272.054V7.62164Z" fill="white"/>
<path d="M273.676 7.62195H272.055V9.24357H273.676V7.62195Z" fill="white"/>
<path d="M278.54 7.6217H276.918V9.24333H278.54V7.6217Z" fill="white"/>
<path d="M280.161 7.62164H278.54V9.24326H280.161V7.62164Z" fill="white"/>
<path d="M281.783 7.62195H280.161V9.24357H281.783V7.62195Z" fill="white"/>
<path d="M285.027 7.62164H283.406V9.24326H285.027V7.62164Z" fill="white"/>
<path d="M252.593 9.24292H250.972V10.8645H252.593V9.24292Z" fill="white"/>
<path d="M254.216 9.24304H252.594V10.8647H254.216V9.24304Z" fill="white"/>
<path d="M257.46 9.24292H255.839V10.8645H257.46V9.24292Z" fill="white"/>
<path d="M259.081 9.24304H257.46V10.8647H259.081V9.24304Z" fill="white"/>
<path d="M262.324 9.2431H260.703V10.8647H262.324V9.2431Z" fill="white"/>
<path d="M265.567 9.24292H263.945V10.8645H265.567V9.24292Z" fill="white"/>
<path d="M272.054 9.24304H270.432V10.8647H272.054V9.24304Z" fill="white"/>
<path d="M273.676 9.24292H272.055V10.8645H273.676V9.24292Z" fill="white"/>
<path d="M276.919 9.2431H275.297V10.8647H276.919V9.2431Z" fill="white"/>
<path d="M280.161 9.24304H278.54V10.8647H280.161V9.24304Z" fill="white"/>
<path d="M285.027 9.24304H283.406V10.8647H285.027V9.24304Z" fill="white"/>
<path d="M257.46 10.865H255.839V12.4866H257.46V10.865Z" fill="white"/>
<path d="M262.324 10.8648H260.703V12.4864H262.324V10.8648Z" fill="white"/>
<path d="M263.946 10.8647H262.324V12.4864H263.946V10.8647Z" fill="white"/>
<path d="M265.567 10.865H263.945V12.4866H265.567V10.865Z" fill="white"/>
<path d="M267.189 10.8647H265.568V12.4864H267.189V10.8647Z" fill="white"/>
<path d="M270.432 10.8648H268.811V12.4864H270.432V10.8648Z" fill="white"/>
<path d="M273.676 10.865H272.055V12.4866H273.676V10.865Z" fill="white"/>
<path d="M275.297 10.8647H273.676V12.4864H275.297V10.8647Z" fill="white"/>
<path d="M276.919 10.8648H275.297V12.4864H276.919V10.8648Z" fill="white"/>
<path d="M280.161 10.8647H278.54V12.4864H280.161V10.8647Z" fill="white"/>
<path d="M252.593 12.4863H250.972V14.1079H252.593V12.4863Z" fill="white"/>
<path d="M254.216 12.4865H252.594V14.1081H254.216V12.4865Z" fill="white"/>
<path d="M255.838 12.4865H254.216V14.1081H255.838V12.4865Z" fill="white"/>
<path d="M257.46 12.4863H255.839V14.1079H257.46V12.4863Z" fill="white"/>
<path d="M260.703 12.4865H259.082V14.1081H260.703V12.4865Z" fill="white"/>
<path d="M262.324 12.4865H260.703V14.1081H262.324V12.4865Z" fill="white"/>
<path d="M267.189 12.4865H265.568V14.1081H267.189V12.4865Z" fill="white"/>
<path d="M268.811 12.4865H267.189V14.1081H268.811V12.4865Z" fill="white"/>
<path d="M270.432 12.4865H268.811V14.1081H270.432V12.4865Z" fill="white"/>
<path d="M273.676 12.4863H272.055V14.1079H273.676V12.4863Z" fill="white"/>
<path d="M280.161 12.4865H278.54V14.1081H280.161V12.4865Z" fill="white"/>
<path d="M281.783 12.4863H280.161V14.1079H281.783V12.4863Z" fill="white"/>
<path d="M285.027 12.4865H283.406V14.1081H285.027V12.4865Z" fill="white"/>
<path d="M259.081 14.108H257.46V15.7297H259.081V14.108Z" fill="white"/>
<path d="M263.946 14.108H262.324V15.7297H263.946V14.108Z" fill="white"/>
<path d="M265.567 14.1082H263.945V15.7298H265.567V14.1082Z" fill="white"/>
<path d="M267.189 14.108H265.568V15.7297H267.189V14.108Z" fill="white"/>
<path d="M268.811 14.108H267.189V15.7297H268.811V14.108Z" fill="white"/>
<path d="M276.919 14.108H275.297V15.7297H276.919V14.108Z" fill="white"/>
<path d="M280.161 14.108H278.54V15.7297H280.161V14.108Z" fill="white"/>
<path d="M281.783 14.1082H280.161V15.7298H281.783V14.1082Z" fill="white"/>
<path d="M285.027 14.108H283.406V15.7297H285.027V14.108Z" fill="white"/>
<path d="M252.593 15.7296H250.972V17.3512H252.593V15.7296Z" fill="white"/>
<path d="M255.838 15.7296H254.216V17.3512H255.838V15.7296Z" fill="white"/>
<path d="M259.081 15.7296H257.46V17.3512H259.081V15.7296Z" fill="white"/>
<path d="M262.324 15.7296H260.703V17.3512H262.324V15.7296Z" fill="white"/>
<path d="M265.567 15.7296H263.945V17.3512H265.567V15.7296Z" fill="white"/>
<path d="M268.811 15.7296H267.189V17.3512H268.811V15.7296Z" fill="white"/>
<path d="M272.054 15.7296H270.432V17.3512H272.054V15.7296Z" fill="white"/>
<path d="M275.297 15.7296H273.676V17.3512H275.297V15.7296Z" fill="white"/>
<path d="M278.54 15.7296H276.918V17.3512H278.54V15.7296Z" fill="white"/>
<path d="M281.783 15.7296H280.161V17.3512H281.783V15.7296Z" fill="white"/>
<path d="M285.027 15.7296H283.406V17.3512H285.027V15.7296Z" fill="white"/>
<path d="M254.216 17.3514H252.594V18.9731H254.216V17.3514Z" fill="white"/>
<path d="M257.46 17.3516H255.839V18.9732H257.46V17.3516Z" fill="white"/>
<path d="M259.081 17.3514H257.46V18.9731H259.081V17.3514Z" fill="white"/>
<path d="M262.324 17.3514H260.703V18.9731H262.324V17.3514Z" fill="white"/>
<path d="M270.432 17.3514H268.811V18.9731H270.432V17.3514Z" fill="white"/>
<path d="M280.161 17.3514H278.54V18.9731H280.161V17.3514Z" fill="white"/>
<path d="M239.622 18.973H238V20.5946H239.622V18.973Z" fill="white"/>
<path d="M244.487 18.973H242.865V20.5946H244.487V18.973Z" fill="white"/>
<path d="M246.108 18.973H244.486V20.5946H246.108V18.973Z" fill="white"/>
<path d="M247.73 18.973H246.108V20.5946H247.73V18.973Z" fill="white"/>
<path d="M249.351 18.973H247.729V20.5946H249.351V18.973Z" fill="white"/>
<path d="M250.972 18.973H249.351V20.5946H250.972V18.973Z" fill="white"/>
<path d="M252.593 18.973H250.972V20.5946H252.593V18.973Z" fill="white"/>
<path d="M255.838 18.973H254.216V20.5946H255.838V18.973Z" fill="white"/>
<path d="M259.081 18.973H257.46V20.5946H259.081V18.973Z" fill="white"/>
<path d="M260.703 18.973H259.082V20.5946H260.703V18.973Z" fill="white"/>
<path d="M265.567 18.973H263.945V20.5946H265.567V18.973Z" fill="white"/>
<path d="M268.811 18.973H267.189V20.5946H268.811V18.973Z" fill="white"/>
<path d="M270.432 18.973H268.811V20.5946H270.432V18.973Z" fill="white"/>
<path d="M272.054 18.973H270.432V20.5946H272.054V18.973Z" fill="white"/>
<path d="M278.54 18.973H276.918V20.5946H278.54V18.973Z" fill="white"/>
<path d="M281.783 18.973H280.161V20.5946H281.783V18.973Z" fill="white"/>
<path d="M283.405 18.973H281.783V20.5946H283.405V18.973Z" fill="white"/>
<path d="M286.65 18.973H285.028V20.5946H286.65V18.973Z" fill="white"/>
<path d="M291.514 18.973H289.892V20.5946H291.514V18.973Z" fill="white"/>
<path d="M294.756 18.973H293.135V20.5946H294.756V18.973Z" fill="white"/>
<path d="M296.377 18.973H294.756V20.5946H296.377V18.973Z" fill="white"/>
<path d="M298 18.973H296.378V20.5946H298V18.973Z" fill="white"/>
<path d="M241.243 20.5945H239.621V22.2162H241.243V20.5945Z" fill="white"/>
<path d="M242.866 20.5945H241.244V22.2161H242.866V20.5945Z" fill="white"/>
<path d="M244.487 20.5945H242.865V22.2161H244.487V20.5945Z" fill="white"/>
<path d="M252.593 20.5945H250.972V22.2161H252.593V20.5945Z" fill="white"/>
<path d="M254.216 20.5945H252.594V22.2162H254.216V20.5945Z" fill="white"/>
<path d="M259.081 20.5945H257.46V22.2162H259.081V20.5945Z" fill="white"/>
<path d="M260.703 20.5946H259.082V22.2162H260.703V20.5946Z" fill="white"/>
<path d="M267.189 20.5945H265.568V22.2162H267.189V20.5945Z" fill="white"/>
<path d="M272.054 20.5945H270.432V22.2162H272.054V20.5945Z" fill="white"/>
<path d="M273.676 20.5945H272.055V22.2161H273.676V20.5945Z" fill="white"/>
<path d="M275.297 20.5945H273.676V22.2162H275.297V20.5945Z" fill="white"/>
<path d="M276.919 20.5946H275.297V22.2162H276.919V20.5946Z" fill="white"/>
<path d="M280.161 20.5945H278.54V22.2162H280.161V20.5945Z" fill="white"/>
<path d="M283.405 20.5945H281.783V22.2162H283.405V20.5945Z" fill="white"/>
<path d="M286.65 20.5945H285.028V22.2161H286.65V20.5945Z" fill="white"/>
<path d="M291.514 20.5946H289.892V22.2162H291.514V20.5946Z" fill="white"/>
<path d="M293.135 20.5945H291.513V22.2162H293.135V20.5945Z" fill="white"/>
<path d="M294.756 20.5945H293.135V22.2161H294.756V20.5945Z" fill="white"/>
<path d="M296.377 20.5945H294.756V22.2161H296.377V20.5945Z" fill="white"/>
<path d="M244.487 22.2163H242.865V23.8379H244.487V22.2163Z" fill="white"/>
<path d="M249.351 22.2161H247.729V23.8377H249.351V22.2161Z" fill="white"/>
<path d="M267.189 22.2161H265.568V23.8377H267.189V22.2161Z" fill="white"/>
<path d="M268.811 22.2161H267.189V23.8377H268.811V22.2161Z" fill="white"/>
<path d="M275.297 22.2161H273.676V23.8377H275.297V22.2161Z" fill="white"/>
<path d="M276.919 22.2161H275.297V23.8377H276.919V22.2161Z" fill="white"/>
<path d="M283.405 22.2161H281.783V23.8377H283.405V22.2161Z" fill="white"/>
<path d="M285.027 22.2161H283.406V23.8377H285.027V22.2161Z" fill="white"/>
<path d="M286.65 22.2163H285.028V23.8379H286.65V22.2163Z" fill="white"/>
<path d="M288.271 22.2163H286.649V23.8379H288.271V22.2163Z" fill="white"/>
<path d="M291.514 22.2161H289.892V23.8377H291.514V22.2161Z" fill="white"/>
<path d="M293.135 22.2161H291.513V23.8377H293.135V22.2161Z" fill="white"/>
<path d="M294.756 22.2163H293.135V23.8379H294.756V22.2163Z" fill="white"/>
<path d="M298 22.2161H296.378V23.8377H298V22.2161Z" fill="white"/>
<path d="M239.622 23.8378H238V25.4595H239.622V23.8378Z" fill="white"/>
<path d="M242.866 23.8376H241.244V25.4593H242.866V23.8376Z" fill="white"/>
<path d="M247.73 23.8378H246.108V25.4595H247.73V23.8378Z" fill="white"/>
<path d="M252.593 23.8376H250.972V25.4593H252.593V23.8376Z" fill="white"/>
<path d="M254.216 23.8378H252.594V25.4594H254.216V23.8378Z" fill="white"/>
<path d="M257.46 23.8376H255.839V25.4593H257.46V23.8376Z" fill="white"/>
<path d="M260.703 23.8378H259.082V25.4595H260.703V23.8378Z" fill="white"/>
<path d="M263.946 23.8378H262.324V25.4594H263.946V23.8378Z" fill="white"/>
<path d="M267.189 23.8378H265.568V25.4594H267.189V23.8378Z" fill="white"/>
<path d="M276.919 23.8378H275.297V25.4595H276.919V23.8378Z" fill="white"/>
<path d="M278.54 23.8378H276.918V25.4595H278.54V23.8378Z" fill="white"/>
<path d="M283.405 23.8378H281.783V25.4594H283.405V23.8378Z" fill="white"/>
<path d="M288.271 23.8376H286.649V25.4593H288.271V23.8376Z" fill="white"/>
<path d="M291.514 23.8378H289.892V25.4595H291.514V23.8378Z" fill="white"/>
<path d="M294.756 23.8376H293.135V25.4593H294.756V23.8376Z" fill="white"/>
<path d="M296.377 23.8376H294.756V25.4593H296.377V23.8376Z" fill="white"/>
<path d="M298 23.8378H296.378V25.4594H298V23.8378Z" fill="white"/>
<path d="M239.622 25.4595H238V27.0812H239.622V25.4595Z" fill="white"/>
<path d="M241.243 25.4595H239.621V27.0811H241.243V25.4595Z" fill="white"/>
<path d="M242.866 25.4597H241.244V27.0813H242.866V25.4597Z" fill="white"/>
<path d="M249.351 25.4595H247.729V27.0811H249.351V25.4595Z" fill="white"/>
<path d="M250.972 25.4597H249.351V27.0813H250.972V25.4597Z" fill="white"/>
<path d="M252.593 25.4597H250.972V27.0813H252.593V25.4597Z" fill="white"/>
<path d="M259.081 25.4595H257.46V27.0811H259.081V25.4595Z" fill="white"/>
<path d="M265.567 25.4597H263.945V27.0813H265.567V25.4597Z" fill="white"/>
<path d="M270.432 25.4595H268.811V27.0812H270.432V25.4595Z" fill="white"/>
<path d="M276.919 25.4595H275.297V27.0812H276.919V25.4595Z" fill="white"/>
<path d="M288.271 25.4597H286.649V27.0813H288.271V25.4597Z" fill="white"/>
<path d="M289.892 25.4595H288.27V27.0811H289.892V25.4595Z" fill="white"/>
<path d="M298 25.4595H296.378V27.0811H298V25.4595Z" fill="white"/>
<path d="M239.622 27.0811H238V28.7027H239.622V27.0811Z" fill="white"/>
<path d="M244.487 27.0812H242.865V28.7028H244.487V27.0812Z" fill="white"/>
<path d="M247.73 27.0811H246.108V28.7027H247.73V27.0811Z" fill="white"/>
<path d="M250.972 27.0812H249.351V28.7028H250.972V27.0812Z" fill="white"/>
<path d="M255.838 27.0811H254.216V28.7027H255.838V27.0811Z" fill="white"/>
<path d="M259.081 27.0811H257.46V28.7027H259.081V27.0811Z" fill="white"/>
<path d="M263.946 27.0811H262.324V28.7027H263.946V27.0811Z" fill="white"/>
<path d="M265.567 27.0812H263.945V28.7028H265.567V27.0812Z" fill="white"/>
<path d="M267.189 27.0811H265.568V28.7027H267.189V27.0811Z" fill="white"/>
<path d="M273.676 27.0812H272.055V28.7028H273.676V27.0812Z" fill="white"/>
<path d="M276.919 27.0811H275.297V28.7027H276.919V27.0811Z" fill="white"/>
<path d="M280.161 27.0811H278.54V28.7027H280.161V27.0811Z" fill="white"/>
<path d="M281.783 27.0812H280.161V28.7028H281.783V27.0812Z" fill="white"/>
<path d="M283.405 27.0811H281.783V28.7027H283.405V27.0811Z" fill="white"/>
<path d="M285.027 27.0811H283.406V28.7027H285.027V27.0811Z" fill="white"/>
<path d="M286.65 27.0812H285.028V28.7028H286.65V27.0812Z" fill="white"/>
<path d="M291.514 27.0811H289.892V28.7027H291.514V27.0811Z" fill="white"/>
<path d="M293.135 27.0811H291.513V28.7027H293.135V27.0811Z" fill="white"/>
<path d="M296.377 27.0812H294.756V28.7028H296.377V27.0812Z" fill="white"/>
<path d="M239.622 28.7026H238V30.3243H239.622V28.7026Z" fill="white"/>
<path d="M244.487 28.7026H242.865V30.3243H244.487V28.7026Z" fill="white"/>
<path d="M249.351 28.7026H247.729V30.3242H249.351V28.7026Z" fill="white"/>
<path d="M252.593 28.7026H250.972V30.3243H252.593V28.7026Z" fill="white"/>
<path d="M260.703 28.7026H259.082V30.3243H260.703V28.7026Z" fill="white"/>
<path d="M262.324 28.7026H260.703V30.3243H262.324V28.7026Z" fill="white"/>
<path d="M263.946 28.7026H262.324V30.3242H263.946V28.7026Z" fill="white"/>
<path d="M267.189 28.7026H265.568V30.3242H267.189V28.7026Z" fill="white"/>
<path d="M270.432 28.7026H268.811V30.3243H270.432V28.7026Z" fill="white"/>
<path d="M273.676 28.7026H272.055V30.3243H273.676V28.7026Z" fill="white"/>
<path d="M275.297 28.7026H273.676V30.3242H275.297V28.7026Z" fill="white"/>
<path d="M280.161 28.7026H278.54V30.3242H280.161V28.7026Z" fill="white"/>
<path d="M281.783 28.7026H280.161V30.3243H281.783V28.7026Z" fill="white"/>
<path d="M283.405 28.7026H281.783V30.3242H283.405V28.7026Z" fill="white"/>
<path d="M286.65 28.7026H285.028V30.3243H286.65V28.7026Z" fill="white"/>
<path d="M288.271 28.7026H286.649V30.3243H288.271V28.7026Z" fill="white"/>
<path d="M291.514 28.7026H289.892V30.3243H291.514V28.7026Z" fill="white"/>
<path d="M293.135 28.7026H291.513V30.3242H293.135V28.7026Z" fill="white"/>
<path d="M294.756 28.7026H293.135V30.3243H294.756V28.7026Z" fill="white"/>
<path d="M298 28.7026H296.378V30.3242H298V28.7026Z" fill="white"/>
<path d="M241.243 30.3243H239.621V31.9459H241.243V30.3243Z" fill="white"/>
<path d="M242.866 30.3243H241.244V31.946H242.866V30.3243Z" fill="white"/>
<path d="M246.108 30.3243H244.486V31.9459H246.108V30.3243Z" fill="white"/>
<path d="M247.73 30.3243H246.108V31.946H247.73V30.3243Z" fill="white"/>
<path d="M250.972 30.3243H249.351V31.946H250.972V30.3243Z" fill="white"/>
<path d="M252.593 30.3243H250.972V31.946H252.593V30.3243Z" fill="white"/>
<path d="M259.081 30.3243H257.46V31.9459H259.081V30.3243Z" fill="white"/>
<path d="M265.567 30.3243H263.945V31.946H265.567V30.3243Z" fill="white"/>
<path d="M267.189 30.3243H265.568V31.9459H267.189V30.3243Z" fill="white"/>
<path d="M268.811 30.3243H267.189V31.946H268.811V30.3243Z" fill="white"/>
<path d="M270.432 30.3243H268.811V31.946H270.432V30.3243Z" fill="white"/>
<path d="M272.054 30.3243H270.432V31.9459H272.054V30.3243Z" fill="white"/>
<path d="M276.919 30.3243H275.297V31.946H276.919V30.3243Z" fill="white"/>
<path d="M285.027 30.3243H283.406V31.9459H285.027V30.3243Z" fill="white"/>
<path d="M286.65 30.3243H285.028V31.946H286.65V30.3243Z" fill="white"/>
<path d="M288.271 30.3243H286.649V31.946H288.271V30.3243Z" fill="white"/>
<path d="M289.892 30.3243H288.27V31.9459H289.892V30.3243Z" fill="white"/>
<path d="M293.135 30.3243H291.513V31.9459H293.135V30.3243Z" fill="white"/>
<path d="M294.756 30.3243H293.135V31.946H294.756V30.3243Z" fill="white"/>
<path d="M241.243 31.9459H239.621V33.5675H241.243V31.9459Z" fill="white"/>
<path d="M246.108 31.9459H244.486V33.5675H246.108V31.9459Z" fill="white"/>
<path d="M247.73 31.9459H246.108V33.5675H247.73V31.9459Z" fill="white"/>
<path d="M249.351 31.9459H247.729V33.5675H249.351V31.9459Z" fill="white"/>
<path d="M254.216 31.9459H252.594V33.5675H254.216V31.9459Z" fill="white"/>
<path d="M259.081 31.9459H257.46V33.5675H259.081V31.9459Z" fill="white"/>
<path d="M262.324 31.9459H260.703V33.5675H262.324V31.9459Z" fill="white"/>
<path d="M265.567 31.9458H263.945V33.5674H265.567V31.9458Z" fill="white"/>
<path d="M267.189 31.9459H265.568V33.5675H267.189V31.9459Z" fill="white"/>
<path d="M272.054 31.9459H270.432V33.5675H272.054V31.9459Z" fill="white"/>
<path d="M275.297 31.9459H273.676V33.5675H275.297V31.9459Z" fill="white"/>
<path d="M278.54 31.9459H276.918V33.5675H278.54V31.9459Z" fill="white"/>
<path d="M280.161 31.9459H278.54V33.5675H280.161V31.9459Z" fill="white"/>
<path d="M283.405 31.9459H281.783V33.5675H283.405V31.9459Z" fill="white"/>
<path d="M285.027 31.9459H283.406V33.5675H285.027V31.9459Z" fill="white"/>
<path d="M286.65 31.9458H285.028V33.5674H286.65V31.9458Z" fill="white"/>
<path d="M288.271 31.9458H286.649V33.5674H288.271V31.9458Z" fill="white"/>
<path d="M289.892 31.9459H288.27V33.5675H289.892V31.9459Z" fill="white"/>
<path d="M294.756 31.9458H293.135V33.5674H294.756V31.9458Z" fill="white"/>
<path d="M298 31.9459H296.378V33.5675H298V31.9459Z" fill="white"/>
<path d="M239.622 33.5676H238V35.1892H239.622V33.5676Z" fill="white"/>
<path d="M241.243 33.5676H239.621V35.1892H241.243V33.5676Z" fill="white"/>
<path d="M242.866 33.5675H241.244V35.1891H242.866V33.5675Z" fill="white"/>
<path d="M250.972 33.5675H249.351V35.1891H250.972V33.5675Z" fill="white"/>
<path d="M252.593 33.5675H250.972V35.1891H252.593V33.5675Z" fill="white"/>
<path d="M254.216 33.5676H252.594V35.1892H254.216V33.5676Z" fill="white"/>
<path d="M257.46 33.5675H255.839V35.1891H257.46V33.5675Z" fill="white"/>
<path d="M260.703 33.5676H259.082V35.1892H260.703V33.5676Z" fill="white"/>
<path d="M262.324 33.5676H260.703V35.1892H262.324V33.5676Z" fill="white"/>
<path d="M265.567 33.5675H263.945V35.1891H265.567V33.5675Z" fill="white"/>
<path d="M268.811 33.5676H267.189V35.1892H268.811V33.5676Z" fill="white"/>
<path d="M272.054 33.5676H270.432V35.1892H272.054V33.5676Z" fill="white"/>
<path d="M275.297 33.5676H273.676V35.1892H275.297V33.5676Z" fill="white"/>
<path d="M281.783 33.5675H280.161V35.1891H281.783V33.5675Z" fill="white"/>
<path d="M294.756 33.5675H293.135V35.1891H294.756V33.5675Z" fill="white"/>
<path d="M239.622 35.1891H238V36.8108H239.622V35.1891Z" fill="white"/>
<path d="M241.243 35.1891H239.621V36.8107H241.243V35.1891Z" fill="white"/>
<path d="M244.487 35.189H242.865V36.8106H244.487V35.189Z" fill="white"/>
<path d="M246.108 35.1891H244.486V36.8107H246.108V35.1891Z" fill="white"/>
<path d="M249.351 35.1891H247.729V36.8107H249.351V35.1891Z" fill="white"/>
<path d="M257.46 35.189H255.839V36.8106H257.46V35.189Z" fill="white"/>
<path d="M260.703 35.1891H259.082V36.8108H260.703V35.1891Z" fill="white"/>
<path d="M262.324 35.1891H260.703V36.8108H262.324V35.1891Z" fill="white"/>
<path d="M263.946 35.1891H262.324V36.8107H263.946V35.1891Z" fill="white"/>
<path d="M268.811 35.1891H267.189V36.8108H268.811V35.1891Z" fill="white"/>
<path d="M272.054 35.1891H270.432V36.8107H272.054V35.1891Z" fill="white"/>
<path d="M273.676 35.189H272.055V36.8106H273.676V35.189Z" fill="white"/>
<path d="M275.297 35.1891H273.676V36.8107H275.297V35.1891Z" fill="white"/>
<path d="M276.919 35.1891H275.297V36.8108H276.919V35.1891Z" fill="white"/>
<path d="M278.54 35.1891H276.918V36.8108H278.54V35.1891Z" fill="white"/>
<path d="M280.161 35.1891H278.54V36.8107H280.161V35.1891Z" fill="white"/>
<path d="M283.405 35.1891H281.783V36.8107H283.405V35.1891Z" fill="white"/>
<path d="M286.65 35.189H285.028V36.8106H286.65V35.189Z" fill="white"/>
<path d="M288.271 35.189H286.649V36.8106H288.271V35.189Z" fill="white"/>
<path d="M289.892 35.1891H288.27V36.8107H289.892V35.1891Z" fill="white"/>
<path d="M293.135 35.1891H291.513V36.8107H293.135V35.1891Z" fill="white"/>
<path d="M294.756 35.189H293.135V36.8106H294.756V35.189Z" fill="white"/>
<path d="M298 35.1891H296.378V36.8107H298V35.1891Z" fill="white"/>
<path d="M242.866 36.811H241.244V38.4327H242.866V36.811Z" fill="white"/>
<path d="M250.972 36.811H249.351V38.4327H250.972V36.811Z" fill="white"/>
<path d="M252.593 36.811H250.972V38.4327H252.593V36.811Z" fill="white"/>
<path d="M254.216 36.8108H252.594V38.4324H254.216V36.8108Z" fill="white"/>
<path d="M255.838 36.8108H254.216V38.4324H255.838V36.8108Z" fill="white"/>
<path d="M257.46 36.811H255.839V38.4327H257.46V36.811Z" fill="white"/>
<path d="M259.081 36.8108H257.46V38.4324H259.081V36.8108Z" fill="white"/>
<path d="M260.703 36.8109H259.082V38.4325H260.703V36.8109Z" fill="white"/>
<path d="M262.324 36.8109H260.703V38.4325H262.324V36.8109Z" fill="white"/>
<path d="M268.811 36.8109H267.189V38.4325H268.811V36.8109Z" fill="white"/>
<path d="M275.297 36.8108H273.676V38.4324H275.297V36.8108Z" fill="white"/>
<path d="M280.161 36.8108H278.54V38.4324H280.161V36.8108Z" fill="white"/>
<path d="M285.027 36.8108H283.406V38.4324H285.027V36.8108Z" fill="white"/>
<path d="M288.271 36.811H286.649V38.4327H288.271V36.811Z" fill="white"/>
<path d="M289.892 36.8108H288.27V38.4324H289.892V36.8108Z" fill="white"/>
<path d="M291.514 36.8109H289.892V38.4325H291.514V36.8109Z" fill="white"/>
<path d="M298 36.8108H296.378V38.4324H298V36.8108Z" fill="white"/>
<path d="M244.487 38.4325H242.865V40.0541H244.487V38.4325Z" fill="white"/>
<path d="M246.108 38.4324H244.486V40.054H246.108V38.4324Z" fill="white"/>
<path d="M247.73 38.4324H246.108V40.054H247.73V38.4324Z" fill="white"/>
<path d="M249.351 38.4324H247.729V40.054H249.351V38.4324Z" fill="white"/>
<path d="M250.972 38.4325H249.351V40.0541H250.972V38.4325Z" fill="white"/>
<path d="M255.838 38.4324H254.216V40.054H255.838V38.4324Z" fill="white"/>
<path d="M259.081 38.4324H257.46V40.054H259.081V38.4324Z" fill="white"/>
<path d="M260.703 38.4324H259.082V40.054H260.703V38.4324Z" fill="white"/>
<path d="M262.324 38.4324H260.703V40.054H262.324V38.4324Z" fill="white"/>
<path d="M263.946 38.4324H262.324V40.054H263.946V38.4324Z" fill="white"/>
<path d="M265.567 38.4325H263.945V40.0541H265.567V38.4325Z" fill="white"/>
<path d="M267.189 38.4324H265.568V40.054H267.189V38.4324Z" fill="white"/>
<path d="M272.054 38.4324H270.432V40.054H272.054V38.4324Z" fill="white"/>
<path d="M276.919 38.4324H275.297V40.054H276.919V38.4324Z" fill="white"/>
<path d="M278.54 38.4324H276.918V40.054H278.54V38.4324Z" fill="white"/>
<path d="M285.027 38.4324H283.406V40.054H285.027V38.4324Z" fill="white"/>
<path d="M286.65 38.4325H285.028V40.0541H286.65V38.4325Z" fill="white"/>
<path d="M288.271 38.4325H286.649V40.0541H288.271V38.4325Z" fill="white"/>
<path d="M289.892 38.4324H288.27V40.054H289.892V38.4324Z" fill="white"/>
<path d="M291.514 38.4324H289.892V40.054H291.514V38.4324Z" fill="white"/>
<path d="M241.243 40.0541H239.621V41.6757H241.243V40.0541Z" fill="white"/>
<path d="M244.487 40.0542H242.865V41.6758H244.487V40.0542Z" fill="white"/>
<path d="M247.73 40.0541H246.108V41.6757H247.73V40.0541Z" fill="white"/>
<path d="M250.972 40.0542H249.351V41.6758H250.972V40.0542Z" fill="white"/>
<path d="M252.593 40.0542H250.972V41.6758H252.593V40.0542Z" fill="white"/>
<path d="M255.838 40.0541H254.216V41.6757H255.838V40.0541Z" fill="white"/>
<path d="M257.46 40.0542H255.839V41.6758H257.46V40.0542Z" fill="white"/>
<path d="M260.703 40.0541H259.082V41.6757H260.703V40.0541Z" fill="white"/>
<path d="M262.324 40.0541H260.703V41.6757H262.324V40.0541Z" fill="white"/>
<path d="M263.946 40.0541H262.324V41.6757H263.946V40.0541Z" fill="white"/>
<path d="M268.811 40.0541H267.189V41.6757H268.811V40.0541Z" fill="white"/>
<path d="M270.432 40.0541H268.811V41.6757H270.432V40.0541Z" fill="white"/>
<path d="M273.676 40.0542H272.055V41.6758H273.676V40.0542Z" fill="white"/>
<path d="M276.919 40.0541H275.297V41.6757H276.919V40.0541Z" fill="white"/>
<path d="M278.54 40.0541H276.918V41.6757H278.54V40.0541Z" fill="white"/>
<path d="M281.783 40.0542H280.161V41.6758H281.783V40.0542Z" fill="white"/>
<path d="M283.405 40.0541H281.783V41.6757H283.405V40.0541Z" fill="white"/>
<path d="M286.65 40.0542H285.028V41.6758H286.65V40.0542Z" fill="white"/>
<path d="M291.514 40.0541H289.892V41.6757H291.514V40.0541Z" fill="white"/>
<path d="M294.756 40.0542H293.135V41.6758H294.756V40.0542Z" fill="white"/>
<path d="M296.377 40.0542H294.756V41.6758H296.377V40.0542Z" fill="white"/>
<path d="M241.243 41.6756H239.621V43.2972H241.243V41.6756Z" fill="white"/>
<path d="M244.487 41.6757H242.865V43.2973H244.487V41.6757Z" fill="white"/>
<path d="M246.108 41.6756H244.486V43.2972H246.108V41.6756Z" fill="white"/>
<path d="M249.351 41.6756H247.729V43.2972H249.351V41.6756Z" fill="white"/>
<path d="M250.972 41.6757H249.351V43.2973H250.972V41.6757Z" fill="white"/>
<path d="M254.216 41.6756H252.594V43.2972H254.216V41.6756Z" fill="white"/>
<path d="M255.838 41.6756H254.216V43.2972H255.838V41.6756Z" fill="white"/>
<path d="M263.946 41.6756H262.324V43.2972H263.946V41.6756Z" fill="white"/>
<path d="M265.567 41.6757H263.945V43.2973H265.567V41.6757Z" fill="white"/>
<path d="M267.189 41.6756H265.568V43.2972H267.189V41.6756Z" fill="white"/>
<path d="M268.811 41.6757H267.189V43.2973H268.811V41.6757Z" fill="white"/>
<path d="M275.297 41.6756H273.676V43.2972H275.297V41.6756Z" fill="white"/>
<path d="M276.919 41.6757H275.297V43.2973H276.919V41.6757Z" fill="white"/>
<path d="M280.161 41.6756H278.54V43.2972H280.161V41.6756Z" fill="white"/>
<path d="M281.783 41.6757H280.161V43.2973H281.783V41.6757Z" fill="white"/>
<path d="M283.405 41.6756H281.783V43.2972H283.405V41.6756Z" fill="white"/>
<path d="M289.892 41.6756H288.27V43.2972H289.892V41.6756Z" fill="white"/>
<path d="M293.135 41.6756H291.513V43.2972H293.135V41.6756Z" fill="white"/>
<path d="M296.377 41.6757H294.756V43.2973H296.377V41.6757Z" fill="white"/>
<path d="M298 41.6756H296.378V43.2972H298V41.6756Z" fill="white"/>
<path d="M241.243 43.2973H239.621V44.9189H241.243V43.2973Z" fill="white"/>
<path d="M247.73 43.2974H246.108V44.919H247.73V43.2974Z" fill="white"/>
<path d="M250.972 43.2974H249.351V44.919H250.972V43.2974Z" fill="white"/>
<path d="M252.593 43.2974H250.972V44.919H252.593V43.2974Z" fill="white"/>
<path d="M254.216 43.2973H252.594V44.9189H254.216V43.2973Z" fill="white"/>
<path d="M255.838 43.2973H254.216V44.9189H255.838V43.2973Z" fill="white"/>
<path d="M262.324 43.2974H260.703V44.919H262.324V43.2974Z" fill="white"/>
<path d="M263.946 43.2973H262.324V44.9189H263.946V43.2973Z" fill="white"/>
<path d="M267.189 43.2973H265.568V44.9189H267.189V43.2973Z" fill="white"/>
<path d="M275.297 43.2973H273.676V44.9189H275.297V43.2973Z" fill="white"/>
<path d="M276.919 43.2974H275.297V44.919H276.919V43.2974Z" fill="white"/>
<path d="M283.405 43.2973H281.783V44.9189H283.405V43.2973Z" fill="white"/>
<path d="M289.892 43.2973H288.27V44.9189H289.892V43.2973Z" fill="white"/>
<path d="M291.514 43.2974H289.892V44.919H291.514V43.2974Z" fill="white"/>
<path d="M293.135 43.2973H291.513V44.9189H293.135V43.2973Z" fill="white"/>
<path d="M294.756 43.2974H293.135V44.919H294.756V43.2974Z" fill="white"/>
<path d="M298 43.2973H296.378V44.9189H298V43.2973Z" fill="white"/>
<path d="M239.622 44.9189H238V46.5406H239.622V44.9189Z" fill="white"/>
<path d="M241.243 44.9189H239.621V46.5405H241.243V44.9189Z" fill="white"/>
<path d="M242.866 44.9188H241.244V46.5404H242.866V44.9188Z" fill="white"/>
<path d="M244.487 44.9188H242.865V46.5404H244.487V44.9188Z" fill="white"/>
<path d="M247.73 44.9189H246.108V46.5406H247.73V44.9189Z" fill="white"/>
<path d="M249.351 44.9189H247.729V46.5405H249.351V44.9189Z" fill="white"/>
<path d="M252.593 44.9188H250.972V46.5404H252.593V44.9188Z" fill="white"/>
<path d="M254.216 44.9189H252.594V46.5405H254.216V44.9189Z" fill="white"/>
<path d="M255.838 44.9189H254.216V46.5405H255.838V44.9189Z" fill="white"/>
<path d="M257.46 44.9188H255.839V46.5404H257.46V44.9188Z" fill="white"/>
<path d="M265.567 44.9188H263.945V46.5404H265.567V44.9188Z" fill="white"/>
<path d="M267.189 44.9189H265.568V46.5405H267.189V44.9189Z" fill="white"/>
<path d="M268.811 44.9189H267.189V46.5406H268.811V44.9189Z" fill="white"/>
<path d="M270.432 44.9189H268.811V46.5406H270.432V44.9189Z" fill="white"/>
<path d="M278.54 44.9189H276.918V46.5406H278.54V44.9189Z" fill="white"/>
<path d="M285.027 44.9189H283.406V46.5405H285.027V44.9189Z" fill="white"/>
<path d="M288.271 44.9188H286.649V46.5404H288.271V44.9188Z" fill="white"/>
<path d="M296.377 44.9188H294.756V46.5404H296.377V44.9188Z" fill="white"/>
<path d="M298 44.9189H296.378V46.5405H298V44.9189Z" fill="white"/>
<path d="M239.622 46.5405H238V48.1621H239.622V46.5405Z" fill="white"/>
<path d="M241.243 46.5404H239.621V48.162H241.243V46.5404Z" fill="white"/>
<path d="M242.866 46.5403H241.244V48.1619H242.866V46.5403Z" fill="white"/>
<path d="M250.972 46.5403H249.351V48.1619H250.972V46.5403Z" fill="white"/>
<path d="M252.593 46.5403H250.972V48.1619H252.593V46.5403Z" fill="white"/>
<path d="M254.216 46.5404H252.594V48.162H254.216V46.5404Z" fill="white"/>
<path d="M260.703 46.5405H259.082V48.1621H260.703V46.5405Z" fill="white"/>
<path d="M262.324 46.5405H260.703V48.1621H262.324V46.5405Z" fill="white"/>
<path d="M265.567 46.5403H263.945V48.1619H265.567V46.5403Z" fill="white"/>
<path d="M270.432 46.5405H268.811V48.1621H270.432V46.5405Z" fill="white"/>
<path d="M272.054 46.5404H270.432V48.162H272.054V46.5404Z" fill="white"/>
<path d="M276.919 46.5405H275.297V48.1621H276.919V46.5405Z" fill="white"/>
<path d="M281.783 46.5403H280.161V48.1619H281.783V46.5403Z" fill="white"/>
<path d="M283.405 46.5404H281.783V48.162H283.405V46.5404Z" fill="white"/>
<path d="M285.027 46.5404H283.406V48.162H285.027V46.5404Z" fill="white"/>
<path d="M286.65 46.5403H285.028V48.1619H286.65V46.5403Z" fill="white"/>
<path d="M289.892 46.5404H288.27V48.162H289.892V46.5404Z" fill="white"/>
<path d="M291.514 46.5405H289.892V48.1621H291.514V46.5405Z" fill="white"/>
<path d="M293.135 46.5404H291.513V48.162H293.135V46.5404Z" fill="white"/>
<path d="M239.622 48.1622H238V49.7838H239.622V48.1622Z" fill="white"/>
<path d="M241.243 48.1621H239.621V49.7837H241.243V48.1621Z" fill="white"/>
<path d="M246.108 48.1621H244.486V49.7837H246.108V48.1621Z" fill="white"/>
<path d="M249.351 48.1621H247.729V49.7837H249.351V48.1621Z" fill="white"/>
<path d="M250.972 48.1624H249.351V49.784H250.972V48.1624Z" fill="white"/>
<path d="M252.593 48.1624H250.972V49.784H252.593V48.1624Z" fill="white"/>
<path d="M254.216 48.1621H252.594V49.7837H254.216V48.1621Z" fill="white"/>
<path d="M257.46 48.1624H255.839V49.784H257.46V48.1624Z" fill="white"/>
<path d="M260.703 48.1622H259.082V49.7838H260.703V48.1622Z" fill="white"/>
<path d="M265.567 48.1624H263.945V49.784H265.567V48.1624Z" fill="white"/>
<path d="M268.811 48.1622H267.189V49.7838H268.811V48.1622Z" fill="white"/>
<path d="M270.432 48.1622H268.811V49.7838H270.432V48.1622Z" fill="white"/>
<path d="M272.054 48.1621H270.432V49.7837H272.054V48.1621Z" fill="white"/>
<path d="M273.676 48.1624H272.055V49.784H273.676V48.1624Z" fill="white"/>
<path d="M275.297 48.1621H273.676V49.7837H275.297V48.1621Z" fill="white"/>
<path d="M281.783 48.1624H280.161V49.784H281.783V48.1624Z" fill="white"/>
<path d="M283.405 48.1621H281.783V49.7837H283.405V48.1621Z" fill="white"/>
<path d="M285.027 48.1621H283.406V49.7837H285.027V48.1621Z" fill="white"/>
<path d="M288.271 48.1624H286.649V49.784H288.271V48.1624Z" fill="white"/>
<path d="M296.377 48.1624H294.756V49.784H296.377V48.1624Z" fill="white"/>
<path d="M298 48.1621H296.378V49.7837H298V48.1621Z" fill="white"/>
<path d="M239.622 49.7839H238V51.4055H239.622V49.7839Z" fill="white"/>
<path d="M244.487 49.7837H242.865V51.4053H244.487V49.7837Z" fill="white"/>
<path d="M250.972 49.7837H249.351V51.4053H250.972V49.7837Z" fill="white"/>
<path d="M254.216 49.7838H252.594V51.4054H254.216V49.7838Z" fill="white"/>
<path d="M257.46 49.7837H255.839V51.4053H257.46V49.7837Z" fill="white"/>
<path d="M259.081 49.7838H257.46V51.4054H259.081V49.7838Z" fill="white"/>
<path d="M260.703 49.7839H259.082V51.4055H260.703V49.7839Z" fill="white"/>
<path d="M262.324 49.7839H260.703V51.4055H262.324V49.7839Z" fill="white"/>
<path d="M263.946 49.7838H262.324V51.4054H263.946V49.7838Z" fill="white"/>
<path d="M272.054 49.7838H270.432V51.4054H272.054V49.7838Z" fill="white"/>
<path d="M275.297 49.7838H273.676V51.4054H275.297V49.7838Z" fill="white"/>
<path d="M281.783 49.7837H280.161V51.4053H281.783V49.7837Z" fill="white"/>
<path d="M288.271 49.7837H286.649V51.4053H288.271V49.7837Z" fill="white"/>
<path d="M289.892 49.7838H288.27V51.4054H289.892V49.7838Z" fill="white"/>
<path d="M291.514 49.7839H289.892V51.4055H291.514V49.7839Z" fill="white"/>
<path d="M294.756 49.7837H293.135V51.4053H294.756V49.7837Z" fill="white"/>
<path d="M296.377 49.7837H294.756V51.4053H296.377V49.7837Z" fill="white"/>
<path d="M239.622 51.4054H238V53.027H239.622V51.4054Z" fill="white"/>
<path d="M246.108 51.4054H244.486V53.027H246.108V51.4054Z" fill="white"/>
<path d="M247.73 51.4054H246.108V53.027H247.73V51.4054Z" fill="white"/>
<path d="M249.351 51.4054H247.729V53.027H249.351V51.4054Z" fill="white"/>
<path d="M252.593 51.4055H250.972V53.0271H252.593V51.4055Z" fill="white"/>
<path d="M254.216 51.4054H252.594V53.027H254.216V51.4054Z" fill="white"/>
<path d="M255.838 51.4054H254.216V53.027H255.838V51.4054Z" fill="white"/>
<path d="M257.46 51.4055H255.839V53.0271H257.46V51.4055Z" fill="white"/>
<path d="M272.054 51.4054H270.432V53.027H272.054V51.4054Z" fill="white"/>
<path d="M275.297 51.4054H273.676V53.027H275.297V51.4054Z" fill="white"/>
<path d="M278.54 51.4054H276.918V53.027H278.54V51.4054Z" fill="white"/>
<path d="M280.161 51.4054H278.54V53.027H280.161V51.4054Z" fill="white"/>
<path d="M283.405 51.4054H281.783V53.027H283.405V51.4054Z" fill="white"/>
<path d="M285.027 51.4054H283.406V53.027H285.027V51.4054Z" fill="white"/>
<path d="M286.65 51.4055H285.028V53.0271H286.65V51.4055Z" fill="white"/>
<path d="M288.271 51.4055H286.649V53.0271H288.271V51.4055Z" fill="white"/>
<path d="M289.892 51.4054H288.27V53.027H289.892V51.4054Z" fill="white"/>
<path d="M291.514 51.4054H289.892V53.027H291.514V51.4054Z" fill="white"/>
<path d="M294.756 51.4055H293.135V53.0271H294.756V51.4055Z" fill="white"/>
<path d="M298 51.4054H296.378V53.027H298V51.4054Z" fill="white"/>
<path d="M252.593 53.027H250.972V54.6486H252.593V53.027Z" fill="white"/>
<path d="M257.46 53.027H255.839V54.6486H257.46V53.027Z" fill="white"/>
<path d="M260.703 53.027H259.082V54.6486H260.703V53.027Z" fill="white"/>
<path d="M262.324 53.027H260.703V54.6486H262.324V53.027Z" fill="white"/>
<path d="M263.946 53.0269H262.324V54.6485H263.946V53.0269Z" fill="white"/>
<path d="M265.567 53.027H263.945V54.6486H265.567V53.027Z" fill="white"/>
<path d="M270.432 53.027H268.811V54.6486H270.432V53.027Z" fill="white"/>
<path d="M272.054 53.0269H270.432V54.6485H272.054V53.0269Z" fill="white"/>
<path d="M285.027 53.0269H283.406V54.6485H285.027V53.0269Z" fill="white"/>
<path d="M291.514 53.027H289.892V54.6486H291.514V53.027Z" fill="white"/>
<path d="M294.756 53.027H293.135V54.6486H294.756V53.027Z" fill="white"/>
<path d="M252.593 54.6484H250.972V56.2701H252.593V54.6484Z" fill="white"/>
<path d="M254.216 54.6485H252.594V56.2701H254.216V54.6485Z" fill="white"/>
<path d="M257.46 54.6484H255.839V56.2701H257.46V54.6484Z" fill="white"/>
<path d="M262.324 54.6486H260.703V56.2702H262.324V54.6486Z" fill="white"/>
<path d="M263.946 54.6485H262.324V56.2701H263.946V54.6485Z" fill="white"/>
<path d="M265.567 54.6484H263.945V56.2701H265.567V54.6484Z" fill="white"/>
<path d="M270.432 54.6486H268.811V56.2702H270.432V54.6486Z" fill="white"/>
<path d="M276.919 54.6486H275.297V56.2702H276.919V54.6486Z" fill="white"/>
<path d="M281.783 54.6484H280.161V56.2701H281.783V54.6484Z" fill="white"/>
<path d="M285.027 54.6485H283.406V56.2701H285.027V54.6485Z" fill="white"/>
<path d="M288.271 54.6484H286.649V56.2701H288.271V54.6484Z" fill="white"/>
<path d="M291.514 54.6486H289.892V56.2702H291.514V54.6486Z" fill="white"/>
<path d="M296.377 54.6484H294.756V56.2701H296.377V54.6484Z" fill="white"/>
<path d="M298 54.6485H296.378V56.2701H298V54.6485Z" fill="white"/>
<path d="M252.593 56.2704H250.972V57.892H252.593V56.2704Z" fill="white"/>
<path d="M257.46 56.2704H255.839V57.892H257.46V56.2704Z" fill="white"/>
<path d="M265.567 56.2704H263.945V57.892H265.567V56.2704Z" fill="white"/>
<path d="M267.189 56.2703H265.568V57.8919H267.189V56.2703Z" fill="white"/>
<path d="M268.811 56.2704H267.189V57.892H268.811V56.2704Z" fill="white"/>
<path d="M275.297 56.2703H273.676V57.8919H275.297V56.2703Z" fill="white"/>
<path d="M276.919 56.2704H275.297V57.892H276.919V56.2704Z" fill="white"/>
<path d="M280.161 56.2703H278.54V57.8919H280.161V56.2703Z" fill="white"/>
<path d="M285.027 56.2703H283.406V57.8919H285.027V56.2703Z" fill="white"/>
<path d="M291.514 56.2704H289.892V57.892H291.514V56.2704Z" fill="white"/>
<path d="M298 56.2703H296.378V57.8919H298V56.2703Z" fill="white"/>
<path d="M252.593 57.8918H250.972V59.5135H252.593V57.8918Z" fill="white"/>
<path d="M257.46 57.8918H255.839V59.5135H257.46V57.8918Z" fill="white"/>
<path d="M262.324 57.892H260.703V59.5136H262.324V57.892Z" fill="white"/>
<path d="M263.946 57.8919H262.324V59.5135H263.946V57.8919Z" fill="white"/>
<path d="M273.676 57.8918H272.055V59.5135H273.676V57.8918Z" fill="white"/>
<path d="M275.297 57.8919H273.676V59.5135H275.297V57.8919Z" fill="white"/>
<path d="M276.919 57.892H275.297V59.5136H276.919V57.892Z" fill="white"/>
<path d="M281.783 57.8918H280.161V59.5135H281.783V57.8918Z" fill="white"/>
<path d="M283.405 57.8919H281.783V59.5135H283.405V57.8919Z" fill="white"/>
<path d="M285.027 57.8919H283.406V59.5135H285.027V57.8919Z" fill="white"/>
<path d="M286.65 57.8918H285.028V59.5135H286.65V57.8918Z" fill="white"/>
<path d="M288.271 57.8918H286.649V59.5135H288.271V57.8918Z" fill="white"/>
<path d="M289.892 57.8919H288.27V59.5135H289.892V57.8919Z" fill="white"/>
<path d="M291.514 57.892H289.892V59.5136H291.514V57.892Z" fill="white"/>
<path d="M296.377 57.8918H294.756V59.5135H296.377V57.8918Z" fill="white"/>
<path d="M298 57.8919H296.378V59.5135H298V57.8919Z" fill="white"/>
<path d="M252.593 59.5137H250.972V61.1353H252.593V59.5137Z" fill="white"/>
<path d="M257.46 59.5137H255.839V61.1353H257.46V59.5137Z" fill="white"/>
<path d="M262.324 59.5135H260.703V61.1351H262.324V59.5135Z" fill="white"/>
<path d="M265.567 59.5137H263.945V61.1353H265.567V59.5137Z" fill="white"/>
<path d="M268.811 59.5135H267.189V61.1351H268.811V59.5135Z" fill="white"/>
<path d="M275.297 59.5135H273.676V61.1351H275.297V59.5135Z" fill="white"/>
<path d="M276.919 59.5135H275.297V61.1351H276.919V59.5135Z" fill="white"/>
<path d="M278.54 59.5135H276.918V61.1351H278.54V59.5135Z" fill="white"/>
<path d="M281.783 59.5137H280.161V61.1353H281.783V59.5137Z" fill="white"/>
<path d="M283.405 59.5135H281.783V61.1351H283.405V59.5135Z" fill="white"/>
<path d="M286.65 59.5137H285.028V61.1353H286.65V59.5137Z" fill="white"/>
<path d="M288.271 59.5137H286.649V61.1353H288.271V59.5137Z" fill="white"/>
<path d="M298 59.5135H296.378V61.1351H298V59.5135Z" fill="white"/>
<path d="M254.216 61.135H252.594V62.7566H254.216V61.135Z" fill="white"/>
<path d="M262.324 61.135H260.703V62.7566H262.324V61.135Z" fill="white"/>
<path d="M263.946 61.135H262.324V62.7566H263.946V61.135Z" fill="white"/>
<path d="M265.567 61.1351H263.945V62.7568H265.567V61.1351Z" fill="white"/>
<path d="M268.811 61.135H267.189V62.7566H268.811V61.135Z" fill="white"/>
<path d="M270.432 61.135H268.811V62.7566H270.432V61.135Z" fill="white"/>
<path d="M272.054 61.135H270.432V62.7566H272.054V61.135Z" fill="white"/>
<path d="M273.676 61.1351H272.055V62.7568H273.676V61.1351Z" fill="white"/>
<path d="M276.919 61.135H275.297V62.7566H276.919V61.135Z" fill="white"/>
<path d="M280.161 61.135H278.54V62.7566H280.161V61.135Z" fill="white"/>
<path d="M281.783 61.1351H280.161V62.7568H281.783V61.1351Z" fill="white"/>
<path d="M283.405 61.135H281.783V62.7566H283.405V61.135Z" fill="white"/>
<path d="M291.514 61.135H289.892V62.7566H291.514V61.135Z" fill="white"/>
<path d="M293.135 61.135H291.513V62.7566H293.135V61.135Z" fill="white"/>
<path d="M298 61.135H296.378V62.7566H298V61.135Z" fill="white"/>
<path d="M255.838 62.7569H254.216V64.3785H255.838V62.7569Z" fill="white"/>
<path d="M257.46 62.7571H255.839V64.3787H257.46V62.7571Z" fill="white"/>
<path d="M259.081 62.7569H257.46V64.3785H259.081V62.7569Z" fill="white"/>
<path d="M260.703 62.7569H259.082V64.3785H260.703V62.7569Z" fill="white"/>
<path d="M265.567 62.7571H263.945V64.3787H265.567V62.7571Z" fill="white"/>
<path d="M267.189 62.7569H265.568V64.3785H267.189V62.7569Z" fill="white"/>
<path d="M268.811 62.7569H267.189V64.3785H268.811V62.7569Z" fill="white"/>
<path d="M270.432 62.7569H268.811V64.3785H270.432V62.7569Z" fill="white"/>
<path d="M272.054 62.7569H270.432V64.3785H272.054V62.7569Z" fill="white"/>
<path d="M275.297 62.7569H273.676V64.3785H275.297V62.7569Z" fill="white"/>
<path d="M276.919 62.7569H275.297V64.3785H276.919V62.7569Z" fill="white"/>
<path d="M281.783 62.7571H280.161V64.3787H281.783V62.7571Z" fill="white"/>
<path d="M283.405 62.7569H281.783V64.3785H283.405V62.7569Z" fill="white"/>
<path d="M288.271 62.7571H286.649V64.3787H288.271V62.7571Z" fill="white"/>
<path d="M291.514 62.7569H289.892V64.3785H291.514V62.7569Z" fill="white"/>
<path d="M294.756 62.7571H293.135V64.3787H294.756V62.7571Z" fill="white"/>
<path d="M296.377 62.7571H294.756V64.3787H296.377V62.7571Z" fill="white"/>
<path d="M298 62.7569H296.378V64.3785H298V62.7569Z" fill="white"/>
<path d="M252.593 64.3785H250.972V66.0002H252.593V64.3785Z" fill="white"/>
<path d="M254.216 64.3784H252.594V66H254.216V64.3784Z" fill="white"/>
<path d="M257.46 64.3785H255.839V66.0002H257.46V64.3785Z" fill="white"/>
<path d="M259.081 64.3784H257.46V66H259.081V64.3784Z" fill="white"/>
<path d="M262.324 64.3784H260.703V66H262.324V64.3784Z" fill="white"/>
<path d="M263.946 64.3784H262.324V66H263.946V64.3784Z" fill="white"/>
<path d="M265.567 64.3785H263.945V66.0002H265.567V64.3785Z" fill="white"/>
<path d="M272.054 64.3784H270.432V66H272.054V64.3784Z" fill="white"/>
<path d="M275.297 64.3784H273.676V66H275.297V64.3784Z" fill="white"/>
<path d="M276.919 64.3784H275.297V66H276.919V64.3784Z" fill="white"/>
<path d="M278.54 64.3784H276.918V66H278.54V64.3784Z" fill="white"/>
<path d="M285.027 64.3784H283.406V66H285.027V64.3784Z" fill="white"/>
<path d="M288.271 64.3785H286.649V66.0002H288.271V64.3785Z" fill="white"/>
<path d="M289.892 64.3784H288.27V66H289.892V64.3784Z" fill="white"/>
<path d="M298 64.3784H296.378V66H298V64.3784Z" fill="white"/>
<path d="M245.476 6.00061H241.875C240.121 6.00061 238.634 7.15992 238.159 8.74446C238.11 8.90837 238.071 9.07683 238.045 9.24903C238.015 9.43905 238 9.63361 238 9.83169V13.5176C238 15.6311 239.739 17.3498 241.875 17.3498L243.676 17.3501L245.476 17.3497C247.612 17.3497 249.351 15.631 249.351 13.5175V9.83169C249.351 7.7192 247.612 6.00061 245.476 6.00061ZM247.649 13.5176C247.649 14.6918 246.674 15.6471 245.475 15.6471L243.676 15.6474L241.876 15.647C240.677 15.647 239.703 14.6917 239.703 13.5176V9.83169C239.703 9.46493 239.798 9.11962 239.965 8.8179C240.126 8.52765 240.354 8.27803 240.629 8.08903C240.982 7.846 241.412 7.70331 241.875 7.70331H245.476C246.674 7.70331 247.649 8.65808 247.649 9.83169V13.5176Z" fill="white"/>
<path d="M294.125 6.00098H290.525C288.77 6.00098 287.284 7.16029 286.808 8.74483C286.759 8.90874 286.721 9.07719 286.694 9.24939C286.665 9.43941 286.649 9.63398 286.649 9.83206V13.518C286.649 15.6315 288.388 17.3502 290.525 17.3502L292.325 17.3505L294.125 17.3501C296.262 17.3501 298.001 15.6313 298.001 13.5178V9.83206C298.001 7.71957 296.262 6.00098 294.125 6.00098ZM296.298 13.518C296.298 14.6921 295.323 15.6475 294.125 15.6475L292.325 15.6478L290.525 15.6474C289.327 15.6474 288.352 14.692 288.352 13.518V9.83206C288.352 9.4653 288.447 9.11999 288.615 8.81827C288.776 8.52801 289.004 8.2784 289.279 8.0894C289.632 7.84637 290.061 7.70368 290.525 7.70368H294.125C295.323 7.70368 296.298 8.65844 296.298 9.83206V13.518Z" fill="white"/>
<path d="M245.476 54.6494H241.875C240.121 54.6494 238.634 55.8087 238.159 57.3933C238.11 57.5572 238.071 57.7256 238.045 57.8978C238.015 58.0879 238 58.2824 238 58.4805V62.1664C238 64.2799 239.739 65.9986 241.875 65.9986L243.676 65.9989L245.476 65.9985C247.612 65.9985 249.351 64.2798 249.351 62.1663V58.4805C249.351 56.368 247.612 54.6494 245.476 54.6494ZM247.649 62.1664C247.649 63.3406 246.674 64.2959 245.475 64.2959L243.676 64.2962L241.876 64.2958C240.677 64.2958 239.703 63.3405 239.703 62.1664V58.4805C239.703 58.1137 239.798 57.7684 239.965 57.4667C240.126 57.1765 240.354 56.9268 240.629 56.7378C240.982 56.4948 241.412 56.3521 241.875 56.3521H245.476C246.674 56.3521 247.649 57.3069 247.649 58.4805V62.1664Z" fill="white"/>
<path d="M242.573 14.108C241.839 14.108 241.242 13.5226 241.242 12.8038V10.5466C241.242 10.322 241.301 10.1107 241.403 9.92579C241.501 9.74783 241.641 9.59488 241.809 9.47949C242.026 9.33072 242.289 9.2431 242.573 9.2431H244.778C245.511 9.2431 246.108 9.82776 246.108 10.5465V12.8037C246.108 13.5225 245.511 14.1079 244.778 14.1079H243.675L242.573 14.108Z" fill="white"/>
<path d="M291.223 14.1079C290.489 14.1079 289.891 13.5226 289.891 12.8037V10.5465C289.891 10.322 289.95 10.1106 290.052 9.92573C290.151 9.74777 290.29 9.59482 290.459 9.47943C290.675 9.33066 290.938 9.24304 291.222 9.24304H293.427C294.16 9.24304 294.758 9.8277 294.758 10.5465V12.8037C294.758 13.5225 294.16 14.1079 293.427 14.1079H292.324L291.223 14.1079Z" fill="white"/>
<path d="M242.573 62.7568C241.839 62.7568 241.242 62.1715 241.242 61.4527V59.1955C241.242 58.9709 241.301 58.7596 241.403 58.5747C241.501 58.3967 241.641 58.2437 241.809 58.1284C242.026 57.9796 242.289 57.892 242.573 57.892H244.778C245.511 57.892 246.108 58.4766 246.108 59.1954V61.4526C246.108 62.1714 245.511 62.7568 244.778 62.7568H243.675L242.573 62.7568Z" fill="white"/>
</svg>
