<svg width="166" height="48" viewBox="0 0 166 48" fill="none" xmlns="http://www.w3.org/2000/svg">
<path d="M159.78 48H6.14539C2.76696 48 0 45.2985 0 42V6C0 2.7015 2.76696 -2.1874e-06 6.14539 -2.1874e-06H159.78C163.159 -2.1874e-06 165.925 2.7015 165.925 6V42C165.925 45.2985 163.159 48 159.78 48Z" fill="black"/>
<path d="M159.78 0.961498C162.625 0.961498 164.941 3.222 164.941 6V42C164.941 44.778 162.625 47.0385 159.78 47.0385H6.14539C3.30007 47.0385 0.984798 44.778 0.984798 42V6C0.984798 3.222 3.30007 0.961498 6.14539 0.961498H159.78ZM159.78 -2.1874e-06H6.14539C2.76696 -2.1874e-06 0 2.7015 0 6V42C0 45.2985 2.76696 48 6.14539 48H159.78C163.159 48 165.925 45.2985 165.925 42V6C165.925 2.7015 163.159 -2.1874e-06 159.78 -2.1874e-06Z" fill="#A6A6A6"/>
<path d="M83.7431 26.103C80.8563 26.103 78.498 28.248 78.498 31.2075C78.498 34.143 80.8563 36.3105 83.7431 36.3105C86.6361 36.3105 88.9944 34.143 88.9944 31.2075C88.9944 28.248 86.6361 26.103 83.7431 26.103ZM83.7431 34.3005C82.1592 34.3005 80.7964 33.024 80.7964 31.2075C80.7964 29.367 82.1592 28.113 83.7431 28.113C85.3271 28.113 86.696 29.367 86.696 31.2075C86.696 33.024 85.3271 34.3005 83.7431 34.3005ZM72.2989 26.103C69.4059 26.103 67.0538 28.248 67.0538 31.2075C67.0538 34.143 69.4059 36.3105 72.2989 36.3105C75.1903 36.3105 77.544 34.143 77.544 31.2075C77.544 28.248 75.1903 26.103 72.2989 26.103ZM72.2989 34.3005C70.7134 34.3005 69.346 33.024 69.346 31.2075C69.346 29.367 70.7134 28.113 72.2989 28.113C73.8829 28.113 75.2456 29.367 75.2456 31.2075C75.2456 33.024 73.8829 34.3005 72.2989 34.3005ZM58.6807 27.6675V29.8365H63.9857C63.8305 31.0485 63.4157 31.9395 62.7797 32.5605C62.0054 33.3105 60.7993 34.143 58.6807 34.143C55.416 34.143 52.8595 31.5705 52.8595 28.383C52.8595 25.1955 55.416 22.623 58.6807 22.623C60.446 22.623 61.7304 23.2965 62.6783 24.1695L64.2438 22.641C62.918 21.405 61.1542 20.4555 58.6807 20.4555C54.2038 20.4555 50.4413 24.012 50.4413 28.383C50.4413 32.754 54.2038 36.3105 58.6807 36.3105C61.1005 36.3105 62.918 35.5365 64.3468 34.0845C65.8109 32.655 66.2672 30.645 66.2672 29.022C66.2672 28.518 66.2242 28.0545 66.1474 27.6675H58.6807ZM114.367 29.349C113.935 28.2075 112.603 26.103 109.89 26.103C107.202 26.103 104.963 28.1715 104.963 31.2075C104.963 34.0665 107.179 36.3105 110.148 36.3105C112.55 36.3105 113.935 34.881 114.505 34.0485L112.723 32.889C112.129 33.738 111.319 34.3005 110.148 34.3005C108.985 34.3005 108.151 33.78 107.616 32.754L114.608 29.9295L114.367 29.349ZM107.238 31.0485C107.179 29.0805 108.804 28.0725 109.969 28.0725C110.881 28.0725 111.655 28.518 111.914 29.1555L107.238 31.0485ZM101.556 36H103.854V21H101.556V36ZM97.7915 27.24H97.7147C97.1984 26.643 96.2137 26.103 94.9661 26.103C92.3482 26.103 89.9546 28.347 89.9546 31.224C89.9546 34.0845 92.3482 36.3105 94.9661 36.3105C96.2137 36.3105 97.1984 35.766 97.7147 35.151H97.7915V35.883C97.7915 37.8345 96.7237 38.883 95.0015 38.883C93.5973 38.883 92.7261 37.893 92.3666 37.0605L90.3679 37.875C90.944 39.228 92.4696 40.893 95.0015 40.893C97.6962 40.893 99.97 39.345 99.97 35.5785V26.4135H97.7915V27.24ZM95.1628 34.3005C93.5788 34.3005 92.2529 33.006 92.2529 31.224C92.2529 29.4255 93.5788 28.113 95.1628 28.113C96.7237 28.113 97.9543 29.4255 97.9543 31.224C97.9543 33.006 96.7237 34.3005 95.1628 34.3005ZM125.128 21H119.631V36H121.923V30.3165H125.128C127.673 30.3165 130.17 28.518 130.17 25.6575C130.17 22.7985 127.667 21 125.128 21ZM125.188 28.23H121.923V23.0865H125.188C126.899 23.0865 127.876 24.474 127.876 25.6575C127.876 26.8185 126.899 28.23 125.188 28.23ZM139.357 26.0745C137.701 26.0745 135.979 26.7885 135.271 28.371L137.305 29.2035C137.743 28.371 138.548 28.101 139.399 28.101C140.588 28.101 141.794 28.7985 141.812 30.03V30.1875C141.398 29.9535 140.51 29.607 139.417 29.607C137.226 29.607 134.994 30.7845 134.994 32.982C134.994 34.992 136.789 36.2865 138.806 36.2865C140.348 36.2865 141.199 35.607 141.734 34.8165H141.812V35.976H144.026V30.222C144.026 27.5625 141.992 26.0745 139.357 26.0745ZM139.081 34.2945C138.331 34.2945 137.286 33.9315 137.286 33.024C137.286 31.863 138.589 31.4175 139.717 31.4175C140.726 31.4175 141.199 31.635 141.812 31.9215C141.633 33.3105 140.408 34.2945 139.081 34.2945ZM152.092 26.403L149.457 32.9055H149.379L146.655 26.403H144.183L148.276 35.49L145.941 40.5465H148.336L154.642 26.403H152.092ZM131.43 36H133.728V21H131.43V36Z" fill="white"/>
<path d="M12.8255 9.04648C12.4644 9.41548 12.2555 9.98998 12.2555 10.734V37.272C12.2555 38.016 12.4644 38.5905 12.8255 38.9595L12.9146 39.0405L28.1459 24.1755V23.8245L12.9146 8.95948L12.8255 9.04648Z" fill="url(#paint0_linear_1178_21445)"/>
<path d="M33.2174 29.133L28.1459 24.1755V23.8245L33.2235 18.867L33.3372 18.9315L39.3504 22.272C41.0665 23.22 41.0665 24.78 39.3504 25.734L33.3372 29.0685L33.2174 29.133Z" fill="url(#paint1_linear_1178_21445)"/>
<path d="M33.3372 29.0685L28.1459 24L12.8254 38.9595C13.3954 39.5445 14.3249 39.615 15.3819 39.03L33.3372 29.0685Z" fill="url(#paint2_linear_1178_21445)"/>
<path d="M33.3372 18.9315L15.3819 8.97C14.3249 8.391 13.3954 8.4615 12.8254 9.0465L28.1459 24L33.3372 18.9315Z" fill="url(#paint3_linear_1178_21445)"/>
<path d="M58.0556 11.6714C58.0556 12.2566 57.9815 12.7889 57.8335 13.2684C57.6854 13.7408 57.4633 14.1497 57.1672 14.4952C56.8781 14.8407 56.515 15.1051 56.0778 15.2884C55.6477 15.4718 55.1471 15.5634 54.576 15.5634C53.9837 15.5634 53.469 15.4718 53.0318 15.2884C52.5947 15.0981 52.2316 14.8337 51.9425 14.4952C51.6534 14.1497 51.4384 13.7373 51.2973 13.2578C51.1563 12.7783 51.0858 12.246 51.0858 11.6608C51.0858 10.8852 51.2127 10.2083 51.4666 9.63014C51.7204 9.05197 52.1047 8.60072 52.6194 8.27638C53.1411 7.95204 53.7969 7.78987 54.5866 7.78987C55.341 7.78987 55.9756 7.95204 56.4903 8.27638C57.005 8.59367 57.3928 9.04492 57.6537 9.63014C57.9216 10.2083 58.0556 10.8887 58.0556 11.6714ZM52.0906 11.6714C52.0906 12.3059 52.1787 12.8524 52.355 13.3107C52.5312 13.769 52.8027 14.1215 53.1693 14.3683C53.543 14.6151 54.0119 14.7385 54.576 14.7385C55.1471 14.7385 55.6125 14.6151 55.9721 14.3683C56.3387 14.1215 56.6102 13.769 56.7864 13.3107C56.9627 12.8524 57.0508 12.3059 57.0508 11.6714C57.0508 10.7195 56.8534 9.97563 56.4586 9.43977C56.0637 8.89685 55.4397 8.6254 54.5866 8.6254C54.0154 8.6254 53.543 8.74879 53.1693 8.99557C52.8027 9.2353 52.5312 9.58431 52.355 10.0426C52.1787 10.4939 52.0906 11.0368 52.0906 11.6714Z" fill="white"/>
<path d="M61.7993 15.4577H60.8475V8.74174H58.489V7.90621H64.1473V8.74174H61.7993V15.4577Z" fill="white"/>
<path d="M67.2849 7.90621C68.272 7.90621 68.9912 8.10011 69.4424 8.4879C69.8937 8.8757 70.1193 9.42214 70.1193 10.1272C70.1193 10.4375 70.0664 10.7371 69.9607 11.0262C69.8619 11.3082 69.6963 11.5621 69.4636 11.7877C69.2309 12.0133 68.9207 12.1931 68.5329 12.3271C68.1451 12.454 67.6691 12.5175 67.1051 12.5175H66.2378V15.4577H65.2859V7.90621H67.2849ZM67.2003 8.72058H66.2378V11.7031H66.9993C67.4788 11.7031 67.8771 11.6537 68.1944 11.555C68.5117 11.4493 68.7479 11.2836 68.903 11.0579C69.0582 10.8323 69.1357 10.5362 69.1357 10.1695C69.1357 9.68302 68.9806 9.31991 68.6704 9.08018C68.3601 8.84045 67.8701 8.72058 67.2003 8.72058Z" fill="white"/>
<path d="M71.7001 7.90621H72.5885V12.0521C72.5885 12.2284 72.585 12.4223 72.578 12.6338C72.578 12.8383 72.5744 13.0428 72.5674 13.2472C72.5603 13.4517 72.5498 13.635 72.5357 13.7972C72.5286 13.9523 72.5215 14.0722 72.5145 14.1568H72.5568L76.7133 7.90621H77.7709V15.4577H76.8825V11.3541C76.8825 11.1637 76.886 10.9592 76.8931 10.7407C76.9001 10.515 76.9072 10.3 76.9142 10.0955C76.9283 9.88397 76.9389 9.69713 76.946 9.53496C76.953 9.37279 76.9601 9.25292 76.9671 9.17536H76.9248L72.7578 15.4577H71.7001V7.90621Z" fill="white"/>
<path d="M83.1392 15.4577L80.6538 8.83692H80.6115C80.6256 8.97794 80.6361 9.15774 80.6432 9.37631C80.6573 9.59489 80.6679 9.83462 80.6749 10.0955C80.682 10.3493 80.6855 10.6102 80.6855 10.8781V15.4577H79.8077V7.90621H81.2143L83.5411 14.0933H83.5834L85.9525 7.90621H87.3485V15.4577H86.4073V10.8147C86.4073 10.5679 86.4108 10.3247 86.4178 10.0849C86.4249 9.83814 86.4355 9.60899 86.4496 9.39746C86.4637 9.17889 86.4742 8.99557 86.4813 8.8475H86.439L83.9218 15.4577H83.1392Z" fill="white"/>
<path d="M94.1409 15.4577L93.2313 13.1203H90.2383L89.3393 15.4577H88.3768L91.3276 7.87448H92.1843L95.1245 15.4577H94.1409ZM92.0997 9.98974C92.0785 9.93333 92.0433 9.83109 91.9939 9.68302C91.9446 9.53496 91.8952 9.38336 91.8459 9.22824C91.8036 9.06607 91.7683 8.94268 91.7401 8.85807C91.7048 8.99909 91.6661 9.14363 91.6238 9.2917C91.5885 9.43272 91.5497 9.56316 91.5074 9.68302C91.4722 9.80289 91.4404 9.90513 91.4122 9.98974L90.5556 12.2742H92.9458L92.0997 9.98974Z" fill="white"/>
<path d="M97.8041 15.4577H96.8522V8.74174H94.4937V7.90621H100.152V8.74174H97.8041V15.4577Z" fill="white"/>
<path d="M101.301 7.90621H102.19V12.0521C102.19 12.2284 102.186 12.4223 102.179 12.6338C102.179 12.8383 102.176 13.0428 102.169 13.2472C102.161 13.4517 102.151 13.635 102.137 13.7972C102.13 13.9523 102.123 14.0722 102.116 14.1568H102.158L106.314 7.90621H107.372V15.4577H106.484V11.3541C106.484 11.1637 106.487 10.9592 106.494 10.7407C106.501 10.515 106.508 10.3 106.515 10.0955C106.529 9.88397 106.54 9.69713 106.547 9.53496C106.554 9.37279 106.561 9.25292 106.568 9.17536H106.526L102.359 15.4577H101.301V7.90621Z" fill="white"/>
<path d="M113.89 7.90621C114.518 7.90621 115.043 7.96614 115.466 8.08601C115.896 8.20587 116.217 8.4033 116.429 8.67828C116.647 8.95326 116.756 9.31991 116.756 9.77821C116.756 10.0743 116.7 10.3388 116.587 10.5714C116.481 10.7971 116.319 10.9874 116.101 11.1425C115.889 11.2906 115.628 11.3929 115.318 11.4493V11.5021C115.635 11.5515 115.921 11.6432 116.175 11.7771C116.436 11.9111 116.64 12.1015 116.788 12.3482C116.936 12.595 117.01 12.9158 117.01 13.3107C117.01 13.769 116.905 14.1603 116.693 14.4847C116.481 14.8019 116.178 15.0452 115.783 15.2144C115.396 15.3766 114.93 15.4577 114.387 15.4577H111.733V7.90621H113.89ZM114.081 11.1214C114.729 11.1214 115.174 11.0192 115.413 10.8147C115.653 10.6032 115.773 10.2929 115.773 9.88397C115.773 9.46797 115.625 9.17184 115.329 8.99557C115.04 8.81224 114.574 8.72058 113.933 8.72058H112.685V11.1214H114.081ZM112.685 11.9146V14.6539H114.208C114.877 14.6539 115.343 14.5234 115.604 14.2625C115.865 14.0017 115.995 13.6597 115.995 13.2367C115.995 12.9687 115.935 12.736 115.815 12.5386C115.702 12.3412 115.508 12.1896 115.233 12.0838C114.966 11.971 114.599 11.9146 114.134 11.9146H112.685Z" fill="white"/>
<defs>
<linearGradient id="paint0_linear_1178_21445" x1="26.7936" y1="37.5483" x2="6.66046" y2="16.9274" gradientUnits="userSpaceOnUse">
<stop stop-color="#00A0FF"/>
<stop offset="0.0066" stop-color="#00A1FF"/>
<stop offset="0.2601" stop-color="#00BEFF"/>
<stop offset="0.5122" stop-color="#00D2FF"/>
<stop offset="0.7604" stop-color="#00DFFF"/>
<stop offset="1" stop-color="#00E3FF"/>
</linearGradient>
<linearGradient id="paint1_linear_1178_21445" x1="41.5851" y1="23.9983" x2="11.8452" y2="23.9983" gradientUnits="userSpaceOnUse">
<stop stop-color="#FFE000"/>
<stop offset="0.4087" stop-color="#FFBD00"/>
<stop offset="0.7754" stop-color="#FFA500"/>
<stop offset="1" stop-color="#FF9C00"/>
</linearGradient>
<linearGradient id="paint2_linear_1178_21445" x1="30.5143" y1="21.2447" x2="3.21219" y2="-6.71902" gradientUnits="userSpaceOnUse">
<stop stop-color="#FF3A44"/>
<stop offset="1" stop-color="#C31162"/>
</linearGradient>
<linearGradient id="paint3_linear_1178_21445" x1="8.96896" y1="47.7886" x2="21.1606" y2="35.3016" gradientUnits="userSpaceOnUse">
<stop stop-color="#32A071"/>
<stop offset="0.0685" stop-color="#2DA771"/>
<stop offset="0.4762" stop-color="#15CF74"/>
<stop offset="0.8009" stop-color="#06E775"/>
<stop offset="1" stop-color="#00F076"/>
</linearGradient>
</defs>
</svg>
