<svg width="312" height="72" viewBox="0 0 312 72" fill="none" xmlns="http://www.w3.org/2000/svg">
<path d="M301.67 72H9.21808C4.15044 72 0 67.9478 0 63V9.00001C0 4.05226 4.15044 3.80515e-06 9.21808 3.80515e-06H301.67C306.738 3.80515e-06 310.888 4.05226 310.888 9.00001V63C310.888 67.9478 306.738 72 301.67 72Z" fill="black"/>
<path d="M302.67 1.44225C306.938 1.44225 310.411 4.83301 310.411 9.00001V63C310.411 67.167 306.938 70.5578 302.67 70.5578H9.21808C4.95011 70.5578 1.4772 67.167 1.4772 63V9.00001C1.4772 4.83301 4.95011 1.44225 9.21808 1.44225H302.67ZM302.67 3.80515e-06H9.21808C4.15044 3.80515e-06 0 4.05226 0 9.00001V63C0 67.9478 4.15044 72 9.21808 72H302.67C307.738 72 311.888 67.9478 311.888 63V9.00001C311.888 4.05226 307.738 3.80515e-06 302.67 3.80515e-06Z" fill="#A6A6A6"/>
<path d="M125.615 39.1545C121.285 39.1545 117.747 42.372 117.747 46.8113C117.747 51.2145 121.285 54.4658 125.615 54.4658C129.954 54.4658 133.492 51.2145 133.492 46.8113C133.492 42.372 129.954 39.1545 125.615 39.1545ZM125.615 51.4508C123.239 51.4508 121.195 49.536 121.195 46.8113C121.195 44.0505 123.239 42.1695 125.615 42.1695C127.991 42.1695 130.044 44.0505 130.044 46.8113C130.044 49.536 127.991 51.4508 125.615 51.4508ZM108.449 39.1545C104.109 39.1545 100.581 42.372 100.581 46.8113C100.581 51.2145 104.109 54.4658 108.449 54.4658C112.786 54.4658 116.316 51.2145 116.316 46.8113C116.316 42.372 112.786 39.1545 108.449 39.1545ZM108.449 51.4508C106.07 51.4508 104.019 49.536 104.019 46.8113C104.019 44.0505 106.07 42.1695 108.449 42.1695C110.824 42.1695 112.869 44.0505 112.869 46.8113C112.869 49.536 110.824 51.4508 108.449 51.4508ZM88.0212 41.5013V44.7548H95.9787C95.746 46.5728 95.1238 47.9093 94.1697 48.8408C93.0082 49.9658 91.1992 51.2145 88.0212 51.2145C83.1241 51.2145 79.2894 47.3558 79.2894 42.5745C79.2894 37.7933 83.1241 33.9346 88.0212 33.9346C90.6691 33.9346 92.5957 34.9448 94.0176 36.2543L96.3659 33.9615C94.3771 32.1075 91.7315 30.6833 88.0212 30.6833C81.3059 30.6833 75.6621 36.0181 75.6621 42.5745C75.6621 49.131 81.3059 54.4658 88.0212 54.4658C91.6509 54.4658 94.3771 53.3048 96.5203 51.1268C98.7165 48.9825 99.401 45.9675 99.401 43.533C99.401 42.777 99.3364 42.0818 99.2212 41.5013H88.0212ZM171.551 44.0235C170.903 42.3113 168.905 39.1545 164.835 39.1545C160.803 39.1545 157.445 42.2573 157.445 46.8113C157.445 51.0998 160.768 54.4658 165.223 54.4658C168.825 54.4658 170.903 52.3215 171.758 51.0728L169.085 49.3335C168.193 50.607 166.979 51.4508 165.223 51.4508C163.478 51.4508 162.227 50.67 161.425 49.131L171.913 44.8943L171.551 44.0235ZM160.858 46.5728C160.768 43.6208 163.206 42.1088 164.953 42.1088C166.322 42.1088 167.483 42.777 167.871 43.7333L160.858 46.5728ZM152.333 54H155.781V31.5001H152.333V54ZM146.687 40.86H146.572C145.798 39.9645 144.321 39.1545 142.449 39.1545C138.522 39.1545 134.932 42.5205 134.932 46.836C134.932 51.1268 138.522 54.4658 142.449 54.4658C144.321 54.4658 145.798 53.649 146.572 52.7265H146.687V53.8245C146.687 56.7518 145.086 58.3245 142.502 58.3245C140.396 58.3245 139.089 56.8395 138.55 55.5908L135.552 56.8125C136.416 58.842 138.705 61.3395 142.502 61.3395C146.545 61.3395 149.955 59.0175 149.955 53.3678V39.6203H146.687V40.86ZM142.744 51.4508C140.368 51.4508 138.38 49.509 138.38 46.836C138.38 44.1383 140.368 42.1695 142.744 42.1695C145.086 42.1695 146.932 44.1383 146.932 46.836C146.932 49.509 145.086 51.4508 142.744 51.4508ZM187.692 31.5001H179.446V54H182.884V45.4748H187.692C191.51 45.4748 195.255 42.777 195.255 38.4863C195.255 34.1978 191.501 31.5001 187.692 31.5001ZM187.782 42.345H182.884V34.6298H187.782C190.349 34.6298 191.815 36.711 191.815 38.4863C191.815 40.2278 190.349 42.345 187.782 42.345ZM209.036 39.1118C206.552 39.1118 203.969 40.1828 202.906 42.5565L205.957 43.8053C206.614 42.5565 207.822 42.1515 209.098 42.1515C210.882 42.1515 212.691 43.1978 212.719 45.045V45.2813C212.097 44.9303 210.765 44.4105 209.126 44.4105C205.84 44.4105 202.491 46.1768 202.491 49.473C202.491 52.488 205.183 54.4298 208.209 54.4298C210.523 54.4298 211.799 53.4105 212.601 52.2248H212.719V53.964H216.04V45.333C216.04 41.3438 212.988 39.1118 209.036 39.1118ZM208.621 51.4418C207.497 51.4418 205.93 50.8973 205.93 49.536C205.93 47.7945 207.884 47.1263 209.575 47.1263C211.09 47.1263 211.799 47.4525 212.719 47.8823C212.449 49.9658 210.612 51.4418 208.621 51.4418ZM228.138 39.6045L224.186 49.3583H224.069L219.983 39.6045H216.275L222.414 53.235L218.911 60.8198H222.504L231.964 39.6045H228.138ZM197.145 54H200.592V31.5001H197.145V54Z" fill="white"/>
<path d="M19.238 13.5697C18.6965 14.1232 18.3831 14.985 18.3831 16.101V55.908C18.3831 57.024 18.6965 57.8857 19.238 58.4392L19.3717 58.5607L42.2187 36.2632V35.7367L19.3717 13.4392L19.238 13.5697Z" fill="url(#paint0_linear_3534_8617)"/>
<path d="M49.826 43.6995L42.2188 36.2632V35.7367L49.8352 28.3005L50.0057 28.3972L59.0256 33.408C61.5998 34.83 61.5998 37.17 59.0256 38.601L50.0057 43.6027L49.826 43.6995Z" fill="url(#paint1_linear_3534_8617)"/>
<path d="M50.0057 43.6028L42.2187 36L19.238 58.4393C20.093 59.3168 21.4872 59.4225 23.0728 58.545L50.0057 43.6028Z" fill="url(#paint2_linear_3534_8617)"/>
<path d="M50.0057 28.3973L23.0728 13.455C21.4872 12.5865 20.093 12.6923 19.238 13.5698L42.2187 36L50.0057 28.3973Z" fill="url(#paint3_linear_3534_8617)"/>
<path d="M87.0833 17.5071C87.0833 18.3849 86.9723 19.1834 86.7502 19.9026C86.5281 20.6112 86.1949 21.2246 85.7507 21.7428C85.3171 22.2611 84.7724 22.6577 84.1167 22.9327C83.4715 23.2077 82.7206 23.3452 81.8639 23.3452C80.9755 23.3452 80.2034 23.2077 79.5477 22.9327C78.892 22.6471 78.3473 22.2505 77.9137 21.7428C77.4801 21.2246 77.1575 20.6059 76.946 19.8867C76.7344 19.1675 76.6287 18.369 76.6287 17.4912C76.6287 16.3278 76.819 15.3125 77.1998 14.4452C77.5805 13.578 78.1569 12.9011 78.929 12.4146C79.7116 11.9281 80.6952 11.6848 81.8798 11.6848C83.0114 11.6848 83.9633 11.9281 84.7354 12.4146C85.5074 12.8905 86.0891 13.5674 86.4805 14.4452C86.8824 15.3125 87.0833 16.3331 87.0833 17.5071ZM78.1358 17.5071C78.1358 18.4589 78.268 19.2786 78.5324 19.966C78.7968 20.6535 79.204 21.1823 79.7539 21.5525C80.3145 21.9226 81.0178 22.1077 81.8639 22.1077C82.7206 22.1077 83.4186 21.9226 83.958 21.5525C84.508 21.1823 84.9152 20.6535 85.1796 19.966C85.444 19.2786 85.5762 18.4589 85.5762 17.5071C85.5762 16.0793 85.2801 14.9635 84.6878 14.1597C84.0955 13.3453 83.1595 12.9381 81.8798 12.9381C81.0231 12.9381 80.3145 13.1232 79.7539 13.4934C79.204 13.853 78.7968 14.3765 78.5324 15.0639C78.268 15.7408 78.1358 16.5552 78.1358 17.5071Z" fill="white"/>
<path d="M92.6989 23.1865H91.2711V13.1126H87.7334V11.8593H96.2208V13.1126H92.6989V23.1865Z" fill="white"/>
<path d="M100.927 11.8593C102.408 11.8593 103.487 12.1502 104.164 12.7319C104.84 13.3136 105.179 14.1332 105.179 15.1908C105.179 15.6562 105.1 16.1057 104.941 16.5393C104.793 16.9624 104.544 17.3431 104.195 17.6816C103.846 18.02 103.381 18.2897 102.799 18.4906C102.218 18.681 101.504 18.7762 100.658 18.7762H99.3567V23.1865H97.9289V11.8593H100.927ZM100.8 13.0809H99.3567V17.5546H100.499C101.218 17.5546 101.816 17.4806 102.292 17.3325C102.768 17.1739 103.122 16.9254 103.354 16.5869C103.587 16.2485 103.704 15.8043 103.704 15.2543C103.704 14.5245 103.471 13.9799 103.005 13.6203C102.54 13.2607 101.805 13.0809 100.8 13.0809Z" fill="white"/>
<path d="M107.55 11.8593H108.883V18.0782C108.883 18.3426 108.877 18.6334 108.867 18.9507C108.867 19.2574 108.862 19.5641 108.851 19.8708C108.84 20.1776 108.825 20.4525 108.803 20.6958C108.793 20.9285 108.782 21.1083 108.772 21.2352H108.835L115.07 11.8593H116.656V23.1865H115.324V17.0311C115.324 16.7456 115.329 16.4388 115.34 16.111C115.35 15.7725 115.361 15.45 115.371 15.1433C115.392 14.826 115.408 14.5457 115.419 14.3024C115.429 14.0592 115.44 13.8794 115.451 13.7631H115.387L109.137 23.1865H107.55V11.8593Z" fill="white"/>
<path d="M124.709 23.1865L120.981 13.2554H120.917C120.938 13.4669 120.954 13.7366 120.965 14.0645C120.986 14.3923 121.002 14.7519 121.012 15.1433C121.023 15.524 121.028 15.9153 121.028 16.3172V23.1865H119.711V11.8593H121.821L125.312 21.14H125.375L128.929 11.8593H131.023V23.1865H129.611V16.222C129.611 15.8519 129.616 15.487 129.627 15.1274C129.637 14.7572 129.653 14.4135 129.674 14.0962C129.695 13.7683 129.711 13.4934 129.722 13.2713H129.658L125.883 23.1865H124.709Z" fill="white"/>
<path d="M141.211 23.1865L139.847 19.6805H135.357L134.009 23.1865H132.565L136.991 11.8117H138.276L142.687 23.1865H141.211ZM138.149 14.9846C138.118 14.9 138.065 14.7466 137.991 14.5245C137.917 14.3024 137.843 14.0751 137.769 13.8424C137.705 13.5991 137.652 13.414 137.61 13.2871C137.557 13.4986 137.499 13.7155 137.436 13.9376C137.383 14.1491 137.325 14.3447 137.261 14.5245C137.208 14.7043 137.161 14.8577 137.118 14.9846L135.833 18.4113H139.419L138.149 14.9846Z" fill="white"/>
<path d="M146.706 23.1865H145.278V13.1126H141.741V11.8593H150.228V13.1126H146.706V23.1865Z" fill="white"/>
<path d="M151.952 11.8593H153.284V18.0782C153.284 18.3426 153.279 18.6334 153.269 18.9507C153.269 19.2574 153.263 19.5641 153.253 19.8708C153.242 20.1776 153.226 20.4525 153.205 20.6958C153.195 20.9285 153.184 21.1083 153.173 21.2352H153.237L159.472 11.8593H161.058V23.1865H159.725V17.0311C159.725 16.7456 159.731 16.4388 159.741 16.111C159.752 15.7725 159.762 15.45 159.773 15.1433C159.794 14.826 159.81 14.5457 159.821 14.3024C159.831 14.0592 159.842 13.8794 159.852 13.7631H159.789L153.538 23.1865H151.952V11.8593Z" fill="white"/>
<path d="M170.835 11.8593C171.777 11.8593 172.565 11.9492 173.199 12.129C173.844 12.3088 174.326 12.605 174.643 13.0174C174.971 13.4299 175.135 13.9799 175.135 14.6673C175.135 15.1115 175.05 15.5081 174.881 15.8572C174.722 16.1956 174.479 16.4812 174.151 16.7138C173.834 16.9359 173.442 17.0893 172.977 17.1739V17.2532C173.453 17.3273 173.881 17.4647 174.262 17.6657C174.653 17.8666 174.96 18.1522 175.182 18.5224C175.404 18.8925 175.515 19.3738 175.515 19.966C175.515 20.6535 175.357 21.2405 175.039 21.727C174.722 22.2029 174.267 22.5678 173.675 22.8216C173.093 23.0649 172.395 23.1865 171.581 23.1865H167.599V11.8593H170.835ZM171.121 16.6821C172.094 16.6821 172.76 16.5287 173.12 16.222C173.479 15.9047 173.659 15.4394 173.659 14.826C173.659 14.202 173.437 13.7578 172.993 13.4934C172.559 13.2184 171.861 13.0809 170.899 13.0809H169.027V16.6821H171.121ZM169.027 17.8719V21.9808H171.311C172.316 21.9808 173.014 21.7852 173.405 21.3938C173.797 21.0025 173.992 20.4896 173.992 19.855C173.992 19.4531 173.902 19.1041 173.723 18.8079C173.553 18.5118 173.263 18.2844 172.85 18.1258C172.448 17.9565 171.898 17.8719 171.2 17.8719H169.027Z" fill="white"/>
<path d="M257.17 6H255.707V7.46341H257.17V6Z" fill="white"/>
<path d="M260.097 6H258.634V7.46341H260.097V6Z" fill="white"/>
<path d="M261.562 6H260.098V7.46341H261.562V6Z" fill="white"/>
<path d="M265.952 6H264.488V7.46341H265.952V6Z" fill="white"/>
<path d="M267.415 6H265.951V7.46341H267.415V6Z" fill="white"/>
<path d="M268.878 6H267.415V7.46341H268.878V6Z" fill="white"/>
<path d="M271.804 6H270.341V7.46341H271.804V6Z" fill="white"/>
<path d="M276.195 6H274.732V7.46341H276.195V6Z" fill="white"/>
<path d="M277.658 6H276.195V7.46341H277.658V6Z" fill="white"/>
<path d="M279.123 6H277.659V7.46341H279.123V6Z" fill="white"/>
<path d="M282.048 6H280.585V7.46341H282.048V6Z" fill="white"/>
<path d="M283.512 6H282.049V7.46341H283.512V6Z" fill="white"/>
<path d="M284.975 6H283.512V7.46341H284.975V6Z" fill="white"/>
<path d="M287.902 6H286.439V7.46341H287.902V6Z" fill="white"/>
<path d="M289.365 6H287.902V7.46341H289.365V6Z" fill="white"/>
<path d="M260.097 7.46332H258.634V8.92673H260.097V7.46332Z" fill="white"/>
<path d="M261.562 7.46332H260.098V8.92673H261.562V7.46332Z" fill="white"/>
<path d="M271.804 7.46313H270.341V8.92655H271.804V7.46313Z" fill="white"/>
<path d="M273.269 7.46332H271.805V8.92673H273.269V7.46332Z" fill="white"/>
<path d="M276.195 7.46332H274.732V8.92673H276.195V7.46332Z" fill="white"/>
<path d="M277.658 7.46332H276.195V8.92673H277.658V7.46332Z" fill="white"/>
<path d="M282.048 7.46332H280.585V8.92673H282.048V7.46332Z" fill="white"/>
<path d="M283.512 7.46332H282.049V8.92673H283.512V7.46332Z" fill="white"/>
<path d="M290.83 7.46332H289.366V8.92673H290.83V7.46332Z" fill="white"/>
<path d="M258.634 8.92688H257.171V10.3903H258.634V8.92688Z" fill="white"/>
<path d="M265.952 8.92676H264.488V10.3902H265.952V8.92676Z" fill="white"/>
<path d="M270.341 8.92676H268.878V10.3902H270.341V8.92676Z" fill="white"/>
<path d="M271.804 8.92688H270.341V10.3903H271.804V8.92688Z" fill="white"/>
<path d="M273.269 8.92676H271.805V10.3902H273.269V8.92676Z" fill="white"/>
<path d="M277.658 8.92676H276.195V10.3902H277.658V8.92676Z" fill="white"/>
<path d="M280.585 8.92676H279.122V10.3902H280.585V8.92676Z" fill="white"/>
<path d="M283.512 8.92676H282.049V10.3902H283.512V8.92676Z" fill="white"/>
<path d="M284.975 8.92676H283.512V10.3902H284.975V8.92676Z" fill="white"/>
<path d="M287.902 8.92676H286.439V10.3902H287.902V8.92676Z" fill="white"/>
<path d="M290.83 8.92676H289.366V10.3902H290.83V8.92676Z" fill="white"/>
<path d="M292.293 8.92688H290.829V10.3903H292.293V8.92688Z" fill="white"/>
<path d="M257.17 10.3903H255.707V11.8537H257.17V10.3903Z" fill="white"/>
<path d="M260.097 10.3903H258.634V11.8537H260.097V10.3903Z" fill="white"/>
<path d="M261.562 10.3903H260.098V11.8537H261.562V10.3903Z" fill="white"/>
<path d="M264.489 10.3903H263.025V11.8537H264.489V10.3903Z" fill="white"/>
<path d="M265.952 10.3903H264.488V11.8537H265.952V10.3903Z" fill="white"/>
<path d="M267.415 10.3903H265.951V11.8537H267.415V10.3903Z" fill="white"/>
<path d="M268.878 10.3903H267.415V11.8537H268.878V10.3903Z" fill="white"/>
<path d="M270.341 10.3903H268.878V11.8537H270.341V10.3903Z" fill="white"/>
<path d="M276.195 10.3903H274.732V11.8537H276.195V10.3903Z" fill="white"/>
<path d="M280.585 10.3903H279.122V11.8537H280.585V10.3903Z" fill="white"/>
<path d="M284.975 10.3903H283.512V11.8537H284.975V10.3903Z" fill="white"/>
<path d="M286.438 10.3903H284.975V11.8537H286.438V10.3903Z" fill="white"/>
<path d="M289.365 10.3903H287.902V11.8537H289.365V10.3903Z" fill="white"/>
<path d="M257.17 11.8538H255.707V13.3172H257.17V11.8538Z" fill="white"/>
<path d="M258.634 11.8536H257.171V13.3171H258.634V11.8536Z" fill="white"/>
<path d="M263.024 11.8538H261.561V13.3172H263.024V11.8538Z" fill="white"/>
<path d="M268.878 11.8538H267.415V13.3172H268.878V11.8538Z" fill="white"/>
<path d="M270.341 11.8538H268.878V13.3172H270.341V11.8538Z" fill="white"/>
<path d="M279.123 11.8536H277.659V13.3171H279.123V11.8536Z" fill="white"/>
<path d="M280.585 11.8538H279.122V13.3172H280.585V11.8538Z" fill="white"/>
<path d="M282.048 11.8538H280.585V13.3172H282.048V11.8538Z" fill="white"/>
<path d="M284.975 11.8538H283.512V13.3172H284.975V11.8538Z" fill="white"/>
<path d="M286.438 11.8536H284.975V13.3171H286.438V11.8536Z" fill="white"/>
<path d="M289.365 11.8538H287.902V13.3172H289.365V11.8538Z" fill="white"/>
<path d="M257.17 13.317H255.707V14.7804H257.17V13.317Z" fill="white"/>
<path d="M258.634 13.3171H257.171V14.7806H258.634V13.3171Z" fill="white"/>
<path d="M260.097 13.317H258.634V14.7804H260.097V13.317Z" fill="white"/>
<path d="M261.562 13.317H260.098V14.7804H261.562V13.317Z" fill="white"/>
<path d="M270.341 13.317H268.878V14.7804H270.341V13.317Z" fill="white"/>
<path d="M273.269 13.317H271.805V14.7804H273.269V13.317Z" fill="white"/>
<path d="M274.731 13.317H273.268V14.7804H274.731V13.317Z" fill="white"/>
<path d="M277.658 13.317H276.195V14.7804H277.658V13.317Z" fill="white"/>
<path d="M280.585 13.317H279.122V14.7804H280.585V13.317Z" fill="white"/>
<path d="M286.438 13.3171H284.975V14.7806H286.438V13.3171Z" fill="white"/>
<path d="M289.365 13.317H287.902V14.7804H289.365V13.317Z" fill="white"/>
<path d="M290.83 13.317H289.366V14.7804H290.83V13.317Z" fill="white"/>
<path d="M257.17 14.7805H255.707V16.2439H257.17V14.7805Z" fill="white"/>
<path d="M260.097 14.7805H258.634V16.2439H260.097V14.7805Z" fill="white"/>
<path d="M263.024 14.7805H261.561V16.2439H263.024V14.7805Z" fill="white"/>
<path d="M265.952 14.7805H264.488V16.2439H265.952V14.7805Z" fill="white"/>
<path d="M268.878 14.7805H267.415V16.2439H268.878V14.7805Z" fill="white"/>
<path d="M271.804 14.7805H270.341V16.2439H271.804V14.7805Z" fill="white"/>
<path d="M274.731 14.7805H273.268V16.2439H274.731V14.7805Z" fill="white"/>
<path d="M277.658 14.7805H276.195V16.2439H277.658V14.7805Z" fill="white"/>
<path d="M280.585 14.7805H279.122V16.2439H280.585V14.7805Z" fill="white"/>
<path d="M283.512 14.7805H282.049V16.2439H283.512V14.7805Z" fill="white"/>
<path d="M286.438 14.7805H284.975V16.2439H286.438V14.7805Z" fill="white"/>
<path d="M289.365 14.7805H287.902V16.2439H289.365V14.7805Z" fill="white"/>
<path d="M292.293 14.7805H290.829V16.2439H292.293V14.7805Z" fill="white"/>
<path d="M257.17 16.2438H255.707V17.7073H257.17V16.2438Z" fill="white"/>
<path d="M258.634 16.2437H257.171V17.7071H258.634V16.2437Z" fill="white"/>
<path d="M260.097 16.2438H258.634V17.7073H260.097V16.2438Z" fill="white"/>
<path d="M265.952 16.2438H264.488V17.7073H265.952V16.2438Z" fill="white"/>
<path d="M270.341 16.2438H268.878V17.7073H270.341V16.2438Z" fill="white"/>
<path d="M271.804 16.2437H270.341V17.7071H271.804V16.2437Z" fill="white"/>
<path d="M273.269 16.2438H271.805V17.7073H273.269V16.2438Z" fill="white"/>
<path d="M274.731 16.2438H273.268V17.7073H274.731V16.2438Z" fill="white"/>
<path d="M276.195 16.2438H274.732V17.7073H276.195V16.2438Z" fill="white"/>
<path d="M279.123 16.2437H277.659V17.7071H279.123V16.2437Z" fill="white"/>
<path d="M280.585 16.2438H279.122V17.7073H280.585V16.2438Z" fill="white"/>
<path d="M283.512 16.2438H282.049V17.7073H283.512V16.2438Z" fill="white"/>
<path d="M284.975 16.2438H283.512V17.7073H284.975V16.2438Z" fill="white"/>
<path d="M286.438 16.2437H284.975V17.7071H286.438V16.2437Z" fill="white"/>
<path d="M287.902 16.2438H286.439V17.7073H287.902V16.2438Z" fill="white"/>
<path d="M290.83 16.2438H289.366V17.7073H290.83V16.2438Z" fill="white"/>
<path d="M292.293 16.2437H290.829V17.7071H292.293V16.2437Z" fill="white"/>
<path d="M245.463 17.7075H244V19.1709H245.463V17.7075Z" fill="white"/>
<path d="M251.316 17.7073H249.853V19.1707H251.316V17.7073Z" fill="white"/>
<path d="M254.245 17.7073H252.781V19.1707H254.245V17.7073Z" fill="white"/>
<path d="M255.707 17.7075H254.244V19.1709H255.707V17.7075Z" fill="white"/>
<path d="M257.17 17.7075H255.707V19.1709H257.17V17.7075Z" fill="white"/>
<path d="M258.634 17.7073H257.171V19.1707H258.634V17.7073Z" fill="white"/>
<path d="M260.097 17.7075H258.634V19.1709H260.097V17.7075Z" fill="white"/>
<path d="M265.952 17.7075H264.488V19.1709H265.952V17.7075Z" fill="white"/>
<path d="M270.341 17.7075H268.878V19.1709H270.341V17.7075Z" fill="white"/>
<path d="M274.731 17.7075H273.268V19.1709H274.731V17.7075Z" fill="white"/>
<path d="M276.195 17.7075H274.732V19.1709H276.195V17.7075Z" fill="white"/>
<path d="M280.585 17.7075H279.122V19.1709H280.585V17.7075Z" fill="white"/>
<path d="M284.975 17.7075H283.512V19.1709H284.975V17.7075Z" fill="white"/>
<path d="M287.902 17.7075H286.439V19.1709H287.902V17.7075Z" fill="white"/>
<path d="M293.756 17.7075H292.293V19.1709H293.756V17.7075Z" fill="white"/>
<path d="M295.22 17.7075H293.756V19.1709H295.22V17.7075Z" fill="white"/>
<path d="M296.682 17.7073H295.219V19.1707H296.682V17.7073Z" fill="white"/>
<path d="M298.147 17.7075H296.683V19.1709H298.147V17.7075Z" fill="white"/>
<path d="M299.611 17.7073H298.147V19.1707H299.611V17.7073Z" fill="white"/>
<path d="M304.001 17.7073H302.537V19.1707H304.001V17.7073Z" fill="white"/>
<path d="M245.463 19.1708H244V20.6342H245.463V19.1708Z" fill="white"/>
<path d="M246.926 19.1708H245.463V20.6342H246.926V19.1708Z" fill="white"/>
<path d="M249.854 19.1708H248.39V20.6342H249.854V19.1708Z" fill="white"/>
<path d="M251.316 19.1708H249.853V20.6342H251.316V19.1708Z" fill="white"/>
<path d="M252.78 19.1708H251.317V20.6342H252.78V19.1708Z" fill="white"/>
<path d="M257.17 19.1708H255.707V20.6342H257.17V19.1708Z" fill="white"/>
<path d="M263.024 19.1708H261.561V20.6342H263.024V19.1708Z" fill="white"/>
<path d="M270.341 19.1708H268.878V20.6342H270.341V19.1708Z" fill="white"/>
<path d="M274.731 19.1708H273.268V20.6342H274.731V19.1708Z" fill="white"/>
<path d="M276.195 19.1708H274.732V20.6342H276.195V19.1708Z" fill="white"/>
<path d="M279.123 19.1708H277.659V20.6342H279.123V19.1708Z" fill="white"/>
<path d="M283.512 19.1708H282.049V20.6342H283.512V19.1708Z" fill="white"/>
<path d="M284.975 19.1708H283.512V20.6342H284.975V19.1708Z" fill="white"/>
<path d="M286.438 19.1708H284.975V20.6342H286.438V19.1708Z" fill="white"/>
<path d="M289.365 19.1708H287.902V20.6342H289.365V19.1708Z" fill="white"/>
<path d="M296.682 19.1708H295.219V20.6342H296.682V19.1708Z" fill="white"/>
<path d="M298.147 19.1708H296.683V20.6342H298.147V19.1708Z" fill="white"/>
<path d="M299.611 19.1708H298.147V20.6342H299.611V19.1708Z" fill="white"/>
<path d="M304.001 19.1708H302.537V20.6342H304.001V19.1708Z" fill="white"/>
<path d="M248.39 20.6341H246.927V22.0975H248.39V20.6341Z" fill="white"/>
<path d="M251.316 20.6343H249.853V22.0977H251.316V20.6343Z" fill="white"/>
<path d="M254.245 20.6343H252.781V22.0977H254.245V20.6343Z" fill="white"/>
<path d="M257.17 20.6341H255.707V22.0975H257.17V20.6341Z" fill="white"/>
<path d="M258.634 20.6343H257.171V22.0977H258.634V20.6343Z" fill="white"/>
<path d="M260.097 20.6341H258.634V22.0975H260.097V20.6341Z" fill="white"/>
<path d="M261.562 20.6341H260.098V22.0975H261.562V20.6341Z" fill="white"/>
<path d="M263.024 20.6341H261.561V22.0975H263.024V20.6341Z" fill="white"/>
<path d="M265.952 20.6341H264.488V22.0975H265.952V20.6341Z" fill="white"/>
<path d="M267.415 20.6341H265.951V22.0975H267.415V20.6341Z" fill="white"/>
<path d="M270.341 20.6341H268.878V22.0975H270.341V20.6341Z" fill="white"/>
<path d="M271.804 20.6343H270.341V22.0977H271.804V20.6343Z" fill="white"/>
<path d="M274.731 20.6341H273.268V22.0975H274.731V20.6341Z" fill="white"/>
<path d="M276.195 20.6341H274.732V22.0975H276.195V20.6341Z" fill="white"/>
<path d="M279.123 20.6343H277.659V22.0977H279.123V20.6343Z" fill="white"/>
<path d="M283.512 20.6341H282.049V22.0975H283.512V20.6341Z" fill="white"/>
<path d="M284.975 20.6341H283.512V22.0975H284.975V20.6341Z" fill="white"/>
<path d="M286.438 20.6343H284.975V22.0977H286.438V20.6343Z" fill="white"/>
<path d="M287.902 20.6341H286.439V22.0975H287.902V20.6341Z" fill="white"/>
<path d="M289.365 20.6341H287.902V22.0975H289.365V20.6341Z" fill="white"/>
<path d="M292.293 20.6343H290.829V22.0977H292.293V20.6343Z" fill="white"/>
<path d="M296.682 20.6343H295.219V22.0977H296.682V20.6343Z" fill="white"/>
<path d="M298.147 20.6341H296.683V22.0975H298.147V20.6341Z" fill="white"/>
<path d="M304.001 20.6343H302.537V22.0977H304.001V20.6343Z" fill="white"/>
<path d="M251.316 22.0977H249.853V23.5611H251.316V22.0977Z" fill="white"/>
<path d="M252.78 22.0975H251.317V23.5609H252.78V22.0975Z" fill="white"/>
<path d="M257.17 22.0975H255.707V23.5609H257.17V22.0975Z" fill="white"/>
<path d="M260.097 22.0975H258.634V23.5609H260.097V22.0975Z" fill="white"/>
<path d="M261.562 22.0975H260.098V23.5609H261.562V22.0975Z" fill="white"/>
<path d="M264.489 22.0977H263.025V23.5611H264.489V22.0977Z" fill="white"/>
<path d="M265.952 22.0975H264.488V23.5609H265.952V22.0975Z" fill="white"/>
<path d="M268.878 22.0975H267.415V23.5609H268.878V22.0975Z" fill="white"/>
<path d="M270.341 22.0975H268.878V23.5609H270.341V22.0975Z" fill="white"/>
<path d="M274.731 22.0975H273.268V23.5609H274.731V22.0975Z" fill="white"/>
<path d="M276.195 22.0975H274.732V23.5609H276.195V22.0975Z" fill="white"/>
<path d="M279.123 22.0977H277.659V23.5611H279.123V22.0977Z" fill="white"/>
<path d="M280.585 22.0975H279.122V23.5609H280.585V22.0975Z" fill="white"/>
<path d="M287.902 22.0975H286.439V23.5609H287.902V22.0975Z" fill="white"/>
<path d="M290.83 22.0975H289.366V23.5609H290.83V22.0975Z" fill="white"/>
<path d="M292.293 22.0977H290.829V23.5611H292.293V22.0977Z" fill="white"/>
<path d="M293.756 22.0975H292.293V23.5609H293.756V22.0975Z" fill="white"/>
<path d="M298.147 22.0975H296.683V23.5609H298.147V22.0975Z" fill="white"/>
<path d="M299.611 22.0977H298.147V23.5611H299.611V22.0977Z" fill="white"/>
<path d="M304.001 22.0977H302.537V23.5611H304.001V22.0977Z" fill="white"/>
<path d="M248.39 23.5609H246.927V25.0243H248.39V23.5609Z" fill="white"/>
<path d="M249.854 23.5609H248.39V25.0243H249.854V23.5609Z" fill="white"/>
<path d="M254.245 23.5608H252.781V25.0242H254.245V23.5608Z" fill="white"/>
<path d="M260.097 23.5609H258.634V25.0243H260.097V23.5609Z" fill="white"/>
<path d="M264.489 23.5608H263.025V25.0242H264.489V23.5608Z" fill="white"/>
<path d="M268.878 23.5609H267.415V25.0243H268.878V23.5609Z" fill="white"/>
<path d="M270.341 23.5609H268.878V25.0243H270.341V23.5609Z" fill="white"/>
<path d="M274.731 23.5609H273.268V25.0243H274.731V23.5609Z" fill="white"/>
<path d="M276.195 23.5609H274.732V25.0243H276.195V23.5609Z" fill="white"/>
<path d="M277.658 23.5609H276.195V25.0243H277.658V23.5609Z" fill="white"/>
<path d="M279.123 23.5608H277.659V25.0242H279.123V23.5608Z" fill="white"/>
<path d="M284.975 23.5609H283.512V25.0243H284.975V23.5609Z" fill="white"/>
<path d="M287.902 23.5609H286.439V25.0243H287.902V23.5609Z" fill="white"/>
<path d="M292.293 23.5608H290.829V25.0242H292.293V23.5608Z" fill="white"/>
<path d="M293.756 23.5609H292.293V25.0243H293.756V23.5609Z" fill="white"/>
<path d="M296.682 23.5608H295.219V25.0242H296.682V23.5608Z" fill="white"/>
<path d="M246.926 25.0244H245.463V26.4878H246.926V25.0244Z" fill="white"/>
<path d="M249.854 25.0245H248.39V26.488H249.854V25.0245Z" fill="white"/>
<path d="M257.17 25.0245H255.707V26.488H257.17V25.0245Z" fill="white"/>
<path d="M258.634 25.0244H257.171V26.4878H258.634V25.0244Z" fill="white"/>
<path d="M263.024 25.0245H261.561V26.488H263.024V25.0245Z" fill="white"/>
<path d="M267.415 25.0245H265.951V26.488H267.415V25.0245Z" fill="white"/>
<path d="M268.878 25.0245H267.415V26.488H268.878V25.0245Z" fill="white"/>
<path d="M271.804 25.0244H270.341V26.4878H271.804V25.0244Z" fill="white"/>
<path d="M273.269 25.0245H271.805V26.488H273.269V25.0245Z" fill="white"/>
<path d="M280.585 25.0245H279.122V26.488H280.585V25.0245Z" fill="white"/>
<path d="M282.048 25.0245H280.585V26.488H282.048V25.0245Z" fill="white"/>
<path d="M286.438 25.0244H284.975V26.4878H286.438V25.0244Z" fill="white"/>
<path d="M287.902 25.0245H286.439V26.488H287.902V25.0245Z" fill="white"/>
<path d="M289.365 25.0245H287.902V26.488H289.365V25.0245Z" fill="white"/>
<path d="M295.22 25.0245H293.756V26.488H295.22V25.0245Z" fill="white"/>
<path d="M296.682 25.0244H295.219V26.4878H296.682V25.0244Z" fill="white"/>
<path d="M298.147 25.0245H296.683V26.488H298.147V25.0245Z" fill="white"/>
<path d="M299.611 25.0244H298.147V26.4878H299.611V25.0244Z" fill="white"/>
<path d="M301.073 25.0245H299.61V26.488H301.073V25.0245Z" fill="white"/>
<path d="M302.537 25.0245H301.073V26.488H302.537V25.0245Z" fill="white"/>
<path d="M304.001 25.0244H302.537V26.4878H304.001V25.0244Z" fill="white"/>
<path d="M245.463 26.4878H244V27.9512H245.463V26.4878Z" fill="white"/>
<path d="M246.926 26.4879H245.463V27.9513H246.926V26.4879Z" fill="white"/>
<path d="M248.39 26.4878H246.927V27.9512H248.39V26.4878Z" fill="white"/>
<path d="M249.854 26.4878H248.39V27.9512H249.854V26.4878Z" fill="white"/>
<path d="M251.316 26.4879H249.853V27.9513H251.316V26.4879Z" fill="white"/>
<path d="M252.78 26.4878H251.317V27.9512H252.78V26.4878Z" fill="white"/>
<path d="M254.245 26.4879H252.781V27.9513H254.245V26.4879Z" fill="white"/>
<path d="M255.707 26.4878H254.244V27.9512H255.707V26.4878Z" fill="white"/>
<path d="M263.024 26.4878H261.561V27.9512H263.024V26.4878Z" fill="white"/>
<path d="M265.952 26.4878H264.488V27.9512H265.952V26.4878Z" fill="white"/>
<path d="M268.878 26.4878H267.415V27.9512H268.878V26.4878Z" fill="white"/>
<path d="M270.341 26.4878H268.878V27.9512H270.341V26.4878Z" fill="white"/>
<path d="M271.804 26.4879H270.341V27.9513H271.804V26.4879Z" fill="white"/>
<path d="M273.269 26.4878H271.805V27.9512H273.269V26.4878Z" fill="white"/>
<path d="M277.658 26.4878H276.195V27.9512H277.658V26.4878Z" fill="white"/>
<path d="M279.123 26.4879H277.659V27.9513H279.123V26.4879Z" fill="white"/>
<path d="M280.585 26.4878H279.122V27.9512H280.585V26.4878Z" fill="white"/>
<path d="M282.048 26.4878H280.585V27.9512H282.048V26.4878Z" fill="white"/>
<path d="M283.512 26.4878H282.049V27.9512H283.512V26.4878Z" fill="white"/>
<path d="M286.438 26.4879H284.975V27.9513H286.438V26.4879Z" fill="white"/>
<path d="M287.902 26.4878H286.439V27.9512H287.902V26.4878Z" fill="white"/>
<path d="M293.756 26.4878H292.293V27.9512H293.756V26.4878Z" fill="white"/>
<path d="M295.22 26.4878H293.756V27.9512H295.22V26.4878Z" fill="white"/>
<path d="M301.073 26.4878H299.61V27.9512H301.073V26.4878Z" fill="white"/>
<path d="M304.001 26.4879H302.537V27.9513H304.001V26.4879Z" fill="white"/>
<path d="M245.463 27.9513H244V29.4147H245.463V27.9513Z" fill="white"/>
<path d="M249.854 27.9513H248.39V29.4147H249.854V27.9513Z" fill="white"/>
<path d="M257.17 27.9513H255.707V29.4147H257.17V27.9513Z" fill="white"/>
<path d="M260.097 27.9513H258.634V29.4147H260.097V27.9513Z" fill="white"/>
<path d="M263.024 27.9513H261.561V29.4147H263.024V27.9513Z" fill="white"/>
<path d="M264.489 27.9513H263.025V29.4147H264.489V27.9513Z" fill="white"/>
<path d="M270.341 27.9513H268.878V29.4147H270.341V27.9513Z" fill="white"/>
<path d="M271.804 27.9513H270.341V29.4147H271.804V27.9513Z" fill="white"/>
<path d="M273.269 27.9513H271.805V29.4147H273.269V27.9513Z" fill="white"/>
<path d="M274.731 27.9513H273.268V29.4147H274.731V27.9513Z" fill="white"/>
<path d="M276.195 27.9513H274.732V29.4147H276.195V27.9513Z" fill="white"/>
<path d="M279.123 27.9513H277.659V29.4147H279.123V27.9513Z" fill="white"/>
<path d="M287.902 27.9513H286.439V29.4147H287.902V27.9513Z" fill="white"/>
<path d="M289.365 27.9513H287.902V29.4147H289.365V27.9513Z" fill="white"/>
<path d="M296.682 27.9513H295.219V29.4147H296.682V27.9513Z" fill="white"/>
<path d="M299.611 27.9513H298.147V29.4147H299.611V27.9513Z" fill="white"/>
<path d="M245.463 29.4146H244V30.878H245.463V29.4146Z" fill="white"/>
<path d="M249.854 29.4146H248.39V30.878H249.854V29.4146Z" fill="white"/>
<path d="M251.316 29.4148H249.853V30.8782H251.316V29.4148Z" fill="white"/>
<path d="M252.78 29.4146H251.317V30.878H252.78V29.4146Z" fill="white"/>
<path d="M254.245 29.4148H252.781V30.8782H254.245V29.4148Z" fill="white"/>
<path d="M257.17 29.4146H255.707V30.878H257.17V29.4146Z" fill="white"/>
<path d="M258.634 29.4148H257.171V30.8782H258.634V29.4148Z" fill="white"/>
<path d="M265.952 29.4146H264.488V30.878H265.952V29.4146Z" fill="white"/>
<path d="M270.341 29.4146H268.878V30.878H270.341V29.4146Z" fill="white"/>
<path d="M271.804 29.4148H270.341V30.8782H271.804V29.4148Z" fill="white"/>
<path d="M274.731 29.4146H273.268V30.878H274.731V29.4146Z" fill="white"/>
<path d="M276.195 29.4146H274.732V30.878H276.195V29.4146Z" fill="white"/>
<path d="M277.658 29.4146H276.195V30.878H277.658V29.4146Z" fill="white"/>
<path d="M284.975 29.4146H283.512V30.878H284.975V29.4146Z" fill="white"/>
<path d="M287.902 29.4146H286.439V30.878H287.902V29.4146Z" fill="white"/>
<path d="M290.83 29.4146H289.366V30.878H290.83V29.4146Z" fill="white"/>
<path d="M296.682 29.4148H295.219V30.8782H296.682V29.4148Z" fill="white"/>
<path d="M299.611 29.4148H298.147V30.8782H299.611V29.4148Z" fill="white"/>
<path d="M302.537 29.4146H301.073V30.878H302.537V29.4146Z" fill="white"/>
<path d="M304.001 29.4148H302.537V30.8782H304.001V29.4148Z" fill="white"/>
<path d="M248.39 30.8779H246.927V32.3413H248.39V30.8779Z" fill="white"/>
<path d="M251.316 30.8779H249.853V32.3413H251.316V30.8779Z" fill="white"/>
<path d="M258.634 30.8779H257.171V32.3413H258.634V30.8779Z" fill="white"/>
<path d="M265.952 30.8779H264.488V32.3413H265.952V30.8779Z" fill="white"/>
<path d="M267.415 30.8779H265.951V32.3413H267.415V30.8779Z" fill="white"/>
<path d="M268.878 30.8779H267.415V32.3413H268.878V30.8779Z" fill="white"/>
<path d="M270.341 30.8779H268.878V32.3413H270.341V30.8779Z" fill="white"/>
<path d="M284.975 30.8779H283.512V32.3413H284.975V30.8779Z" fill="white"/>
<path d="M286.438 30.8779H284.975V32.3413H286.438V30.8779Z" fill="white"/>
<path d="M287.902 30.8779H286.439V32.3413H287.902V30.8779Z" fill="white"/>
<path d="M290.83 30.8779H289.366V32.3413H290.83V30.8779Z" fill="white"/>
<path d="M293.756 30.8779H292.293V32.3413H293.756V30.8779Z" fill="white"/>
<path d="M295.22 30.8779H293.756V32.3413H295.22V30.8779Z" fill="white"/>
<path d="M296.682 30.8779H295.219V32.3413H296.682V30.8779Z" fill="white"/>
<path d="M298.147 30.8779H296.683V32.3413H298.147V30.8779Z" fill="white"/>
<path d="M301.073 30.8779H299.61V32.3413H301.073V30.8779Z" fill="white"/>
<path d="M302.537 30.8779H301.073V32.3413H302.537V30.8779Z" fill="white"/>
<path d="M304.001 30.8779H302.537V32.3413H304.001V30.8779Z" fill="white"/>
<path d="M245.463 32.3416H244V33.805H245.463V32.3416Z" fill="white"/>
<path d="M249.854 32.3416H248.39V33.805H249.854V32.3416Z" fill="white"/>
<path d="M251.316 32.3416H249.853V33.805H251.316V32.3416Z" fill="white"/>
<path d="M254.245 32.3416H252.781V33.805H254.245V32.3416Z" fill="white"/>
<path d="M255.707 32.3416H254.244V33.805H255.707V32.3416Z" fill="white"/>
<path d="M260.097 32.3416H258.634V33.805H260.097V32.3416Z" fill="white"/>
<path d="M264.489 32.3416H263.025V33.805H264.489V32.3416Z" fill="white"/>
<path d="M265.952 32.3416H264.488V33.805H265.952V32.3416Z" fill="white"/>
<path d="M268.878 32.3416H267.415V33.805H268.878V32.3416Z" fill="white"/>
<path d="M271.804 32.3416H270.341V33.805H271.804V32.3416Z" fill="white"/>
<path d="M276.195 32.3416H274.732V33.805H276.195V32.3416Z" fill="white"/>
<path d="M277.658 32.3416H276.195V33.805H277.658V32.3416Z" fill="white"/>
<path d="M279.123 32.3416H277.659V33.805H279.123V32.3416Z" fill="white"/>
<path d="M280.585 32.3416H279.122V33.805H280.585V32.3416Z" fill="white"/>
<path d="M282.048 32.3416H280.585V33.805H282.048V32.3416Z" fill="white"/>
<path d="M283.512 32.3416H282.049V33.805H283.512V32.3416Z" fill="white"/>
<path d="M284.975 32.3416H283.512V33.805H284.975V32.3416Z" fill="white"/>
<path d="M286.438 32.3416H284.975V33.805H286.438V32.3416Z" fill="white"/>
<path d="M287.902 32.3416H286.439V33.805H287.902V32.3416Z" fill="white"/>
<path d="M293.756 32.3416H292.293V33.805H293.756V32.3416Z" fill="white"/>
<path d="M295.22 32.3416H293.756V33.805H295.22V32.3416Z" fill="white"/>
<path d="M296.682 32.3416H295.219V33.805H296.682V32.3416Z" fill="white"/>
<path d="M301.073 32.3416H299.61V33.805H301.073V32.3416Z" fill="white"/>
<path d="M304.001 32.3416H302.537V33.805H304.001V32.3416Z" fill="white"/>
<path d="M245.463 33.8049H244V35.2683H245.463V33.8049Z" fill="white"/>
<path d="M246.926 33.8047H245.463V35.2681H246.926V33.8047Z" fill="white"/>
<path d="M258.634 33.8047H257.171V35.2681H258.634V33.8047Z" fill="white"/>
<path d="M261.562 33.8049H260.098V35.2683H261.562V33.8049Z" fill="white"/>
<path d="M264.489 33.8047H263.025V35.2681H264.489V33.8047Z" fill="white"/>
<path d="M268.878 33.8049H267.415V35.2683H268.878V33.8049Z" fill="white"/>
<path d="M273.269 33.8049H271.805V35.2683H273.269V33.8049Z" fill="white"/>
<path d="M276.195 33.8049H274.732V35.2683H276.195V33.8049Z" fill="white"/>
<path d="M279.123 33.8047H277.659V35.2681H279.123V33.8047Z" fill="white"/>
<path d="M280.585 33.8049H279.122V35.2683H280.585V33.8049Z" fill="white"/>
<path d="M282.048 33.8049H280.585V35.2683H282.048V33.8049Z" fill="white"/>
<path d="M286.438 33.8047H284.975V35.2681H286.438V33.8047Z" fill="white"/>
<path d="M287.902 33.8049H286.439V35.2683H287.902V33.8049Z" fill="white"/>
<path d="M289.365 33.8049H287.902V35.2683H289.365V33.8049Z" fill="white"/>
<path d="M292.293 33.8047H290.829V35.2681H292.293V33.8047Z" fill="white"/>
<path d="M293.756 33.8049H292.293V35.2683H293.756V33.8049Z" fill="white"/>
<path d="M295.22 33.8049H293.756V35.2683H295.22V33.8049Z" fill="white"/>
<path d="M296.682 33.8047H295.219V35.2681H296.682V33.8047Z" fill="white"/>
<path d="M299.611 33.8047H298.147V35.2681H299.611V33.8047Z" fill="white"/>
<path d="M245.463 35.2683H244V36.7317H245.463V35.2683Z" fill="white"/>
<path d="M249.854 35.2683H248.39V36.7317H249.854V35.2683Z" fill="white"/>
<path d="M252.78 35.2683H251.317V36.7317H252.78V35.2683Z" fill="white"/>
<path d="M254.245 35.2684H252.781V36.7318H254.245V35.2684Z" fill="white"/>
<path d="M265.952 35.2683H264.488V36.7317H265.952V35.2683Z" fill="white"/>
<path d="M267.415 35.2683H265.951V36.7317H267.415V35.2683Z" fill="white"/>
<path d="M273.269 35.2683H271.805V36.7317H273.269V35.2683Z" fill="white"/>
<path d="M274.731 35.2683H273.268V36.7317H274.731V35.2683Z" fill="white"/>
<path d="M279.123 35.2684H277.659V36.7318H279.123V35.2684Z" fill="white"/>
<path d="M280.585 35.2683H279.122V36.7317H280.585V35.2683Z" fill="white"/>
<path d="M282.048 35.2683H280.585V36.7317H282.048V35.2683Z" fill="white"/>
<path d="M287.902 35.2683H286.439V36.7317H287.902V35.2683Z" fill="white"/>
<path d="M289.365 35.2683H287.902V36.7317H289.365V35.2683Z" fill="white"/>
<path d="M290.83 35.2683H289.366V36.7317H290.83V35.2683Z" fill="white"/>
<path d="M292.293 35.2684H290.829V36.7318H292.293V35.2684Z" fill="white"/>
<path d="M293.756 35.2683H292.293V36.7317H293.756V35.2683Z" fill="white"/>
<path d="M302.537 35.2683H301.073V36.7317H302.537V35.2683Z" fill="white"/>
<path d="M304.001 35.2684H302.537V36.7318H304.001V35.2684Z" fill="white"/>
<path d="M246.926 36.7316H245.463V38.195H246.926V36.7316Z" fill="white"/>
<path d="M249.854 36.7317H248.39V38.1951H249.854V36.7317Z" fill="white"/>
<path d="M251.316 36.7316H249.853V38.195H251.316V36.7316Z" fill="white"/>
<path d="M252.78 36.7317H251.317V38.1951H252.78V36.7317Z" fill="white"/>
<path d="M255.707 36.7317H254.244V38.1951H255.707V36.7317Z" fill="white"/>
<path d="M260.097 36.7317H258.634V38.1951H260.097V36.7317Z" fill="white"/>
<path d="M265.952 36.7317H264.488V38.1951H265.952V36.7317Z" fill="white"/>
<path d="M267.415 36.7317H265.951V38.1951H267.415V36.7317Z" fill="white"/>
<path d="M271.804 36.7316H270.341V38.195H271.804V36.7316Z" fill="white"/>
<path d="M274.731 36.7317H273.268V38.1951H274.731V36.7317Z" fill="white"/>
<path d="M276.195 36.7317H274.732V38.1951H276.195V36.7317Z" fill="white"/>
<path d="M277.658 36.7317H276.195V38.1951H277.658V36.7317Z" fill="white"/>
<path d="M279.123 36.7316H277.659V38.195H279.123V36.7316Z" fill="white"/>
<path d="M283.512 36.7317H282.049V38.1951H283.512V36.7317Z" fill="white"/>
<path d="M284.975 36.7317H283.512V38.1951H284.975V36.7317Z" fill="white"/>
<path d="M286.438 36.7316H284.975V38.195H286.438V36.7316Z" fill="white"/>
<path d="M287.902 36.7317H286.439V38.1951H287.902V36.7317Z" fill="white"/>
<path d="M292.293 36.7316H290.829V38.195H292.293V36.7316Z" fill="white"/>
<path d="M293.756 36.7317H292.293V38.1951H293.756V36.7317Z" fill="white"/>
<path d="M295.22 36.7317H293.756V38.1951H295.22V36.7317Z" fill="white"/>
<path d="M296.682 36.7316H295.219V38.195H296.682V36.7316Z" fill="white"/>
<path d="M298.147 36.7317H296.683V38.1951H298.147V36.7317Z" fill="white"/>
<path d="M304.001 36.7316H302.537V38.195H304.001V36.7316Z" fill="white"/>
<path d="M245.463 38.1951H244V39.6585H245.463V38.1951Z" fill="white"/>
<path d="M249.854 38.1951H248.39V39.6585H249.854V38.1951Z" fill="white"/>
<path d="M254.245 38.1953H252.781V39.6587H254.245V38.1953Z" fill="white"/>
<path d="M255.707 38.1951H254.244V39.6585H255.707V38.1951Z" fill="white"/>
<path d="M257.17 38.1951H255.707V39.6585H257.17V38.1951Z" fill="white"/>
<path d="M260.097 38.1951H258.634V39.6585H260.097V38.1951Z" fill="white"/>
<path d="M265.952 38.1951H264.488V39.6585H265.952V38.1951Z" fill="white"/>
<path d="M268.878 38.1951H267.415V39.6585H268.878V38.1951Z" fill="white"/>
<path d="M274.731 38.1951H273.268V39.6585H274.731V38.1951Z" fill="white"/>
<path d="M279.123 38.1953H277.659V39.6587H279.123V38.1953Z" fill="white"/>
<path d="M280.585 38.1951H279.122V39.6585H280.585V38.1951Z" fill="white"/>
<path d="M282.048 38.1951H280.585V39.6585H282.048V38.1951Z" fill="white"/>
<path d="M283.512 38.1951H282.049V39.6585H283.512V38.1951Z" fill="white"/>
<path d="M284.975 38.1951H283.512V39.6585H284.975V38.1951Z" fill="white"/>
<path d="M287.902 38.1951H286.439V39.6585H287.902V38.1951Z" fill="white"/>
<path d="M289.365 38.1951H287.902V39.6585H289.365V38.1951Z" fill="white"/>
<path d="M292.293 38.1953H290.829V39.6587H292.293V38.1953Z" fill="white"/>
<path d="M293.756 38.1951H292.293V39.6585H293.756V38.1951Z" fill="white"/>
<path d="M295.22 38.1951H293.756V39.6585H295.22V38.1951Z" fill="white"/>
<path d="M301.073 38.1951H299.61V39.6585H301.073V38.1951Z" fill="white"/>
<path d="M304.001 38.1953H302.537V39.6587H304.001V38.1953Z" fill="white"/>
<path d="M248.39 39.6584H246.927V41.1219H248.39V39.6584Z" fill="white"/>
<path d="M249.854 39.6584H248.39V41.1219H249.854V39.6584Z" fill="white"/>
<path d="M251.316 39.6584H249.853V41.1219H251.316V39.6584Z" fill="white"/>
<path d="M255.707 39.6584H254.244V41.1219H255.707V39.6584Z" fill="white"/>
<path d="M257.17 39.6584H255.707V41.1219H257.17V39.6584Z" fill="white"/>
<path d="M258.634 39.6584H257.171V41.1219H258.634V39.6584Z" fill="white"/>
<path d="M260.097 39.6584H258.634V41.1219H260.097V39.6584Z" fill="white"/>
<path d="M261.562 39.6584H260.098V41.1219H261.562V39.6584Z" fill="white"/>
<path d="M264.489 39.6584H263.025V41.1219H264.489V39.6584Z" fill="white"/>
<path d="M267.415 39.6584H265.951V41.1219H267.415V39.6584Z" fill="white"/>
<path d="M268.878 39.6584H267.415V41.1219H268.878V39.6584Z" fill="white"/>
<path d="M270.341 39.6584H268.878V41.1219H270.341V39.6584Z" fill="white"/>
<path d="M271.804 39.6584H270.341V41.1219H271.804V39.6584Z" fill="white"/>
<path d="M274.731 39.6584H273.268V41.1219H274.731V39.6584Z" fill="white"/>
<path d="M276.195 39.6584H274.732V41.1219H276.195V39.6584Z" fill="white"/>
<path d="M277.658 39.6584H276.195V41.1219H277.658V39.6584Z" fill="white"/>
<path d="M279.123 39.6584H277.659V41.1219H279.123V39.6584Z" fill="white"/>
<path d="M283.512 39.6584H282.049V41.1219H283.512V39.6584Z" fill="white"/>
<path d="M284.975 39.6584H283.512V41.1219H284.975V39.6584Z" fill="white"/>
<path d="M286.438 39.6584H284.975V41.1219H286.438V39.6584Z" fill="white"/>
<path d="M287.902 39.6584H286.439V41.1219H287.902V39.6584Z" fill="white"/>
<path d="M290.83 39.6584H289.366V41.1219H290.83V39.6584Z" fill="white"/>
<path d="M295.22 39.6584H293.756V41.1219H295.22V39.6584Z" fill="white"/>
<path d="M296.682 39.6584H295.219V41.1219H296.682V39.6584Z" fill="white"/>
<path d="M298.147 39.6584H296.683V41.1219H298.147V39.6584Z" fill="white"/>
<path d="M299.611 39.6584H298.147V41.1219H299.611V39.6584Z" fill="white"/>
<path d="M302.537 39.6584H301.073V41.1219H302.537V39.6584Z" fill="white"/>
<path d="M304.001 39.6584H302.537V41.1219H304.001V39.6584Z" fill="white"/>
<path d="M245.463 41.1221H244V42.5855H245.463V41.1221Z" fill="white"/>
<path d="M249.854 41.1221H248.39V42.5855H249.854V41.1221Z" fill="white"/>
<path d="M254.245 41.1221H252.781V42.5855H254.245V41.1221Z" fill="white"/>
<path d="M258.634 41.1221H257.171V42.5855H258.634V41.1221Z" fill="white"/>
<path d="M261.562 41.1221H260.098V42.5855H261.562V41.1221Z" fill="white"/>
<path d="M263.024 41.1221H261.561V42.5855H263.024V41.1221Z" fill="white"/>
<path d="M267.415 41.1221H265.951V42.5855H267.415V41.1221Z" fill="white"/>
<path d="M270.341 41.1221H268.878V42.5855H270.341V41.1221Z" fill="white"/>
<path d="M274.731 41.1221H273.268V42.5855H274.731V41.1221Z" fill="white"/>
<path d="M276.195 41.1221H274.732V42.5855H276.195V41.1221Z" fill="white"/>
<path d="M277.658 41.1221H276.195V42.5855H277.658V41.1221Z" fill="white"/>
<path d="M279.123 41.1221H277.659V42.5855H279.123V41.1221Z" fill="white"/>
<path d="M280.585 41.1221H279.122V42.5855H280.585V41.1221Z" fill="white"/>
<path d="M287.902 41.1221H286.439V42.5855H287.902V41.1221Z" fill="white"/>
<path d="M290.83 41.1221H289.366V42.5855H290.83V41.1221Z" fill="white"/>
<path d="M292.293 41.1221H290.829V42.5855H292.293V41.1221Z" fill="white"/>
<path d="M293.756 41.1221H292.293V42.5855H293.756V41.1221Z" fill="white"/>
<path d="M299.611 41.1221H298.147V42.5855H299.611V41.1221Z" fill="white"/>
<path d="M302.537 41.1221H301.073V42.5855H302.537V41.1221Z" fill="white"/>
<path d="M304.001 41.1221H302.537V42.5855H304.001V41.1221Z" fill="white"/>
<path d="M248.39 42.5854H246.927V44.0488H248.39V42.5854Z" fill="white"/>
<path d="M251.316 42.5852H249.853V44.0486H251.316V42.5852Z" fill="white"/>
<path d="M255.707 42.5854H254.244V44.0488H255.707V42.5854Z" fill="white"/>
<path d="M258.634 42.5852H257.171V44.0486H258.634V42.5852Z" fill="white"/>
<path d="M261.562 42.5854H260.098V44.0488H261.562V42.5854Z" fill="white"/>
<path d="M265.952 42.5854H264.488V44.0488H265.952V42.5854Z" fill="white"/>
<path d="M268.878 42.5854H267.415V44.0488H268.878V42.5854Z" fill="white"/>
<path d="M270.341 42.5854H268.878V44.0488H270.341V42.5854Z" fill="white"/>
<path d="M279.123 42.5852H277.659V44.0486H279.123V42.5852Z" fill="white"/>
<path d="M282.048 42.5854H280.585V44.0488H282.048V42.5854Z" fill="white"/>
<path d="M283.512 42.5854H282.049V44.0488H283.512V42.5854Z" fill="white"/>
<path d="M284.975 42.5854H283.512V44.0488H284.975V42.5854Z" fill="white"/>
<path d="M289.365 42.5854H287.902V44.0488H289.365V42.5854Z" fill="white"/>
<path d="M292.293 42.5852H290.829V44.0486H292.293V42.5852Z" fill="white"/>
<path d="M293.756 42.5854H292.293V44.0488H293.756V42.5854Z" fill="white"/>
<path d="M295.22 42.5854H293.756V44.0488H295.22V42.5854Z" fill="white"/>
<path d="M298.147 42.5854H296.683V44.0488H298.147V42.5854Z" fill="white"/>
<path d="M301.073 42.5854H299.61V44.0488H301.073V42.5854Z" fill="white"/>
<path d="M304.001 42.5852H302.537V44.0486H304.001V42.5852Z" fill="white"/>
<path d="M246.926 44.0487H245.463V45.5121H246.926V44.0487Z" fill="white"/>
<path d="M254.245 44.0487H252.781V45.5121H254.245V44.0487Z" fill="white"/>
<path d="M255.707 44.0487H254.244V45.5121H255.707V44.0487Z" fill="white"/>
<path d="M257.17 44.0487H255.707V45.5121H257.17V44.0487Z" fill="white"/>
<path d="M258.634 44.0487H257.171V45.5121H258.634V44.0487Z" fill="white"/>
<path d="M260.097 44.0487H258.634V45.5121H260.097V44.0487Z" fill="white"/>
<path d="M261.562 44.0487H260.098V45.5121H261.562V44.0487Z" fill="white"/>
<path d="M263.024 44.0487H261.561V45.5121H263.024V44.0487Z" fill="white"/>
<path d="M265.952 44.0487H264.488V45.5121H265.952V44.0487Z" fill="white"/>
<path d="M267.415 44.0487H265.951V45.5121H267.415V44.0487Z" fill="white"/>
<path d="M270.341 44.0487H268.878V45.5121H270.341V44.0487Z" fill="white"/>
<path d="M274.731 44.0487H273.268V45.5121H274.731V44.0487Z" fill="white"/>
<path d="M277.658 44.0487H276.195V45.5121H277.658V44.0487Z" fill="white"/>
<path d="M279.123 44.0487H277.659V45.5121H279.123V44.0487Z" fill="white"/>
<path d="M280.585 44.0487H279.122V45.5121H280.585V44.0487Z" fill="white"/>
<path d="M282.048 44.0487H280.585V45.5121H282.048V44.0487Z" fill="white"/>
<path d="M284.975 44.0487H283.512V45.5121H284.975V44.0487Z" fill="white"/>
<path d="M287.902 44.0487H286.439V45.5121H287.902V44.0487Z" fill="white"/>
<path d="M289.365 44.0487H287.902V45.5121H289.365V44.0487Z" fill="white"/>
<path d="M292.293 44.0487H290.829V45.5121H292.293V44.0487Z" fill="white"/>
<path d="M295.22 44.0487H293.756V45.5121H295.22V44.0487Z" fill="white"/>
<path d="M298.147 44.0487H296.683V45.5121H298.147V44.0487Z" fill="white"/>
<path d="M304.001 44.0487H302.537V45.5121H304.001V44.0487Z" fill="white"/>
<path d="M248.39 45.5122H246.927V46.9756H248.39V45.5122Z" fill="white"/>
<path d="M249.854 45.5122H248.39V46.9756H249.854V45.5122Z" fill="white"/>
<path d="M251.316 45.5121H249.853V46.9755H251.316V45.5121Z" fill="white"/>
<path d="M252.78 45.5122H251.317V46.9756H252.78V45.5122Z" fill="white"/>
<path d="M258.634 45.5121H257.171V46.9755H258.634V45.5121Z" fill="white"/>
<path d="M260.097 45.5122H258.634V46.9756H260.097V45.5122Z" fill="white"/>
<path d="M264.489 45.5121H263.025V46.9755H264.489V45.5121Z" fill="white"/>
<path d="M265.952 45.5122H264.488V46.9756H265.952V45.5122Z" fill="white"/>
<path d="M267.415 45.5122H265.951V46.9756H267.415V45.5122Z" fill="white"/>
<path d="M268.878 45.5122H267.415V46.9756H268.878V45.5122Z" fill="white"/>
<path d="M270.341 45.5122H268.878V46.9756H270.341V45.5122Z" fill="white"/>
<path d="M271.804 45.5121H270.341V46.9755H271.804V45.5121Z" fill="white"/>
<path d="M273.269 45.5122H271.805V46.9756H273.269V45.5122Z" fill="white"/>
<path d="M274.731 45.5122H273.268V46.9756H274.731V45.5122Z" fill="white"/>
<path d="M276.195 45.5122H274.732V46.9756H276.195V45.5122Z" fill="white"/>
<path d="M280.585 45.5122H279.122V46.9756H280.585V45.5122Z" fill="white"/>
<path d="M283.512 45.5122H282.049V46.9756H283.512V45.5122Z" fill="white"/>
<path d="M284.975 45.5122H283.512V46.9756H284.975V45.5122Z" fill="white"/>
<path d="M286.438 45.5121H284.975V46.9755H286.438V45.5121Z" fill="white"/>
<path d="M287.902 45.5122H286.439V46.9756H287.902V45.5122Z" fill="white"/>
<path d="M289.365 45.5122H287.902V46.9756H289.365V45.5122Z" fill="white"/>
<path d="M290.83 45.5122H289.366V46.9756H290.83V45.5122Z" fill="white"/>
<path d="M292.293 45.5121H290.829V46.9755H292.293V45.5121Z" fill="white"/>
<path d="M296.682 45.5121H295.219V46.9755H296.682V45.5121Z" fill="white"/>
<path d="M298.147 45.5122H296.683V46.9756H298.147V45.5122Z" fill="white"/>
<path d="M299.611 45.5121H298.147V46.9755H299.611V45.5121Z" fill="white"/>
<path d="M302.537 45.5122H301.073V46.9756H302.537V45.5122Z" fill="white"/>
<path d="M304.001 45.5121H302.537V46.9755H304.001V45.5121Z" fill="white"/>
<path d="M245.463 46.9755H244V48.4389H245.463V46.9755Z" fill="white"/>
<path d="M248.39 46.9755H246.927V48.4389H248.39V46.9755Z" fill="white"/>
<path d="M251.316 46.9756H249.853V48.439H251.316V46.9756Z" fill="white"/>
<path d="M254.245 46.9756H252.781V48.439H254.245V46.9756Z" fill="white"/>
<path d="M261.562 46.9755H260.098V48.4389H261.562V46.9755Z" fill="white"/>
<path d="M263.024 46.9755H261.561V48.4389H263.024V46.9755Z" fill="white"/>
<path d="M267.415 46.9755H265.951V48.4389H267.415V46.9755Z" fill="white"/>
<path d="M270.341 46.9755H268.878V48.4389H270.341V46.9755Z" fill="white"/>
<path d="M276.195 46.9755H274.732V48.4389H276.195V46.9755Z" fill="white"/>
<path d="M277.658 46.9755H276.195V48.4389H277.658V46.9755Z" fill="white"/>
<path d="M280.585 46.9755H279.122V48.4389H280.585V46.9755Z" fill="white"/>
<path d="M283.512 46.9755H282.049V48.4389H283.512V46.9755Z" fill="white"/>
<path d="M284.975 46.9755H283.512V48.4389H284.975V46.9755Z" fill="white"/>
<path d="M287.902 46.9755H286.439V48.4389H287.902V46.9755Z" fill="white"/>
<path d="M302.537 46.9755H301.073V48.4389H302.537V46.9755Z" fill="white"/>
<path d="M304.001 46.9756H302.537V48.439H304.001V46.9756Z" fill="white"/>
<path d="M245.463 48.4391H244V49.9025H245.463V48.4391Z" fill="white"/>
<path d="M248.39 48.4391H246.927V49.9025H248.39V48.4391Z" fill="white"/>
<path d="M249.854 48.4391H248.39V49.9025H249.854V48.4391Z" fill="white"/>
<path d="M251.316 48.4392H249.853V49.9026H251.316V48.4392Z" fill="white"/>
<path d="M255.707 48.4391H254.244V49.9025H255.707V48.4391Z" fill="white"/>
<path d="M257.17 48.4391H255.707V49.9025H257.17V48.4391Z" fill="white"/>
<path d="M258.634 48.4392H257.171V49.9026H258.634V48.4392Z" fill="white"/>
<path d="M260.097 48.4391H258.634V49.9025H260.097V48.4391Z" fill="white"/>
<path d="M263.024 48.4391H261.561V49.9025H263.024V48.4391Z" fill="white"/>
<path d="M264.489 48.4392H263.025V49.9026H264.489V48.4392Z" fill="white"/>
<path d="M265.952 48.4391H264.488V49.9025H265.952V48.4391Z" fill="white"/>
<path d="M270.341 48.4391H268.878V49.9025H270.341V48.4391Z" fill="white"/>
<path d="M273.269 48.4391H271.805V49.9025H273.269V48.4391Z" fill="white"/>
<path d="M274.731 48.4391H273.268V49.9025H274.731V48.4391Z" fill="white"/>
<path d="M276.195 48.4391H274.732V49.9025H276.195V48.4391Z" fill="white"/>
<path d="M282.048 48.4391H280.585V49.9025H282.048V48.4391Z" fill="white"/>
<path d="M287.902 48.4391H286.439V49.9025H287.902V48.4391Z" fill="white"/>
<path d="M295.22 48.4391H293.756V49.9025H295.22V48.4391Z" fill="white"/>
<path d="M296.682 48.4392H295.219V49.9026H296.682V48.4392Z" fill="white"/>
<path d="M298.147 48.4391H296.683V49.9025H298.147V48.4391Z" fill="white"/>
<path d="M301.073 48.4391H299.61V49.9025H301.073V48.4391Z" fill="white"/>
<path d="M304.001 48.4392H302.537V49.9026H304.001V48.4392Z" fill="white"/>
<path d="M248.39 49.9025H246.927V51.3659H248.39V49.9025Z" fill="white"/>
<path d="M249.854 49.9025H248.39V51.3659H249.854V49.9025Z" fill="white"/>
<path d="M254.245 49.9023H252.781V51.3658H254.245V49.9023Z" fill="white"/>
<path d="M255.707 49.9025H254.244V51.3659H255.707V49.9025Z" fill="white"/>
<path d="M257.17 49.9025H255.707V51.3659H257.17V49.9025Z" fill="white"/>
<path d="M261.562 49.9025H260.098V51.3659H261.562V49.9025Z" fill="white"/>
<path d="M263.024 49.9025H261.561V51.3659H263.024V49.9025Z" fill="white"/>
<path d="M264.489 49.9023H263.025V51.3658H264.489V49.9023Z" fill="white"/>
<path d="M265.952 49.9025H264.488V51.3659H265.952V49.9025Z" fill="white"/>
<path d="M267.415 49.9025H265.951V51.3659H267.415V49.9025Z" fill="white"/>
<path d="M270.341 49.9025H268.878V51.3659H270.341V49.9025Z" fill="white"/>
<path d="M271.804 49.9023H270.341V51.3658H271.804V49.9023Z" fill="white"/>
<path d="M274.731 49.9025H273.268V51.3659H274.731V49.9025Z" fill="white"/>
<path d="M283.512 49.9025H282.049V51.3659H283.512V49.9025Z" fill="white"/>
<path d="M284.975 49.9025H283.512V51.3659H284.975V49.9025Z" fill="white"/>
<path d="M293.756 49.9025H292.293V51.3659H293.756V49.9025Z" fill="white"/>
<path d="M298.147 49.9025H296.683V51.3659H298.147V49.9025Z" fill="white"/>
<path d="M299.611 49.9023H298.147V51.3658H299.611V49.9023Z" fill="white"/>
<path d="M304.001 49.9023H302.537V51.3658H304.001V49.9023Z" fill="white"/>
<path d="M251.316 51.3657H249.853V52.8291H251.316V51.3657Z" fill="white"/>
<path d="M252.78 51.3659H251.317V52.8293H252.78V51.3659Z" fill="white"/>
<path d="M255.707 51.3659H254.244V52.8293H255.707V51.3659Z" fill="white"/>
<path d="M257.17 51.3659H255.707V52.8293H257.17V51.3659Z" fill="white"/>
<path d="M261.562 51.3659H260.098V52.8293H261.562V51.3659Z" fill="white"/>
<path d="M265.952 51.3659H264.488V52.8293H265.952V51.3659Z" fill="white"/>
<path d="M268.878 51.3659H267.415V52.8293H268.878V51.3659Z" fill="white"/>
<path d="M270.341 51.3659H268.878V52.8293H270.341V51.3659Z" fill="white"/>
<path d="M271.804 51.3657H270.341V52.8291H271.804V51.3657Z" fill="white"/>
<path d="M276.195 51.3659H274.732V52.8293H276.195V51.3659Z" fill="white"/>
<path d="M280.585 51.3659H279.122V52.8293H280.585V51.3659Z" fill="white"/>
<path d="M283.512 51.3659H282.049V52.8293H283.512V51.3659Z" fill="white"/>
<path d="M284.975 51.3659H283.512V52.8293H284.975V51.3659Z" fill="white"/>
<path d="M286.438 51.3657H284.975V52.8291H286.438V51.3657Z" fill="white"/>
<path d="M287.902 51.3659H286.439V52.8293H287.902V51.3659Z" fill="white"/>
<path d="M290.83 51.3659H289.366V52.8293H290.83V51.3659Z" fill="white"/>
<path d="M292.293 51.3657H290.829V52.8291H292.293V51.3657Z" fill="white"/>
<path d="M293.756 51.3659H292.293V52.8293H293.756V51.3659Z" fill="white"/>
<path d="M298.147 51.3659H296.683V52.8293H298.147V51.3659Z" fill="white"/>
<path d="M245.463 52.8292H244V54.2926H245.463V52.8292Z" fill="white"/>
<path d="M246.926 52.8292H245.463V54.2926H246.926V52.8292Z" fill="white"/>
<path d="M248.39 52.8292H246.927V54.2926H248.39V52.8292Z" fill="white"/>
<path d="M251.316 52.8292H249.853V54.2926H251.316V52.8292Z" fill="white"/>
<path d="M252.78 52.8292H251.317V54.2926H252.78V52.8292Z" fill="white"/>
<path d="M254.245 52.8292H252.781V54.2926H254.245V52.8292Z" fill="white"/>
<path d="M257.17 52.8292H255.707V54.2926H257.17V52.8292Z" fill="white"/>
<path d="M265.952 52.8292H264.488V54.2926H265.952V52.8292Z" fill="white"/>
<path d="M268.878 52.8292H267.415V54.2926H268.878V52.8292Z" fill="white"/>
<path d="M270.341 52.8292H268.878V54.2926H270.341V52.8292Z" fill="white"/>
<path d="M273.269 52.8292H271.805V54.2926H273.269V52.8292Z" fill="white"/>
<path d="M276.195 52.8292H274.732V54.2926H276.195V52.8292Z" fill="white"/>
<path d="M277.658 52.8292H276.195V54.2926H277.658V52.8292Z" fill="white"/>
<path d="M279.123 52.8292H277.659V54.2926H279.123V52.8292Z" fill="white"/>
<path d="M280.585 52.8292H279.122V54.2926H280.585V52.8292Z" fill="white"/>
<path d="M286.438 52.8292H284.975V54.2926H286.438V52.8292Z" fill="white"/>
<path d="M287.902 52.8292H286.439V54.2926H287.902V52.8292Z" fill="white"/>
<path d="M290.83 52.8292H289.366V54.2926H290.83V52.8292Z" fill="white"/>
<path d="M292.293 52.8292H290.829V54.2926H292.293V52.8292Z" fill="white"/>
<path d="M293.756 52.8292H292.293V54.2926H293.756V52.8292Z" fill="white"/>
<path d="M295.22 52.8292H293.756V54.2926H295.22V52.8292Z" fill="white"/>
<path d="M296.682 52.8292H295.219V54.2926H296.682V52.8292Z" fill="white"/>
<path d="M298.147 52.8292H296.683V54.2926H298.147V52.8292Z" fill="white"/>
<path d="M299.611 52.8292H298.147V54.2926H299.611V52.8292Z" fill="white"/>
<path d="M257.17 54.2925H255.707V55.756H257.17V54.2925Z" fill="white"/>
<path d="M258.634 54.2927H257.171V55.7561H258.634V54.2927Z" fill="white"/>
<path d="M260.097 54.2925H258.634V55.756H260.097V54.2925Z" fill="white"/>
<path d="M271.804 54.2927H270.341V55.7561H271.804V54.2927Z" fill="white"/>
<path d="M276.195 54.2925H274.732V55.756H276.195V54.2925Z" fill="white"/>
<path d="M277.658 54.2925H276.195V55.756H277.658V54.2925Z" fill="white"/>
<path d="M279.123 54.2927H277.659V55.7561H279.123V54.2927Z" fill="white"/>
<path d="M282.048 54.2925H280.585V55.756H282.048V54.2925Z" fill="white"/>
<path d="M284.975 54.2925H283.512V55.756H284.975V54.2925Z" fill="white"/>
<path d="M286.438 54.2927H284.975V55.7561H286.438V54.2927Z" fill="white"/>
<path d="M287.902 54.2925H286.439V55.756H287.902V54.2925Z" fill="white"/>
<path d="M289.365 54.2925H287.902V55.756H289.365V54.2925Z" fill="white"/>
<path d="M292.293 54.2927H290.829V55.7561H292.293V54.2927Z" fill="white"/>
<path d="M298.147 54.2925H296.683V55.756H298.147V54.2925Z" fill="white"/>
<path d="M299.611 54.2927H298.147V55.7561H299.611V54.2927Z" fill="white"/>
<path d="M304.001 54.2927H302.537V55.7561H304.001V54.2927Z" fill="white"/>
<path d="M257.17 55.7562H255.707V57.2196H257.17V55.7562Z" fill="white"/>
<path d="M258.634 55.7563H257.171V57.2198H258.634V55.7563Z" fill="white"/>
<path d="M260.097 55.7562H258.634V57.2196H260.097V55.7562Z" fill="white"/>
<path d="M261.562 55.7562H260.098V57.2196H261.562V55.7562Z" fill="white"/>
<path d="M263.024 55.7562H261.561V57.2196H263.024V55.7562Z" fill="white"/>
<path d="M267.415 55.7562H265.951V57.2196H267.415V55.7562Z" fill="white"/>
<path d="M268.878 55.7562H267.415V57.2196H268.878V55.7562Z" fill="white"/>
<path d="M270.341 55.7562H268.878V57.2196H270.341V55.7562Z" fill="white"/>
<path d="M274.731 55.7562H273.268V57.2196H274.731V55.7562Z" fill="white"/>
<path d="M279.123 55.7563H277.659V57.2198H279.123V55.7563Z" fill="white"/>
<path d="M284.975 55.7562H283.512V57.2196H284.975V55.7562Z" fill="white"/>
<path d="M287.902 55.7562H286.439V57.2196H287.902V55.7562Z" fill="white"/>
<path d="M289.365 55.7562H287.902V57.2196H289.365V55.7562Z" fill="white"/>
<path d="M290.83 55.7562H289.366V57.2196H290.83V55.7562Z" fill="white"/>
<path d="M292.293 55.7563H290.829V57.2198H292.293V55.7563Z" fill="white"/>
<path d="M295.22 55.7562H293.756V57.2196H295.22V55.7562Z" fill="white"/>
<path d="M298.147 55.7562H296.683V57.2196H298.147V55.7562Z" fill="white"/>
<path d="M299.611 55.7563H298.147V57.2198H299.611V55.7563Z" fill="white"/>
<path d="M304.001 55.7563H302.537V57.2198H304.001V55.7563Z" fill="white"/>
<path d="M260.097 57.2195H258.634V58.6829H260.097V57.2195Z" fill="white"/>
<path d="M261.562 57.2195H260.098V58.6829H261.562V57.2195Z" fill="white"/>
<path d="M267.415 57.2195H265.951V58.6829H267.415V57.2195Z" fill="white"/>
<path d="M270.341 57.2195H268.878V58.6829H270.341V57.2195Z" fill="white"/>
<path d="M271.804 57.2195H270.341V58.6829H271.804V57.2195Z" fill="white"/>
<path d="M274.731 57.2195H273.268V58.6829H274.731V57.2195Z" fill="white"/>
<path d="M277.658 57.2195H276.195V58.6829H277.658V57.2195Z" fill="white"/>
<path d="M279.123 57.2195H277.659V58.6829H279.123V57.2195Z" fill="white"/>
<path d="M280.585 57.2195H279.122V58.6829H280.585V57.2195Z" fill="white"/>
<path d="M283.512 57.2195H282.049V58.6829H283.512V57.2195Z" fill="white"/>
<path d="M284.975 57.2195H283.512V58.6829H284.975V57.2195Z" fill="white"/>
<path d="M286.438 57.2195H284.975V58.6829H286.438V57.2195Z" fill="white"/>
<path d="M287.902 57.2195H286.439V58.6829H287.902V57.2195Z" fill="white"/>
<path d="M289.365 57.2195H287.902V58.6829H289.365V57.2195Z" fill="white"/>
<path d="M290.83 57.2195H289.366V58.6829H290.83V57.2195Z" fill="white"/>
<path d="M292.293 57.2195H290.829V58.6829H292.293V57.2195Z" fill="white"/>
<path d="M298.147 57.2195H296.683V58.6829H298.147V57.2195Z" fill="white"/>
<path d="M299.611 57.2195H298.147V58.6829H299.611V57.2195Z" fill="white"/>
<path d="M302.537 57.2195H301.073V58.6829H302.537V57.2195Z" fill="white"/>
<path d="M304.001 57.2195H302.537V58.6829H304.001V57.2195Z" fill="white"/>
<path d="M257.17 58.683H255.707V60.1464H257.17V58.683Z" fill="white"/>
<path d="M260.097 58.683H258.634V60.1464H260.097V58.683Z" fill="white"/>
<path d="M261.562 58.683H260.098V60.1464H261.562V58.683Z" fill="white"/>
<path d="M263.024 58.683H261.561V60.1464H263.024V58.683Z" fill="white"/>
<path d="M267.415 58.683H265.951V60.1464H267.415V58.683Z" fill="white"/>
<path d="M271.804 58.6829H270.341V60.1463H271.804V58.6829Z" fill="white"/>
<path d="M273.269 58.683H271.805V60.1464H273.269V58.683Z" fill="white"/>
<path d="M274.731 58.683H273.268V60.1464H274.731V58.683Z" fill="white"/>
<path d="M277.658 58.683H276.195V60.1464H277.658V58.683Z" fill="white"/>
<path d="M280.585 58.683H279.122V60.1464H280.585V58.683Z" fill="white"/>
<path d="M282.048 58.683H280.585V60.1464H282.048V58.683Z" fill="white"/>
<path d="M283.512 58.683H282.049V60.1464H283.512V58.683Z" fill="white"/>
<path d="M287.902 58.683H286.439V60.1464H287.902V58.683Z" fill="white"/>
<path d="M289.365 58.683H287.902V60.1464H289.365V58.683Z" fill="white"/>
<path d="M290.83 58.683H289.366V60.1464H290.83V58.683Z" fill="white"/>
<path d="M292.293 58.6829H290.829V60.1463H292.293V58.6829Z" fill="white"/>
<path d="M293.756 58.683H292.293V60.1464H293.756V58.683Z" fill="white"/>
<path d="M295.22 58.683H293.756V60.1464H295.22V58.683Z" fill="white"/>
<path d="M296.682 58.6829H295.219V60.1463H296.682V58.6829Z" fill="white"/>
<path d="M298.147 58.683H296.683V60.1464H298.147V58.683Z" fill="white"/>
<path d="M299.611 58.6829H298.147V60.1463H299.611V58.6829Z" fill="white"/>
<path d="M302.537 58.683H301.073V60.1464H302.537V58.683Z" fill="white"/>
<path d="M260.097 60.1462H258.634V61.6097H260.097V60.1462Z" fill="white"/>
<path d="M264.489 60.1464H263.025V61.6098H264.489V60.1464Z" fill="white"/>
<path d="M265.952 60.1462H264.488V61.6097H265.952V60.1462Z" fill="white"/>
<path d="M267.415 60.1462H265.951V61.6097H267.415V60.1462Z" fill="white"/>
<path d="M279.123 60.1464H277.659V61.6098H279.123V60.1464Z" fill="white"/>
<path d="M284.975 60.1462H283.512V61.6097H284.975V60.1462Z" fill="white"/>
<path d="M286.438 60.1464H284.975V61.6098H286.438V60.1464Z" fill="white"/>
<path d="M290.83 60.1462H289.366V61.6097H290.83V60.1462Z" fill="white"/>
<path d="M296.682 60.1464H295.219V61.6098H296.682V60.1464Z" fill="white"/>
<path d="M301.073 60.1462H299.61V61.6097H301.073V60.1462Z" fill="white"/>
<path d="M302.537 60.1462H301.073V61.6097H302.537V60.1462Z" fill="white"/>
<path d="M264.489 61.6097H263.025V63.0732H264.489V61.6097Z" fill="white"/>
<path d="M271.804 61.6097H270.341V63.0732H271.804V61.6097Z" fill="white"/>
<path d="M274.731 61.6097H273.268V63.0732H274.731V61.6097Z" fill="white"/>
<path d="M277.658 61.6097H276.195V63.0732H277.658V61.6097Z" fill="white"/>
<path d="M279.123 61.6097H277.659V63.0732H279.123V61.6097Z" fill="white"/>
<path d="M280.585 61.6097H279.122V63.0732H280.585V61.6097Z" fill="white"/>
<path d="M282.048 61.6097H280.585V63.0732H282.048V61.6097Z" fill="white"/>
<path d="M283.512 61.6097H282.049V63.0732H283.512V61.6097Z" fill="white"/>
<path d="M284.975 61.6097H283.512V63.0732H284.975V61.6097Z" fill="white"/>
<path d="M286.438 61.6097H284.975V63.0732H286.438V61.6097Z" fill="white"/>
<path d="M287.902 61.6097H286.439V63.0732H287.902V61.6097Z" fill="white"/>
<path d="M293.756 61.6097H292.293V63.0732H293.756V61.6097Z" fill="white"/>
<path d="M304.001 61.6097H302.537V63.0732H304.001V61.6097Z" fill="white"/>
<path d="M263.024 63.0732H261.561V64.5367H263.024V63.0732Z" fill="white"/>
<path d="M264.489 63.0731H263.025V64.5365H264.489V63.0731Z" fill="white"/>
<path d="M265.952 63.0732H264.488V64.5367H265.952V63.0732Z" fill="white"/>
<path d="M268.878 63.0732H267.415V64.5367H268.878V63.0732Z" fill="white"/>
<path d="M270.341 63.0732H268.878V64.5367H270.341V63.0732Z" fill="white"/>
<path d="M271.804 63.0731H270.341V64.5365H271.804V63.0731Z" fill="white"/>
<path d="M273.269 63.0732H271.805V64.5367H273.269V63.0732Z" fill="white"/>
<path d="M274.731 63.0732H273.268V64.5367H274.731V63.0732Z" fill="white"/>
<path d="M276.195 63.0732H274.732V64.5367H276.195V63.0732Z" fill="white"/>
<path d="M280.585 63.0732H279.122V64.5367H280.585V63.0732Z" fill="white"/>
<path d="M283.512 63.0732H282.049V64.5367H283.512V63.0732Z" fill="white"/>
<path d="M284.975 63.0732H283.512V64.5367H284.975V63.0732Z" fill="white"/>
<path d="M287.902 63.0732H286.439V64.5367H287.902V63.0732Z" fill="white"/>
<path d="M289.365 63.0732H287.902V64.5367H289.365V63.0732Z" fill="white"/>
<path d="M290.83 63.0732H289.366V64.5367H290.83V63.0732Z" fill="white"/>
<path d="M292.293 63.0731H290.829V64.5365H292.293V63.0731Z" fill="white"/>
<path d="M293.756 63.0732H292.293V64.5367H293.756V63.0732Z" fill="white"/>
<path d="M295.22 63.0732H293.756V64.5367H295.22V63.0732Z" fill="white"/>
<path d="M296.682 63.0731H295.219V64.5365H296.682V63.0731Z" fill="white"/>
<path d="M299.611 63.0731H298.147V64.5365H299.611V63.0731Z" fill="white"/>
<path d="M302.537 63.0732H301.073V64.5367H302.537V63.0732Z" fill="white"/>
<path d="M304.001 63.0731H302.537V64.5365H304.001V63.0731Z" fill="white"/>
<path d="M257.17 64.5367H255.707V66.0001H257.17V64.5367Z" fill="white"/>
<path d="M258.634 64.5369H257.171V66.0003H258.634V64.5369Z" fill="white"/>
<path d="M260.097 64.5367H258.634V66.0001H260.097V64.5367Z" fill="white"/>
<path d="M263.024 64.5367H261.561V66.0001H263.024V64.5367Z" fill="white"/>
<path d="M267.415 64.5367H265.951V66.0001H267.415V64.5367Z" fill="white"/>
<path d="M274.731 64.5367H273.268V66.0001H274.731V64.5367Z" fill="white"/>
<path d="M276.195 64.5367H274.732V66.0001H276.195V64.5367Z" fill="white"/>
<path d="M277.658 64.5367H276.195V66.0001H277.658V64.5367Z" fill="white"/>
<path d="M279.123 64.5369H277.659V66.0003H279.123V64.5369Z" fill="white"/>
<path d="M280.585 64.5367H279.122V66.0001H280.585V64.5367Z" fill="white"/>
<path d="M286.438 64.5369H284.975V66.0003H286.438V64.5369Z" fill="white"/>
<path d="M287.902 64.5367H286.439V66.0001H287.902V64.5367Z" fill="white"/>
<path d="M292.293 64.5369H290.829V66.0003H292.293V64.5369Z" fill="white"/>
<path d="M296.682 64.5369H295.219V66.0003H296.682V64.5369Z" fill="white"/>
<path d="M298.147 64.5367H296.683V66.0001H298.147V64.5367Z" fill="white"/>
<path d="M299.611 64.5369H298.147V66.0003H299.611V64.5369Z" fill="white"/>
<path d="M302.537 64.5367H301.073V66.0001H302.537V64.5367Z" fill="white"/>
<path d="M250.747 6.00055H247.497C245.914 6.00055 244.572 7.04676 244.143 8.47671C244.099 8.62463 244.064 8.77665 244.04 8.93205C244.014 9.10353 244 9.27911 244 9.45787V12.7842C244 14.6915 245.569 16.2425 247.497 16.2425L249.122 16.2428L250.747 16.2424C252.674 16.2424 254.244 14.6914 254.244 12.7841V9.45787C254.244 7.55148 252.675 6.00055 250.747 6.00055ZM252.707 12.7842C252.707 13.8438 251.828 14.7059 250.746 14.7059L249.122 14.7062L247.498 14.7058C246.416 14.7058 245.537 13.8437 245.537 12.7842V9.45787C245.537 9.12689 245.622 8.81527 245.774 8.54298C245.919 8.28105 246.125 8.05578 246.373 7.88522C246.691 7.6659 247.079 7.53713 247.497 7.53713H250.747C251.828 7.53713 252.707 8.39875 252.707 9.45787V12.7842Z" fill="white"/>
<path d="M300.503 6.00073H297.254C295.67 6.00073 294.329 7.04694 293.9 8.47689C293.855 8.62481 293.821 8.77683 293.797 8.93223C293.77 9.10371 293.756 9.27929 293.756 9.45805V12.7843C293.756 14.6917 295.326 16.2427 297.254 16.2427L298.878 16.243L300.503 16.2426C302.431 16.2426 304 14.6916 304 12.7842V9.45805C304 7.55166 302.431 6.00073 300.503 6.00073ZM302.464 12.7843C302.464 13.844 301.584 14.7061 300.502 14.7061L298.878 14.7064L297.254 14.706C296.172 14.706 295.293 13.8439 295.293 12.7843V9.45805C295.293 9.12707 295.379 8.81545 295.53 8.54317C295.675 8.28123 295.881 8.05597 296.129 7.88541C296.448 7.66608 296.835 7.53732 297.254 7.53732H300.503C301.584 7.53732 302.464 8.39893 302.464 9.45805V12.7843Z" fill="white"/>
<path d="M250.747 55.757H247.497C245.914 55.757 244.572 56.8032 244.143 58.2331C244.099 58.381 244.064 58.5331 244.04 58.6885C244.014 58.8599 244 59.0355 244 59.2143V62.5406C244 64.4479 245.569 65.9989 247.497 65.9989L249.122 65.9992L250.747 65.9988C252.674 65.9988 254.244 64.4478 254.244 62.5405V59.2143C254.244 57.3079 252.675 55.757 250.747 55.757ZM252.707 62.5406C252.707 63.6002 251.828 64.4623 250.746 64.4623L249.122 64.4626L247.498 64.4622C246.416 64.4622 245.537 63.6001 245.537 62.5406V59.2143C245.537 58.8833 245.622 58.5717 245.774 58.2994C245.919 58.0375 246.125 57.8122 246.373 57.6416C246.691 57.4223 247.079 57.2935 247.497 57.2935H250.747C251.828 57.2935 252.707 58.1552 252.707 59.2143V62.5406Z" fill="white"/>
<path d="M248.129 13.3172C247.466 13.3172 246.927 12.789 246.927 12.1402V10.1033C246.927 9.90061 246.98 9.7099 247.072 9.54302C247.161 9.38243 247.287 9.2444 247.439 9.14026C247.634 9.00601 247.872 8.92694 248.128 8.92694H250.118C250.78 8.92694 251.319 9.45456 251.319 10.1032V12.1402C251.319 12.7889 250.78 13.3171 250.118 13.3171H249.123L248.129 13.3172Z" fill="white"/>
<path d="M297.884 13.317C297.222 13.317 296.683 12.7888 296.683 12.1401V10.1031C296.683 9.90043 296.735 9.70971 296.828 9.54284C296.917 9.38225 297.043 9.24422 297.195 9.14008C297.39 9.00583 297.627 8.92676 297.883 8.92676H299.873C300.535 8.92676 301.074 9.45438 301.074 10.103V12.14C301.074 12.7887 300.535 13.317 299.873 13.317H298.878L297.884 13.317Z" fill="white"/>
<path d="M248.129 63.073C247.466 63.073 246.927 62.5448 246.927 61.8961V59.8591C246.927 59.6565 246.98 59.4658 247.072 59.2989C247.161 59.1383 247.287 59.0003 247.439 58.8961C247.634 58.7619 247.872 58.6828 248.128 58.6828H250.118C250.78 58.6828 251.319 59.2104 251.319 59.8591V61.8961C251.319 62.5447 250.78 63.073 250.118 63.073H249.123L248.129 63.073Z" fill="white"/>
<defs>
<linearGradient id="paint0_linear_3534_8617" x1="40.1902" y1="56.3225" x2="9.9905" y2="25.3911" gradientUnits="userSpaceOnUse">
<stop stop-color="#00A0FF"/>
<stop offset="0.0066" stop-color="#00A1FF"/>
<stop offset="0.2601" stop-color="#00BEFF"/>
<stop offset="0.5122" stop-color="#00D2FF"/>
<stop offset="0.7604" stop-color="#00DFFF"/>
<stop offset="1" stop-color="#00E3FF"/>
</linearGradient>
<linearGradient id="paint1_linear_3534_8617" x1="62.3776" y1="35.9974" x2="17.7678" y2="35.9974" gradientUnits="userSpaceOnUse">
<stop stop-color="#FFE000"/>
<stop offset="0.4087" stop-color="#FFBD00"/>
<stop offset="0.7754" stop-color="#FFA500"/>
<stop offset="1" stop-color="#FF9C00"/>
</linearGradient>
<linearGradient id="paint2_linear_3534_8617" x1="45.7714" y1="31.867" x2="4.81816" y2="-10.0785" gradientUnits="userSpaceOnUse">
<stop stop-color="#FF3A44"/>
<stop offset="1" stop-color="#C31162"/>
</linearGradient>
<linearGradient id="paint3_linear_3534_8617" x1="13.4533" y1="71.6828" x2="31.7408" y2="52.9524" gradientUnits="userSpaceOnUse">
<stop stop-color="#32A071"/>
<stop offset="0.0685" stop-color="#2DA771"/>
<stop offset="0.4762" stop-color="#15CF74"/>
<stop offset="0.8009" stop-color="#06E775"/>
<stop offset="1" stop-color="#00F076"/>
</linearGradient>
</defs>
</svg>
